999
dxfrw 0.6.3
  0
SECTION
  2
HEADER
  9
$ACADVER
  1
AC1021
  9
$DWGCODEPAGE
  3
ANSI_1252
  9
$INSBASE
 10
0
 20
0
 30
0
  9
$EXTMIN
 10
-1.77635683940025e-15
 20
0
 30
0
  9
$EXTMAX
 10
65
 20
50
 30
0
  9
$LIMMIN
 10
0
 20
0
  9
$LIMMAX
 10
420
 20
297
  9
$ORTHOMODE
 70
    0
  9
$REGENMODE
 70
    1
  9
$FILLMODE
 70
    0
  9
$QTEXTMODE
 70
    0
  9
$MIRRTEXT
 70
    0
  9
$LTSCALE
 40
1
  9
$ATTMODE
 70
    0
  9
$TEXTSIZE
 40
2.5
  9
$TRACEWID
 40
15.68
  9
$TEXTSTYLE
  7
STANDARD
  9
$CLAYER
  8
LEDs
  9
$CELTYPE
  6
BYLAYER
  9
$CECOLOR
 62
  256
  9
$CELTSCALE
 40
1
  9
$DISPSILH
 70
    0
  9
$DIMSCALE
 40
2.5
  9
$DIMASZ
 40
2.5
  9
$DIMEXO
 40
0.625
  9
$DIMDLI
 40
3.75
  9
$DIMRND
 40
0
  9
$DIMDLE
 40
0
  9
$DIMEXE
 40
1.25
  9
$DIMTP
 40
0
  9
$DIMTM
 40
0
  9
$DIMTXT
 40
2.5
  9
$DIMCEN
 40
2.5
  9
$DIMTSZ
 40
0
  9
$DIMTOL
 70
    0
  9
$DIMLIM
 70
    0
  9
$DIMTIH
 70
    0
  9
$DIMTOH
 70
    0
  9
$DIMSE1
 70
    0
  9
$DIMSE2
 70
    0
  9
$DIMTAD
 70
    1
  9
$DIMZIN
 70
    8
  9
$DIMBLK
  1

  9
$DIMASO
 70
    1
  9
$DIMSHO
 70
    1
  9
$DIMPOST
  1

  9
$DIMAPOST
  1

  9
$DIMALT
 70
    0
  9
$DIMALTD
 70
    3
  9
$DIMALTF
 40
0.03937
  9
$DIMLFAC
 40
1
  9
$DIMTOFL
 70
    1
  9
$DIMTVP
 40
0
  9
$DIMTIX
 70
    0
  9
$DIMSOXD
 70
    0
  9
$DIMSAH
 70
    0
  9
$DIMBLK1
  1

  9
$DIMBLK2
  1

  9
$DIMSTYLE
  2
Standard
  9
$DIMCLRD
 70
    0
  9
$DIMCLRE
 70
    0
  9
$DIMCLRT
 70
    0
  9
$DIMTFAC
 40
1
  9
$DIMGAP
 40
0.625
  9
$DIMJUST
 70
    0
  9
$DIMSD1
 70
    0
  9
$DIMSD2
 70
    0
  9
$DIMTOLJ
 70
    0
  9
$DIMTZIN
 70
    8
  9
$DIMALTZ
 70
    0
  9
$DIMALTTZ
 70
    0
  9
$DIMUPT
 70
    0
  9
$DIMDEC
 70
    2
  9
$DIMTDEC
 70
    2
  9
$DIMALTU
 70
    2
  9
$DIMALTTD
 70
    3
  9
$DIMTXSTY
  7
STANDARD
  9
$DIMAUNIT
 70
    0
  9
$DIMADEC
 70
    0
  9
$DIMALTRND
 40
0
  9
$DIMAZIN
 70
    0
  9
$DIMDSEP
 70
   44
  9
$DIMATFIT
 70
    3
  9
$DIMFRAC
 70
    0
  9
$DIMLDRBLK
  1
STANDARD
  9
$DIMLUNIT
 70
    2
  9
$DIMLWD
 70
   -2
  9
$DIMLWE
 70
   -2
  9
$DIMTMOVE
 70
    0
  9
$DIMFXL
 40
1
  9
$DIMFXLON
 70
    0
  9
$DIMJOGANG
 40
0.7854
  9
$DIMTFILL
 70
    0
  9
$DIMTFILLCLR
 70
    0
  9
$DIMARCSYM
 70
    0
  9
$DIMLTYPE
  6

  9
$DIMLTEX1
  6

  9
$DIMLTEX2
  6

  9
$LUNITS
 70
    2
  9
$LUPREC
 70
    4
  9
$SKETCHINC
 40
1
  9
$FILLETRAD
 40
0
  9
$AUNITS
 70
    0
  9
$AUPREC
 70
    2
  9
$MENU
  1
.
  9
$ELEVATION
 40
0
  9
$PELEVATION
 40
0
  9
$THICKNESS
 40
0
  9
$LIMCHECK
 70
    0
  9
$CHAMFERA
 40
0
  9
$CHAMFERB
 40
0
  9
$CHAMFERC
 40
0
  9
$CHAMFERD
 40
0
  9
$SKPOLY
 70
    0
  9
$USRTIMER
 70
    1
  9
$ANGBASE
 50
0
  9
$ANGDIR
 70
    0
  9
$PDMODE
 70
   34
  9
$PDSIZE
 40
0
  9
$PLINEWID
 40
0
  9
$SPLFRAME
 70
    1
  9
$SPLINETYPE
 70
    2
  9
$SPLINESEGS
 70
    8
  9
$HANDSEED
  5
20000
  9
$SURFTAB1
 70
    6
  9
$SURFTAB2
 70
    6
  9
$SURFTYPE
 70
    6
  9
$SURFU
 70
    6
  9
$SURFV
 70
    6
  9
$UCSBASE
  2

  9
$UCSNAME
  2

  9
$UCSORG
 10
0
 20
0
 30
0
  9
$UCSXDIR
 10
1
 20
0
 30
0
  9
$UCSYDIR
 10
0
 20
1
 30
0
  9
$UCSORTHOREF
  2

  9
$UCSORTHOVIEW
 70
    0
  9
$UCSORGTOP
 10
0
 20
0
 30
0
  9
$UCSORGBOTTOM
 10
0
 20
0
 30
0
  9
$UCSORGLEFT
 10
0
 20
0
 30
0
  9
$UCSORGRIGHT
 10
0
 20
0
 30
0
  9
$UCSORGFRONT
 10
0
 20
0
 30
0
  9
$UCSORGBACK
 10
0
 20
0
 30
0
  9
$PUCSBASE
  2

  9
$PUCSNAME
  2

  9
$PUCSORG
 10
0
 20
0
 30
0
  9
$PUCSXDIR
 10
1
 20
0
 30
0
  9
$PUCSYDIR
 10
0
 20
1
 30
0
  9
$PUCSORTHOREF
  2

  9
$PUCSORTHOVIEW
 70
    0
  9
$PUCSORGTOP
 10
0
 20
0
 30
0
  9
$PUCSORGBOTTOM
 10
0
 20
0
 30
0
  9
$PUCSORGLEFT
 10
0
 20
0
 30
0
  9
$PUCSORGRIGHT
 10
0
 20
0
 30
0
  9
$PUCSORGFRONT
 10
0
 20
0
 30
0
  9
$PUCSORGBACK
 10
0
 20
0
 30
0
  9
$USERI1
 70
    0
  9
$USERI2
 70
    0
  9
$USERI3
 70
    0
  9
$USERI4
 70
    0
  9
$USERI5
 70
    0
  9
$USERR1
 40
0
  9
$USERR2
 40
0
  9
$USERR3
 40
0
  9
$USERR4
 40
0
  9
$USERR5
 40
0
  9
$WORLDVIEW
 70
    1
  9
$SHADEDGE
 70
    3
  9
$SHADEDIF
 70
   70
  9
$TILEMODE
 70
    1
  9
$MAXACTVP
 70
   64
  9
$PINSBASE
 10
0
 20
0
 30
0
  9
$PLIMCHECK
 70
    0
  9
$PEXTMIN
 10
0
 20
0
 30
0
  9
$PEXTMAX
 10
0
 20
0
 30
0
  9
$GRIDMODE
 70
    1
  9
$SNAPSTYLE
 70
    0
  9
$PLIMMIN
 10
0
 20
0
  9
$PLIMMAX
 10
297
 20
210
  9
$UNITMODE
 70
    0
  9
$VISRETAIN
 70
    1
  9
$PLINEGEN
 70
    0
  9
$PSLTSCALE
 70
    1
  9
$TREEDEPTH
 70
 3020
  9
$CMLSTYLE
  2
Standard
  9
$CMLJUST
 70
    0
  9
$CMLSCALE
 40
20
  9
$PROXYGRAPHICS
 70
    1
  9
$MEASUREMENT
 70
    1
  9
$CELWEIGHT
370
   -1
  9
$ENDCAPS
280
    0
  9
$JOINSTYLE
280
    0
  9
$LWDISPLAY
290
    0
  9
$INSUNITS
 70
    4
  9
$HYPERLINKBASE
  1

  9
$STYLESHEET
  1

  9
$XEDIT
290
    1
  9
$CEPSNTYPE
380
    0
  9
$PSTYLEMODE
290
    1
  9
$EXTNAMES
290
    1
  9
$PSVPSCALE
 40
1
  9
$OLESTARTUP
290
    0
  9
$SORTENTS
280
  127
  9
$INDEXCTL
280
    0
  9
$HIDETEXT
280
    1
  9
$XCLIPFRAME
290
    0
  9
$HALOGAP
280
    0
  9
$OBSCOLOR
 70
  257
  9
$OBSLTYPE
280
    0
  9
$INTERSECTIONDISPLAY
280
    0
  9
$INTERSECTIONCOLOR
 70
  257
  9
$DIMASSOC
280
    1
  9
$PROJECTNAME
  1

  9
$CAMERADISPLAY
290
    0
  9
$LENSLENGTH
 40
50
  9
$CAMERAHEIGHT
 40
0
  9
$STEPSPERSEC
 40
2
  9
$STEPSIZE
 40
50
  9
$3DDWFPREC
 40
2
  9
$PSOLWIDTH
 40
5
  9
$PSOLHEIGHT
 40
80
  9
$LOFTANG1
 40
1.570796326794897
  9
$LOFTANG2
 40
1.570796326794897
  9
$LOFTMAG1
 40
0
  9
$LOFTMAG2
 40
0
  9
$LOFTPARAM
 70
    7
  9
$LOFTNORMALS
280
    1
  9
$LATITUDE
 40
1
  9
$LONGITUDE
 40
1
  9
$NORTHDIRECTION
 40
0
  9
$TIMEZONE
 70
-8000
  9
$LIGHTGLYPHDISPLAY
280
    1
  9
$TILEMODELIGHTSYNCH
280
    1
  9
$SOLIDHIST
280
    1
  9
$SHOWHIST
280
    1
  9
$DWFFRAME
280
    2
  9
$DGNFRAME
280
    0
  9
$REALWORLDSCALE
290
    1
  9
$INTERFERECOLOR
 62
    1
  9
$CSHADOW
280
    0
  9
$SHADOWPLANELOCATION
 40
0
  0
ENDSEC
  0
SECTION
  2
CLASSES
  0
ENDSEC
  0
SECTION
  2
TABLES
  0
TABLE
  2
VPORT
  5
8
330
0
100
AcDbSymbolTable
 70
    1
  0
VPORT
  5
31
330
2
100
AcDbSymbolTableRecord
100
AcDbViewportTableRecord
  2
*ACTIVE
 70
    0
 10
0
 20
0
 11
1
 21
1
 12
36.45945945945946
 22
25.27027027027027
 13
0
 23
0
 14
10
 24
10
 15
10
 25
10
 16
0
 26
0
 36
1
 17
0
 27
0
 37
0
 40
51.08108108108108
 41
1.580952380952381
 42
50
 43
0
 44
0
 50
0
 51
0
 71
    0
 72
  100
 73
    1
 74
    3
 75
    0
 76
    1
 77
    0
 78
    0
281
    0
 65
    1
110
0
120
0
130
0
111
1
121
0
131
0
112
0
122
1
132
0
 79
    0
146
0
348
10020
 60
    7
 61
    5
292
1
282
    1
141
0
142
0
 63
  250
421
3358443
  0
ENDTAB
  0
TABLE
  2
LTYPE
  5
5
330
0
100
AcDbSymbolTable
 70
    4
  0
LTYPE
  5
14
330
5
100
AcDbSymbolTableRecord
100
AcDbLinetypeTableRecord
  2
ByBlock
 70
    0
  3

 72
   65
 73
    0
 40
0
  0
LTYPE
  5
15
330
5
100
AcDbSymbolTableRecord
100
AcDbLinetypeTableRecord
  2
ByLayer
 70
    0
  3

 72
   65
 73
    0
 40
0
  0
LTYPE
  5
16
330
5
100
AcDbSymbolTableRecord
100
AcDbLinetypeTableRecord
  2
Continuous
 70
    0
  3
Solid line
 72
   65
 73
    0
 40
0
  0
LTYPE
  5
32
330
5
100
AcDbSymbolTableRecord
100
AcDbLinetypeTableRecord
  2
DOT
 70
    0
  3
Dot . . . . . . . . . . . . . . . . . . . . . .
 72
   65
 73
    2
 40
6.35
 49
0
 74
    0
 49
-6.35
 74
    0
  0
LTYPE
  5
33
330
5
100
AcDbSymbolTableRecord
100
AcDbLinetypeTableRecord
  2
DOTTINY
 70
    0
  3
Dot (.15x) .....................................
 72
   65
 73
    2
 40
0.9525
 49
0
 74
    0
 49
-0.9525
 74
    0
  0
LTYPE
  5
34
330
5
100
AcDbSymbolTableRecord
100
AcDbLinetypeTableRecord
  2
DOT2
 70
    0
  3
Dot (.5x) .....................................
 72
   65
 73
    2
 40
3.175
 49
0
 74
    0
 49
-3.175
 74
    0
  0
LTYPE
  5
35
330
5
100
AcDbSymbolTableRecord
100
AcDbLinetypeTableRecord
  2
DOTX2
 70
    0
  3
Dot (2x) .  .  .  .  .  .  .  .  .  .  .  .  .
 72
   65
 73
    2
 40
12.7
 49
0
 74
    0
 49
-12.7
 74
    0
  0
LTYPE
  5
36
330
5
100
AcDbSymbolTableRecord
100
AcDbLinetypeTableRecord
  2
DASHED
 70
    0
  3
Dashed _ _ _ _ _ _ _ _ _ _ _ _ _ _ _ _ _
 72
   65
 73
    2
 40
19.05
 49
12.7
 74
    0
 49
-6.35
 74
    0
  0
LTYPE
  5
37
330
5
100
AcDbSymbolTableRecord
100
AcDbLinetypeTableRecord
  2
DASHEDTINY
 70
    0
  3
Dashed (.15x) _ _ _ _ _ _ _ _ _ _ _ _ _ _ _ _ _
 72
   65
 73
    2
 40
2.8575
 49
1.905
 74
    0
 49
-0.9525
 74
    0
  0
LTYPE
  5
38
330
5
100
AcDbSymbolTableRecord
100
AcDbLinetypeTableRecord
  2
DASHED2
 70
    0
  3
Dashed (.5x) _ _ _ _ _ _ _ _ _ _ _ _ _ _ _ _ _
 72
   65
 73
    2
 40
9.524999999999999
 49
6.35
 74
    0
 49
-3.175
 74
    0
  0
LTYPE
  5
39
330
5
100
AcDbSymbolTableRecord
100
AcDbLinetypeTableRecord
  2
DASHEDX2
 70
    0
  3
Dashed (2x) ____  ____  ____  ____  ____  ___
 72
   65
 73
    2
 40
38.09999999999999
 49
25.4
 74
    0
 49
-12.7
 74
    0
  0
LTYPE
  5
3A
330
5
100
AcDbSymbolTableRecord
100
AcDbLinetypeTableRecord
  2
DASHDOT
 70
    0
  3
Dash dot __ . __ . __ . __ . __ . __ . __ . __
 72
   65
 73
    4
 40
25.4
 49
12.7
 74
    0
 49
-6.35
 74
    0
 49
0
 74
    0
 49
-6.35
 74
    0
  0
LTYPE
  5
3B
330
5
100
AcDbSymbolTableRecord
100
AcDbLinetypeTableRecord
  2
DASHDOTTINY
 70
    0
  3
Dash dot (.15x) _._._._._._._._._._._._._._._.
 72
   65
 73
    4
 40
3.81
 49
1.905
 74
    0
 49
-0.9525
 74
    0
 49
0
 74
    0
 49
-0.9525
 74
    0
  0
LTYPE
  5
3C
330
5
100
AcDbSymbolTableRecord
100
AcDbLinetypeTableRecord
  2
DASHDOT2
 70
    0
  3
Dash dot (.5x) _._._._._._._._._._._._._._._.
 72
   65
 73
    4
 40
12.7
 49
6.35
 74
    0
 49
-3.175
 74
    0
 49
0
 74
    0
 49
-3.175
 74
    0
  0
LTYPE
  5
3D
330
5
100
AcDbSymbolTableRecord
100
AcDbLinetypeTableRecord
  2
DASHDOTX2
 70
    0
  3
Dash dot (2x) ____  .  ____  .  ____  .  ___
 72
   65
 73
    4
 40
50.8
 49
25.4
 74
    0
 49
-12.7
 74
    0
 49
0
 74
    0
 49
-12.7
 74
    0
  0
LTYPE
  5
3E
330
5
100
AcDbSymbolTableRecord
100
AcDbLinetypeTableRecord
  2
DIVIDE
 70
    0
  3
Divide ____ . . ____ . . ____ . . ____ . . ____
 72
   65
 73
    6
 40
31.75
 49
12.7
 74
    0
 49
-6.35
 74
    0
 49
0
 74
    0
 49
-6.35
 74
    0
 49
0
 74
    0
 49
-6.35
 74
    0
  0
LTYPE
  5
3F
330
5
100
AcDbSymbolTableRecord
100
AcDbLinetypeTableRecord
  2
DIVIDETINY
 70
    0
  3
Divide (.15x) __..__..__..__..__..__..__..__.._
 72
   65
 73
    6
 40
4.7625
 49
1.905
 74
    0
 49
-0.9525
 74
    0
 49
0
 74
    0
 49
-0.9525
 74
    0
 49
0
 74
    0
 49
-0.9525
 74
    0
  0
LTYPE
  5
40
330
5
100
AcDbSymbolTableRecord
100
AcDbLinetypeTableRecord
  2
DIVIDE2
 70
    0
  3
Divide (.5x) __..__..__..__..__..__..__..__.._
 72
   65
 73
    6
 40
15.875
 49
6.35
 74
    0
 49
-3.175
 74
    0
 49
0
 74
    0
 49
-3.175
 74
    0
 49
0
 74
    0
 49
-3.175
 74
    0
  0
LTYPE
  5
41
330
5
100
AcDbSymbolTableRecord
100
AcDbLinetypeTableRecord
  2
DIVIDEX2
 70
    0
  3
Divide (2x) ________  .  .  ________  .  .  _
 72
   65
 73
    6
 40
63.5
 49
25.4
 74
    0
 49
-12.7
 74
    0
 49
0
 74
    0
 49
-12.7
 74
    0
 49
0
 74
    0
 49
-12.7
 74
    0
  0
LTYPE
  5
42
330
5
100
AcDbSymbolTableRecord
100
AcDbLinetypeTableRecord
  2
BORDER
 70
    0
  3
Border __ __ . __ __ . __ __ . __ __ . __ __ .
 72
   65
 73
    6
 40
44.45
 49
12.7
 74
    0
 49
-6.35
 74
    0
 49
12.7
 74
    0
 49
-6.35
 74
    0
 49
0
 74
    0
 49
-6.35
 74
    0
  0
LTYPE
  5
43
330
5
100
AcDbSymbolTableRecord
100
AcDbLinetypeTableRecord
  2
BORDERTINY
 70
    0
  3
Border (.15x) __.__.__.__.__.__.__.__.__.__.__.
 72
   65
 73
    6
 40
6.6675
 49
1.905
 74
    0
 49
-0.9525
 74
    0
 49
1.905
 74
    0
 49
-0.9525
 74
    0
 49
0
 74
    0
 49
-0.9525
 74
    0
  0
LTYPE
  5
44
330
5
100
AcDbSymbolTableRecord
100
AcDbLinetypeTableRecord
  2
BORDER2
 70
    0
  3
Border (.5x) __.__.__.__.__.__.__.__.__.__.__.
 72
   65
 73
    6
 40
22.225
 49
6.35
 74
    0
 49
-3.175
 74
    0
 49
6.35
 74
    0
 49
-3.175
 74
    0
 49
0
 74
    0
 49
-3.175
 74
    0
  0
LTYPE
  5
45
330
5
100
AcDbSymbolTableRecord
100
AcDbLinetypeTableRecord
  2
BORDERX2
 70
    0
  3
Border (2x) ____  ____  .  ____  ____  .  ___
 72
   65
 73
    6
 40
88.89999999999999
 49
25.4
 74
    0
 49
-12.7
 74
    0
 49
25.4
 74
    0
 49
-12.7
 74
    0
 49
0
 74
    0
 49
-12.7
 74
    0
  0
LTYPE
  5
46
330
5
100
AcDbSymbolTableRecord
100
AcDbLinetypeTableRecord
  2
CENTER
 70
    0
  3
Center ____ _ ____ _ ____ _ ____ _ ____ _ ____
 72
   65
 73
    4
 40
50.8
 49
31.75
 74
    0
 49
-6.35
 74
    0
 49
6.35
 74
    0
 49
-6.35
 74
    0
  0
LTYPE
  5
47
330
5
100
AcDbSymbolTableRecord
100
AcDbLinetypeTableRecord
  2
CENTERTINY
 70
    0
  3
Center (.15x) ___ _ ___ _ ___ _ ___ _ ___ _ ___
 72
   65
 73
    4
 40
7.619999999999999
 49
4.7625
 74
    0
 49
-0.9525
 74
    0
 49
0.9525
 74
    0
 49
-0.9525
 74
    0
  0
LTYPE
  5
48
330
5
100
AcDbSymbolTableRecord
100
AcDbLinetypeTableRecord
  2
CENTER2
 70
    0
  3
Center (.5x) ___ _ ___ _ ___ _ ___ _ ___ _ ___
 72
   65
 73
    4
 40
28.575
 49
19.05
 74
    0
 49
-3.175
 74
    0
 49
3.175
 74
    0
 49
-3.175
 74
    0
  0
LTYPE
  5
49
330
5
100
AcDbSymbolTableRecord
100
AcDbLinetypeTableRecord
  2
CENTERX2
 70
    0
  3
Center (2x) ________  __  ________  __  _____
 72
   65
 73
    4
 40
101.6
 49
63.5
 74
    0
 49
-12.7
 74
    0
 49
12.7
 74
    0
 49
-12.7
 74
    0
  0
ENDTAB
  0
TABLE
  2
LAYER
  5
2
330
0
100
AcDbSymbolTable
 70
    1
  0
LAYER
  5
10
330
2
100
AcDbSymbolTableRecord
100
AcDbLayerTableRecord
  2
0
 70
    0
 62
    7
  6
CONTINUOUS
370
   -3
390
F
  0
LAYER
  5
4A
330
2
100
AcDbSymbolTableRecord
100
AcDbLayerTableRecord
  2
LEDs
 70
    0
 62
    2
  6
CONTINUOUS
370
   13
390
F
  0
LAYER
  5
4B
330
2
100
AcDbSymbolTableRecord
100
AcDbLayerTableRecord
  2
border
 70
    0
 62
    6
  6
CONTINUOUS
370
   13
390
F
  0
LAYER
  5
4C
330
2
100
AcDbSymbolTableRecord
100
AcDbLayerTableRecord
  2
leds
 70
    4
 62
    3
  6
CONTINUOUS
370
   13
390
F
  0
LAYER
  5
4D
330
2
100
AcDbSymbolTableRecord
100
AcDbLayerTableRecord
  2
logo
 70
    5
 62
    5
  6
CONTINUOUS
370
   13
390
F
  0
ENDTAB
  0
TABLE
  2
STYLE
  5
3
330
0
100
AcDbSymbolTable
 70
    3
  0
STYLE
  5
4E
330
2
100
AcDbSymbolTableRecord
100
AcDbTextStyleTableRecord
  2
Standard
 70
    0
 40
0
 41
1
 50
0
 71
    0
 42
1
  3
txt
  4

  0
ENDTAB
  0
TABLE
  2
VIEW
  5
6
330
0
100
AcDbSymbolTable
 70
    0
  0
ENDTAB
  0
TABLE
  2
UCS
  5
7
330
0
100
AcDbSymbolTable
 70
    0
  0
ENDTAB
  0
TABLE
  2
APPID
  5
9
330
0
100
AcDbSymbolTable
 70
    1
  0
APPID
  5
12
330
9
100
AcDbSymbolTableRecord
100
AcDbRegAppTableRecord
  2
ACAD
 70
    0
  0
APPID
  5
4F
330
9
100
AcDbSymbolTableRecord
100
AcDbRegAppTableRecord
  2
LibreCad
 70
    0
  0
ENDTAB
  0
TABLE
  2
DIMSTYLE
  5
A
330
0
100
AcDbSymbolTable
 70
    1
100
AcDbDimStyleTable
 71
    1
  0
DIMSTYLE
105
50
330
A
100
AcDbSymbolTableRecord
100
AcDbDimStyleTableRecord
  2
Standard
 70
    0
 40
2.5
 41
2.5
 42
0.625
 43
0.38
 44
1.25
 45
0
 46
0
 47
0
 48
0
 49
1
140
2.5
141
0.09
142
0
143
25.4
144
1
145
0
146
1
147
0.625
148
0
 71
    0
 72
    0
 73
    0
 74
    1
 75
    0
 76
    0
 77
    0
 78
    8
 79
    0
170
    0
171
    2
172
    0
173
    0
174
    0
175
    0
176
    0
177
    0
178
    0
179
    0
271
    2
272
    4
273
    2
274
    2
275
    0
276
    0
277
    2
278
   44
279
    0
280
    0
281
    0
282
    0
283
    1
284
    0
285
    0
286
    0
288
    0
289
    3
340
STANDARD
341

371
   -2
372
   -2
  0
ENDTAB
  0
TABLE
  2
BLOCK_RECORD
  5
1
330
0
100
AcDbSymbolTable
 70
    2
  0
BLOCK_RECORD
  5
1F
330
1
100
AcDbSymbolTableRecord
100
AcDbBlockTableRecord
  2
*Model_Space
 70
    0
280
    1
281
    0
  0
BLOCK_RECORD
  5
1E
330
1
100
AcDbSymbolTableRecord
100
AcDbBlockTableRecord
  2
*Paper_Space
 70
    0
280
    1
281
    0
  0
ENDTAB
  0
ENDSEC
  0
SECTION
  2
BLOCKS
  0
BLOCK
  5
20
330
1F
100
AcDbEntity
  8
0
100
AcDbBlockBegin
  2
*Model_Space
 70
    0
 10
0
 20
0
 30
0
  3
*Model_Space
  1

  0
ENDBLK
  5
21
330
1F
100
AcDbEntity
  8
0
100
AcDbBlockEnd
  0
BLOCK
  5
1C
330
1B
100
AcDbEntity
  8
0
100
AcDbBlockBegin
  2
*Paper_Space
 70
    0
 10
0
 20
0
 30
0
  3
*Paper_Space
  1

  0
ENDBLK
  5
1D
330
1F
100
AcDbEntity
  8
0
100
AcDbBlockEnd
  0
ENDSEC
  0
SECTION
  2
ENTITIES
  0
LWPOLYLINE
  5
51
100
AcDbEntity
  8
logo
  6
ByLayer
 62
  256
370
   -1
100
AcDbPolyline
 90
  135
 70
    1
 43
0
 10
51.56730349043387
 20
4.370746713605872
 10
51.34188049043387
 20
4.523043363605868
 10
50.74510849043387
 20
5.097781263605867
 10
50.13883799043387
 20
6.02996526360587
 10
49.74274449043388
 20
7.178128213605866
 10
49.57231599043388
 20
8.208128613605869
 10
49.55132249043388
 20
8.553420263605869
 10
49.54315499043387
 20
8.688982613605873
 10
49.52905849043388
 20
9.096323063605869
 10
49.53232549043387
 20
9.62705326360587
 10
49.56348299043388
 20
10.16798376360587
 10
49.62616099043387
 20
10.74110026360587
 10
49.72265849043387
 20
11.36866676360587
 10
49.85660549043388
 20
12.07312876360587
 10
50.03024049043387
 20
12.87590326360587
 10
50.19135199043387
 20
13.56947526360587
 10
50.24725399043387
 20
13.79985926360587
 10
50.29547249043387
 20
14.00077976360587
 10
50.43855499043388
 20
14.60311776360587
 10
50.58889749043387
 20
15.26153926360587
 10
50.70372649043387
 20
15.80942726360587
 10
50.78842649043387
 20
16.27866526360587
 10
50.84783749043388
 20
16.70277026360587
 10
50.88758599043388
 20
17.11507776360587
 10
50.91317749043388
 20
17.54801576360587
 10
50.92636649043388
 20
17.91337526360587
 10
50.92963349043387
 20
18.03479876360587
 10
50.96115399043387
 20
19.25151426360587
 10
50.78485699043387
 20
19.57585476360587
 10
50.76053599043387
 20
19.62050376360587
 10
50.64927649043388
 20
19.80363726360588
 10
50.57576899043387
 20
19.89620226360587
 10
50.57080799043388
 20
19.89547626360587
 10
50.55477549043388
 20
19.89390326360587
 10
50.40479599043387
 20
19.73793426360587
 10
50.06732699043387
 20
19.35031076360587
 10
49.65308349043387
 20
18.84580126360587
 10
49.35445549043388
 20
18.46676876360587
 10
49.25789749043388
 20
18.33802476360587
 10
49.07313049043387
 20
18.09191076360587
 10
48.56995199043388
 20
17.31436476360587
 10
48.05201149043388
 20
16.30468026360587
 10
47.70697999043388
 20
15.31598926360587
 10
47.55857349043387
 20
14.59755176360587
 10
47.53824549043388
 20
14.35561226360587
 10
47.49692399043387
 20
13.86888976360587
 10
47.16508149043387
 20
13.79961726360587
 10
47.10960299043387
 20
13.78812226360587
 10
46.94316749043386
 20
13.75490776360587
 10
46.77419099043387
 20
13.72574676360587
 10
46.64907699043388
 20
13.71528026360587
 10
46.55947649043388
 20
13.72508126360587
 10
46.49679849043387
 20
13.75853776360587
 10
46.45275449043388
 20
13.81758576360587
 10
46.41832999043387
 20
13.90488726360587
 10
46.39304099043387
 20
13.99321726360587
 10
46.38553899043387
 20
14.02243876360587
 10
46.35528899043386
 20
14.13599726360587
 10
46.32449449043388
 20
14.49252376360587
 10
46.32673299043387
 20
15.10103276360587
 10
46.38584149043388
 20
15.71813276360587
 10
46.45481149043388
 20
16.09492676360587
 10
46.49516499043387
 20
16.21441426360587
 10
46.54507749043387
 20
16.36336526360587
 10
46.72857399043388
 20
16.79866276360587
 10
47.06761599043388
 20
17.47807776360587
 10
47.50545449043388
 20
18.24092226360587
 10
47.89930949043386
 20
18.86945676360587
 10
48.03622099043388
 20
19.07527776360587
 10
48.18517199043387
 20
19.30009576360587
 10
48.61750499043387
 20
19.98513726360587
 10
49.08293149043386
 20
20.78440276360587
 10
49.42729749043387
 20
21.46412026360587
 10
49.60056949043388
 20
21.87412876360587
 10
49.64515799043387
 20
22.01460976360587
 10
49.65901249043388
 20
22.05865376360587
 10
49.70263299043387
 20
22.18951526360587
 10
49.75744599043387
 20
22.32213126360588
 10
49.81988199043388
 20
22.41995976360587
 10
49.90058899043387
 20
22.48929276360587
 10
50.01088049043388
 20
22.53618026360587
 10
50.16116249043387
 20
22.56764026360587
 10
50.36244599043387
 20
22.59002526360587
 10
50.55931299043388
 20
22.60539226360587
 10
50.62537899043387
 20
22.60999026360587
 10
51.17574749043388
 20
22.64907326360587
 10
51.37237249043387
 20
22.14819376360587
 10
51.45380549043388
 20
21.94037626360587
 10
51.67106099043389
 20
21.30597326360587
 10
51.87549049043387
 20
20.51463326360587
 10
52.00254049043387
 20
19.69171226360587
 10
52.05971299043388
 20
18.99027526360587
 10
52.06951399043387
 20
18.75589826360587
 10
52.07544299043387
 20
18.61148476360587
 10
52.08233999043387
 20
18.17721576360587
 10
52.07090549043387
 20
17.58867176360587
 10
52.03212499043386
 20
16.96503776360587
 10
51.96291299043387
 20
16.28102476360587
 10
51.86012349043389
 20
15.51134376360587
 10
51.72133649043388
 20
14.63034276360587
 10
51.54304299043387
 20
13.61315626360587
 10
51.37860399043387
 20
12.72852526360587
 10
51.32245999043388
 20
12.43382976360587
 10
51.27623799043388
 20
12.19261626360587
 10
51.13769299043387
 20
11.46746326360587
 10
51.00180999043387
 20
10.73553426360587
 10
50.90918449043387
 20
10.19133676360587
 10
50.85576299043387
 20
9.78858826360587
 10
50.83634249043387
 20
9.48034076360587
 10
50.84620399043387
 20
9.220069763605871
 10
50.88068899043387
 20
8.961420163605869
 10
50.92104249043388
 20
8.73362556360587
 10
50.93513899043387
 20
8.65747421360587
 10
50.98408349043387
 20
8.389307963605869
 10
51.17514249043387
 20
7.592353563605869
 10
51.47806599043388
 20
6.723851863605869
 10
51.86599199043388
 20
6.000749813605868
 10
52.22608799043388
 20
5.517264063605872
 10
52.36227349043388
 20
5.370872213605868
 10
52.38925649043387
 20
5.341989513605871
 10
52.46572849043388
 20
5.249751213605869
 10
52.51600399043387
 20
5.141770813605866
 10
52.52411099043388
 20
4.997671913605867
 10
52.50874399043387
 20
4.824690313605871
 10
52.50208899043388
 20
4.767245563605872
 10
52.49555499043388
 20
4.712105863605867
 10
52.45320499043387
 20
4.44065446360587
 10
52.40861649043388
 20
4.241089163605867
 10
52.40135649043387
 20
4.22140246360587
 10
52.38859099043387
 20
4.187589013605869
 10
52.30322549043387
 20
4.10389331360587
 10
52.13424899043387
 20
4.089119213605869
 10
51.88994999043388
 20
4.178072363605867
 10
51.64480399043387
 20
4.318559413605868
 10
51.56730349043387
 20
4.370746713605872
  0
LWPOLYLINE
  5
52
100
AcDbEntity
  8
logo
  6
ByLayer
 62
  256
370
   -1
100
AcDbPolyline
 90
   39
 70
    1
 43
0
 10
45.87116799043388
 20
10.66989176360587
 10
45.59353349043387
 20
10.69451526360587
 10
45.62765549043388
 20
10.94922026360587
 10
45.63715399043387
 20
11.02042876360587
 10
45.70309899043387
 20
11.22885126360587
 10
45.84890399043387
 20
11.47799026360587
 10
46.06023049043387
 20
11.69070826360587
 10
46.26042499043388
 20
11.82622826360587
 10
46.33235949043387
 20
11.86101576360587
 10
46.38523649043387
 20
11.88697026360587
 10
46.54900999043387
 20
11.95394376360587
 10
46.78925549043387
 20
12.01268926360587
 10
47.13942949043388
 20
12.05267976360587
 10
47.54907499043387
 20
12.07996526360587
 10
47.68598649043388
 20
12.08752776360587
 10
47.78804999043388
 20
12.09309376360587
 10
48.09496649043388
 20
12.10948926360587
 10
48.46552899043387
 20
12.12757876360587
 10
48.75701799043388
 20
12.14034426360587
 10
48.89616799043387
 20
12.14530526360587
 10
48.92901949043388
 20
12.14560776360587
 10
49.16732899043387
 20
12.14790676360587
 10
49.16732899043387
 20
11.54556876360587
 10
49.16732899043387
 20
11.48785176360587
 10
49.17192699043387
 20
11.31451926360587
 10
49.16993049043388
 20
11.14645026360587
 10
49.13774449043387
 20
11.02926176360587
 10
49.05243949043387
 20
10.94952276360587
 10
48.88927099043388
 20
10.89470976360587
 10
48.62573299043387
 20
10.85205726360587
 10
48.23768599043387
 20
10.80873926360587
 10
47.83560299043387
 20
10.76669176360587
 10
47.70177699043387
 20
10.75192976360587
 10
47.52741599043388
 20
10.73323526360587
 10
47.00524049043387
 20
10.67872476360587
 10
46.56141249043387
 20
10.64490526360587
 10
46.22993299043388
 20
10.64393726360587
 10
45.96046599043387
 20
10.66202676360587
 10
45.87116799043388
 20
10.66989176360587
  0
LWPOLYLINE
  5
53
100
AcDbEntity
  8
logo
  6
ByLayer
 62
  256
370
   -1
100
AcDbPolyline
 90
  137
 70
    1
 43
0
 10
51.60705199043387
 20
11.48355626360587
 10
51.59555699043388
 20
11.52953626360587
 10
51.58896249043387
 20
11.67364726360587
 10
51.61031899043388
 20
11.90536226360587
 10
51.66519249043387
 20
12.14367176360587
 10
51.72224399043387
 20
12.30284726360587
 10
51.74789599043388
 20
12.35239676360587
 10
51.78098949043387
 20
12.41701076360587
 10
51.90973349043388
 20
12.59536476360587
 10
52.15850949043388
 20
12.87554026360587
 10
52.47819149043387
 20
13.17689076360587
 10
52.75655199043387
 20
13.40933176360587
 10
52.85268649043387
 20
13.48247626360587
 10
52.95317699043387
 20
13.55931126360587
 10
53.24363749043388
 20
13.80348926360587
 10
53.58497849043388
 20
14.12680126360587
 10
53.85377999043388
 20
14.42984576360587
 10
53.99165949043387
 20
14.61945276360587
 10
54.02747549043387
 20
14.68812026360587
 10
54.06552999043387
 20
14.76235376360587
 10
54.14889899043388
 20
15.00060276360587
 10
54.25719399043388
 20
15.42494976360587
 10
54.34879099043388
 20
15.93181876360587
 10
54.42072549043387
 20
16.49041526360587
 10
54.46960949043388
 20
17.07139676360587
 10
54.49223649043387
 20
17.64415026360587
 10
54.48570249043388
 20
18.17957526360587
 10
54.46204699043387
 20
18.53071726360587
 10
54.44661949043387
 20
18.64657476360587
 10
54.40687099043388
 20
18.94362976360587
 10
54.18731649043387
 20
19.82136376360587
 10
53.73925349043387
 20
20.99113126360587
 10
53.13503999043388
 20
22.08515276360587
 10
52.60814549043388
 20
22.81351226360587
 10
52.40758799043388
 20
23.03312726360587
 10
52.37606749043388
 20
23.06755176360587
 10
52.28422849043388
 20
23.17294276360587
 10
52.18349599043388
 20
23.29702826360587
 10
52.11519149043387
 20
23.39152926360587
 10
52.09020499043387
 20
23.43030976360587
 10
52.09020499043387
 20
23.44307526360587
 10
52.09020499043387
 20
23.46183026360587
 10
52.14338449043387
 20
23.51694576360588
 10
52.28912899043387
 20
23.67188626360588
 10
52.50444849043387
 20
23.88454376360587
 10
52.70107349043388
 20
24.07167026360587
 10
52.76774449043388
 20
24.13301726360586
 10
52.84385349043387
 20
24.20392326360587
 10
53.07683899043388
 20
24.41234576360587
 10
53.29288449043388
 20
24.59027626360587
 10
53.42314099043388
 20
24.67267726360587
 10
53.47371899043387
 20
24.67074126360587
 10
53.47565499043388
 20
24.66511476360587
 10
53.48975149043387
 20
24.62082876360587
 10
53.54916249043387
 20
24.49238726360587
 10
53.69363649043387
 20
24.19805476360587
 10
53.88729699043387
 20
23.82186576360587
 10
54.10915049043387
 20
23.40272176360587
 10
54.33826399043387
 20
22.98025026360587
 10
54.55364399043388
 20
22.59395776360587
 10
54.73411549043387
 20
22.28280626360587
 10
54.82474449043387
 20
22.13343176360587
 10
54.85850349043388
 20
22.08587876360587
 10
54.95245999043387
 20
21.95289976360587
 10
55.27377549043388
 20
21.58100626360587
 10
55.73526949043387
 20
21.16706526360587
 10
56.22628749043387
 20
20.85760776360587
 10
56.59981449043387
 20
20.69873476360587
 10
56.72946599043387
 20
20.66527826360587
 10
56.76854899043387
 20
20.65535626360587
 10
57.00098999043387
 20
20.58680976360587
 10
57.22084699043388
 20
20.51293926360587
 10
57.25394049043387
 20
20.50017376360586
 10
57.32230549043388
 20
20.47385626360587
 10
57.54119449043388
 20
20.42926776360587
 10
57.89536149043388
 20
20.41577626360587
 10
58.33422849043388
 20
20.46175626360587
 10
58.74181699043387
 20
20.53653426360587
 10
58.87648999043388
 20
20.56678426360587
 10
59.06325349043388
 20
20.60913426360587
 10
59.63134849043387
 20
20.70236476360587
 10
60.14735299043388
 20
20.69407626360587
 10
60.49069049043387
 20
20.52897176360587
 10
60.68308049043387
 20
20.28515676360588
 10
60.72736649043389
 20
20.19386226360587
 10
60.74606099043389
 20
20.15477926360587
 10
60.79924049043387
 20
20.03504976360587
 10
60.84219549043388
 20
19.90636626360588
 10
60.85338799043387
 20
19.80230626360587
 10
60.82912749043388
 20
19.71669876360587
 10
60.76608649043388
 20
19.64373576360587
 10
60.66172399043387
 20
19.57742776360587
 10
60.51204699043387
 20
19.51214826360587
 10
60.36364049043387
 20
19.45830326360587
 10
60.31409099043388
 20
19.44160526360587
 10
60.11026649043388
 20
19.37336126360587
 10
59.47380649043389
 20
19.24201576360587
 10
58.54035199043388
 20
19.16814526360587
 10
57.54409849043387
 20
19.22065926360587
 10
56.76951699043389
 20
19.34050976360587
 10
56.51614299043387
 20
19.39992076360587
 10
56.44850399043388
 20
19.41595326360587
 10
56.24528449043387
 20
19.45896876360587
 10
56.05985199043388
 20
19.48752476360588
 10
55.94338949043387
 20
19.48722226360587
 10
55.89178299043387
 20
19.47016126360587
 10
55.88071149043387
 20
19.45866626360587
 10
55.85971799043387
 20
19.43797526360587
 10
55.83273499043388
 20
19.31092526360587
 10
55.81464549043388
 20
18.99977376360587
 10
55.82650349043387
 20
18.53604126360587
 10
55.85542249043387
 20
18.08144426360587
 10
55.86818799043388
 20
17.93007326360587
 10
55.87508499043388
 20
17.84676476360587
 10
55.88815299043387
 20
17.59526626360588
 10
55.88331299043387
 20
17.30474526360587
 10
55.84852549043388
 20
16.99595326360587
 10
55.79891549043388
 20
16.70379876360587
 10
55.78052349043388
 20
16.60663576360587
 10
55.71851099043388
 20
16.28296076360587
 10
55.45358149043388
 20
15.32651626360587
 10
54.99208749043388
 20
14.21053326360587
 10
54.38557499043388
 20
13.23993176360587
 10
53.83115299043388
 20
12.58937526360587
 10
53.62472699043388
 20
12.39577526360587
 10
53.55448649043387
 20
12.33007226360587
 10
53.33910649043388
 20
12.13804526360587
 10
53.12058049043387
 20
11.96864526360587
 10
52.93048949043388
 20
11.86101576360587
 10
52.78147799043387
 20
11.80360126360587
 10
52.73059749043388
 20
11.78883926360587
 10
52.68165299043388
 20
11.77504526360586
 10
52.37310299043388
 20
11.66312026360587
 10
52.06195149043388
 20
11.52917326360587
 10
52.01203899043388
 20
11.50394476360587
 10
51.64782899043387
 20
11.32141626360587
 10
51.60705199043387
 20
11.48355626360587
  0
LWPOLYLINE
  5
54
100
AcDbEntity
  8
logo
  6
ByLayer
 62
  256
370
   -1
100
AcDbPolyline
 90
   59
 70
    1
 43
0
 10
48.00863299043387
 20
22.69505326360587
 10
47.98467499043387
 20
22.70225276360587
 10
47.82023599043387
 20
22.77285626360587
 10
47.64200299043387
 20
22.86669176360587
 10
47.61145049043387
 20
22.88538626360587
 10
47.58228949043388
 20
22.90341526360587
 10
47.49916249043386
 20
22.96355226360588
 10
47.43097899043387
 20
23.03802776360587
 10
47.39715949043387
 20
23.12369576360587
 10
47.38826599043388
 20
23.20773026360587
 10
47.38826599043388
 20
23.23562076360587
 10
47.38826599043388
 20
23.44767326360587
 10
47.81696899043386
 20
23.48972076360587
 10
48.00996399043387
 20
23.50871776360587
 10
48.58465349043387
 20
23.61640776360587
 10
49.29335049043388
 20
23.84388776360587
 10
49.96096799043387
 20
24.17929976360587
 10
50.45234899043388
 20
24.50787526360588
 10
50.60559549043388
 20
24.63032726360587
 10
50.78292099043387
 20
24.77238126360587
 10
51.27424149043388
 20
25.24900026360588
 10
51.95468499043388
 20
26.06466126360587
 10
52.70530849043388
 20
27.15438726360587
 10
53.37038499043388
 20
28.23104526360587
 10
53.58340549043387
 20
28.59471076360587
 10
53.65195199043388
 20
28.71220176360587
 10
53.86333899043387
 20
29.06207326360587
 10
54.08259099043387
 20
29.40250676360587
 10
54.23753149043387
 20
29.61123176360587
 10
54.30710649043387
 20
29.68213776360587
 10
54.32416749043389
 20
29.68244026360587
 10
54.35375199043388
 20
29.68316626360588
 10
54.44468349043388
 20
29.62859526360588
 10
54.58879449043388
 20
29.49180476360588
 10
54.71868799043387
 20
29.31484226360587
 10
54.78566149043387
 20
29.18652176360587
 10
54.79715649043388
 20
29.14090476360587
 10
54.80798599043388
 20
29.09752626360587
 10
54.80302499043388
 20
28.95740826360587
 10
54.76273199043387
 20
28.67584126360587
 10
54.68232749043387
 20
28.31961726360587
 10
54.56901099043388
 20
27.91233126360587
 10
54.43022399043387
 20
27.47709426360588
 10
54.27231899043387
 20
27.03725926360588
 10
54.10261649043387
 20
26.61581626360586
 10
53.97429599043387
 20
26.33025626360588
 10
53.92795299043387
 20
26.23666276360588
 10
53.76490549043387
 20
25.90978126360588
 10
53.14223949043387
 20
24.99465826360588
 10
52.15064449043388
 20
23.98763576360587
 10
50.97682349043387
 20
23.23465276360587
 10
49.98589399043388
 20
22.83680476360587
 10
49.64388749043388
 20
22.75476676360588
 10
49.53752849043387
 20
22.72947776360587
 10
49.21258299043387
 20
22.67956526360587
 10
48.74848749043389
 20
22.64284176360587
 10
48.32305149043387
 20
22.64713726360587
 10
48.08377399043388
 20
22.67236576360587
 10
48.00863299043387
 20
22.69505326360587
  0
LWPOLYLINE
  5
55
100
AcDbEntity
  8
logo
  6
ByLayer
 62
  256
370
   -1
100
AcDbPolyline
 90
  227
 70
    1
 43
0
 10
16.34916449043386
 20
23.58458476360587
 10
6.055797340433868
 20
23.61677076360587
 10
5.848681640433867
 20
23.76439076360587
 10
5.784019240433866
 20
23.81067326360587
 10
5.633029390433867
 20
24.00899226360588
 10
5.399989440433867
 20
24.41827476360587
 10
5.182364890433867
 20
24.92472026360587
 10
5.048121440433867
 20
25.32383876360587
 10
5.014307990433865
 20
25.45941926360587
 10
4.955556440433867
 20
25.69179976360587
 10
4.808511190433867
 20
26.39589876360587
 10
4.646359090433867
 20
27.40975776360587
 10
4.523277890433867
 20
28.53693326360587
 10
4.451391790433865
 20
29.49307526360587
 10
4.434324740433867
 20
29.81178926360587
 10
4.425461490433866
 20
29.97229576360587
 10
4.397891640433867
 20
30.45351276360587
 10
4.348003340433866
 20
31.28429876360587
 10
4.291544740433867
 20
32.19706226360587
 10
4.249533540433866
 20
32.86274376360588
 10
4.235086140433866
 20
33.08423426360588
 10
4.210135940433867
 20
33.46732026360587
 10
4.155982390433866
 20
34.61748576360588
 10
4.135956890433867
 20
35.98127676360588
 10
4.176007890433866
 20
37.31850826360588
 10
4.246901790433867
 20
38.40859726360588
 10
4.277756790433866
 20
38.77093176360588
 10
4.322399740433866
 20
39.30036726360587
 10
4.517367040433866
 20
40.88377326360588
 10
4.833782040433867
 20
42.50723026360587
 10
5.222415890433867
 20
43.62315276360587
 10
5.530953790433866
 20
44.11592526360589
 10
5.678331790433868
 20
44.21205976360587
 10
5.709840190433866
 20
44.23269026360587
 10
5.829648340433867
 20
44.25634576360586
 10
6.169688590433868
 20
44.30196276360589
 10
6.728024940433867
 20
44.35084676360587
 10
7.533503790433867
 20
44.40475226360587
 10
8.616344890433867
 20
44.46579676360588
 10
10.00543699043387
 20
44.53537176360587
 10
11.73035249043387
 20
44.61511076360588
 10
13.29796799043387
 20
44.68468576360588
 10
13.82086949043387
 20
44.70737326360588
 10
14.36107399043387
 20
44.73102876360587
 10
15.98356299043387
 20
44.77954976360586
 10
18.15248799043387
 20
44.81076776360587
 10
20.29031599043387
 20
44.80157176360588
 10
22.35983949043387
 20
44.75359526360587
 10
24.32397199043387
 20
44.66829026360588
 10
26.14562699043387
 20
44.54686676360588
 10
27.78741549043387
 20
44.38992976360587
 10
28.85753949043387
 20
44.25574076360587
 10
29.21261399043387
 20
44.19929426360589
 10
29.27892199043387
 20
44.18876726360588
 10
29.47826949043387
 20
44.15198326360588
 10
29.69455699043387
 20
44.09850126360588
 10
29.87073299043388
 20
44.03019676360588
 10
30.01811099043387
 20
43.93999126360587
 10
30.14618949043387
 20
43.81977776360587
 10
30.26501149043387
 20
43.66193326360588
 10
30.38540649043387
 20
43.45804826360588
 10
30.48559449043387
 20
43.26608176360587
 10
30.51778049043387
 20
43.20110476360588
 10
30.61288649043387
 20
43.00841226360588
 10
30.96669049043388
 20
41.96394026360587
 10
31.15877799043387
 20
40.81183876360588
 10
31.17317699043387
 20
40.56505926360587
 10
31.18243349043387
 20
40.39995476360588
 10
31.20209599043387
 20
39.90403626360587
 10
31.19289999043387
 20
39.49269676360588
 10
31.13972049043387
 20
39.27417076360587
 10
31.06584999043387
 20
39.19860626360588
 10
31.03662849043387
 20
39.19074126360587
 10
30.98114999043387
 20
39.17597926360587
 10
30.79608049043387
 20
39.15988626360588
 10
30.47307099043387
 20
39.15498576360587
 10
30.16821149043387
 20
39.17368026360588
 10
30.01290799043387
 20
39.19727526360588
 10
29.98175049043387
 20
39.21409426360587
 10
29.94333299043387
 20
39.23472476360588
 10
29.85500299043387
 20
39.34701276360587
 10
29.74501399043387
 20
39.60595276360587
 10
29.64960549043387
 20
39.99853726360588
 10
29.58293449043387
 20
40.39892626360589
 10
29.56557099043387
 20
40.53287326360588
 10
29.54615049043387
 20
40.67994876360587
 10
29.47590999043387
 20
41.11881576360588
 10
29.36828049043388
 20
41.59507176360587
 10
29.23136899043386
 20
41.97706876360589
 10
29.05507199043387
 20
42.27811676360588
 10
28.82831799043387
 20
42.51340126360587
 10
28.54039849043387
 20
42.69659526360589
 10
28.18036299043387
 20
42.84197676360587
 10
27.84954899043387
 20
42.93750626360588
 10
27.73828949043387
 20
42.96382376360587
 10
27.59351299043387
 20
42.99794576360587
 10
27.15531149043387
 20
43.08264576360587
 10
26.48503199043387
 20
43.18234976360588
 10
25.71045049043387
 20
43.26348026360587
 10
24.81438499043387
 20
43.32779176360587
 10
23.78074249043387
 20
43.37570776360588
 10
22.59252249043387
 20
43.40825676360588
 10
21.23266399043387
 20
43.42652776360588
 10
20.07166899043387
 20
43.43148876360588
 10
19.68507399043387
 20
43.43118626360589
 10
18.92585949043387
 20
43.43052076360588
 10
16.64924449043387
 20
43.40396126360588
 10
13.88614899043387
 20
43.32488776360589
 10
11.30328299043387
 20
43.19057776360588
 10
9.431352490433866
 20
43.05372676360587
 10
8.808365840433867
 20
42.99758276360588
 10
8.679694440433867
 20
42.98608776360587
 10
8.295005190433869
 20
42.94639976360586
 10
7.944123340433869
 20
42.89515626360587
 10
7.699267740433868
 20
42.83380926360587
 10
7.550570840433867
 20
42.77536626360587
 10
7.503302190433867
 20
42.75140826360587
 10
7.377915940433867
 20
42.68806476360587
 10
7.041481490433867
 20
42.41890026360588
 10
6.644649890433868
 20
41.92261876360587
 10
6.314773640433867
 20
41.26679876360588
 10
6.106012340433868
 20
40.66058876360587
 10
6.053825040433866
 20
40.45410226360588
 10
6.032819440433867
 20
40.37170126360587
 10
5.975374690433869
 20
40.12322776360588
 10
5.912031190433867
 20
39.79041726360588
 10
5.861156740433866
 20
39.42542076360588
 10
5.820125640433867
 20
38.99677826360588
 10
5.786644940433867
 20
38.47423976360587
 10
5.758415640433867
 20
37.82658726360587
 10
5.733144790433867
 20
37.02338926360587
 10
5.713784790433866
 20
36.28093326360587
 10
5.708200640433867
 20
36.03312526360587
 10
5.699337390433866
 20
35.66449876360588
 10
5.683583190433867
 20
34.55777226360587
 10
5.685549440433867
 20
33.25829276360588
 10
5.715751040433867
 20
32.10715926360587
 10
5.776801590433868
 20
31.07811476360588
 10
5.870340640433865
 20
30.14363176360587
 10
5.998685340433866
 20
29.27678776360587
 10
6.163783790433866
 20
28.45096276360587
 10
6.312480690433867
 20
27.84039676360587
 10
6.368273790433866
 20
27.63856876360587
 10
6.426371940433867
 20
27.42784726360587
 10
6.636440040433866
 20
26.80451576360587
 10
6.932514940433867
 20
26.22026726360588
 10
7.307022040433866
 20
25.81062176360587
 10
7.678588840433868
 20
25.56474976360587
 10
7.811192740433869
 20
25.50013576360587
 10
7.848938690433867
 20
25.48174376360587
 10
7.962182590433867
 20
25.42596276360587
 10
8.099711190433869
 20
25.36122776360587
 10
8.238873290433867
 20
25.30544676360587
 10
8.394134440433866
 20
25.25789376360587
 10
8.580903990433866
 20
25.21814526360587
 10
8.813617240433869
 20
25.18505176360587
 10
9.107387090433866
 20
25.15843176360587
 10
9.476969490433868
 20
25.13774076360587
 10
9.937495490433868
 20
25.12170826360587
 10
10.50371499043387
 20
25.11015276360587
 10
11.19032949043387
 20
25.10228776360587
 10
12.01222199043387
 20
25.09738726360587
 10
12.98475949043387
 20
25.09472526360587
 10
14.12240149043387
 20
25.09381776360587
 10
15.43997049043387
 20
25.09412026360587
 10
16.57470849043387
 20
25.09448326360587
 10
16.95283349043387
 20
25.09448326360587
 10
17.59576699043387
 20
25.09472526360587
 10
19.52480949043387
 20
25.09775026360587
 10
21.66923199043387
 20
25.10555476360587
 10
23.42657549043387
 20
25.11934876360587
 10
24.83864549043387
 20
25.13973726360587
 10
25.94640049043387
 20
25.16696226360587
 10
26.79031499043387
 20
25.20277826360588
 10
27.41201299043387
 20
25.24706426360587
 10
27.74282699043388
 20
25.28318276360587
 10
27.85245299043387
 20
25.30090926360587
 10
28.01035799043387
 20
25.32680326360587
 10
28.45908649043387
 20
25.56378176360587
 10
28.93661299043387
 20
26.14966376360587
 10
29.30094399043387
 20
27.08741376360587
 10
29.51856249043387
 20
28.07247476360588
 10
29.56750699043387
 20
28.40431726360587
 10
29.57900199043387
 20
28.48314876360588
 10
29.61409199043386
 20
28.71873576360588
 10
29.65287249043387
 20
28.96134076360588
 10
29.68699449043387
 20
29.14417176360587
 10
29.71984599043387
 20
29.27872376360587
 10
29.75463349043387
 20
29.37721776360588
 10
29.79528949043387
 20
29.45036226360588
 10
29.84453649043387
 20
29.51043876360588
 10
29.89051649043387
 20
29.55484576360587
 10
29.90654899043387
 20
29.56894226360587
 10
29.96989249043387
 20
29.62569126360587
 10
30.20166799043387
 20
29.74941376360587
 10
30.50295799043387
 20
29.79279226360587
 10
30.77345349043387
 20
29.70246576360587
 10
30.94085699043387
 20
29.54492376360587
 10
30.97594699043387
 20
29.48097526360588
 10
31.02222949043387
 20
29.39591226360588
 10
31.07407799043386
 20
29.09268626360587
 10
31.08980799043387
 20
28.48538726360587
 10
31.02585949043387
 20
27.72847176360588
 10
30.92772849043386
 20
27.09727526360587
 10
30.88434999043388
 20
26.88921576360588
 10
30.83117049043387
 20
26.63578126360588
 10
30.65916899043387
 20
25.87826076360587
 10
30.45237999043387
 20
25.07609126360587
 10
30.27257399043387
 20
24.51410676360587
 10
30.16978449043387
 20
24.27089676360587
 10
30.12876549043386
 20
24.22201276360587
 10
30.06015849043387
 20
24.14057976360587
 10
29.77260199043387
 20
23.96531126360587
 10
29.19591599043387
 20
23.76935176360587
 10
28.41244099043387
 20
23.63776426360587
 10
27.68081449043387
 20
23.58028926360587
 10
27.43663649043387
 20
23.57375526360587
 10
27.34401099043387
 20
23.57145626360587
 10
27.06698149043388
 20
23.57012526360587
 10
26.31605549043388
 20
23.56812876360587
 10
25.22923349043387
 20
23.56752376360587
 10
23.85201149043387
 20
23.56812876360587
 10
22.22982499043387
 20
23.57042776360587
 10
20.40847249043387
 20
23.57375526360587
 10
18.43278449043387
 20
23.57859526360587
 10
16.86976699043387
 20
23.58325376360587
 10
16.34916449043386
 20
23.58458476360587
  0
LWPOLYLINE
  5
56
100
AcDbEntity
  8
logo
  6
ByLayer
 62
  256
370
   -1
100
AcDbPolyline
 90
   73
 70
    1
 43
0
 10
45.32303799043387
 20
24.62736276360587
 10
45.25146649043387
 20
24.64508926360588
 10
45.04007949043387
 20
24.71206276360587
 10
44.79886599043388
 20
24.81938976360587
 10
44.57919049043387
 20
24.96083876360587
 10
44.41281549043387
 20
25.09738726360587
 10
44.36096699043387
 20
25.14633176360587
 10
44.11709149043388
 20
25.37635276360587
 10
44.26580049043388
 20
25.49686876360587
 10
44.31534999043387
 20
25.53722226360587
 10
44.49031599043387
 20
25.62585476360587
 10
44.82838999043388
 20
25.73481526360587
 10
45.29218299043387
 20
25.82701726360587
 10
45.74381549043387
 20
25.88969526360587
 10
45.89518649043387
 20
25.90584876360587
 10
45.98079399043388
 20
25.91534726360587
 10
46.23816099043387
 20
25.94819876360587
 10
46.56207799043388
 20
25.99641726360587
 10
46.83057699043388
 20
26.04530126360587
 10
46.96742799043388
 20
26.07549076360587
 10
47.00687399043387
 20
26.08831676360587
 10
47.30919249043387
 20
26.18650826360587
 10
48.19600149043387
 20
26.54327676360587
 10
49.23260849043388
 20
27.10483776360587
 10
50.20683999043387
 20
27.83192676360587
 10
50.96962399043387
 20
28.53433176360587
 10
51.20992999043387
 20
28.78213976360588
 10
51.28313499043387
 20
28.85764376360587
 10
51.49615549043387
 20
29.09068976360587
 10
51.82660649043387
 20
29.46718126360587
 10
52.17720399043388
 20
29.88202976360587
 10
52.52447399043388
 20
30.30613476360588
 10
52.84488199043388
 20
30.70985126360587
 10
53.11398599043387
 20
31.06371576360587
 10
53.30861449043388
 20
31.33874876360587
 10
53.38774849043388
 20
31.46047476360587
 10
53.40480949043388
 20
31.50451876360587
 10
53.41001249043386
 20
31.51831276360588
 10
53.50263799043389
 20
31.56846726360587
 10
53.66411249043387
 20
31.59115476360587
 10
53.71825999043387
 20
31.59115476360587
 10
53.74487999043388
 20
31.59115476360587
 10
53.82552649043387
 20
31.59115476360587
 10
53.90266399043388
 20
31.58226126360587
 10
53.94930949043387
 20
31.55273726360588
 10
53.96546299043388
 20
31.49042226360588
 10
53.95160849043387
 20
31.38333726360587
 10
53.90798799043387
 20
31.21926126360587
 10
53.83448049043388
 20
30.98621526360587
 10
53.75734299043388
 20
30.75056776360587
 10
53.73169099043387
 20
30.67179676360587
 10
53.60076899043387
 20
30.27267826360587
 10
53.06050399043387
 20
29.12354126360587
 10
52.11845849043388
 20
27.72913726360587
 10
50.91741249043388
 20
26.50389126360587
 10
49.85001099043387
 20
25.69113426360587
 10
49.46964749043387
 20
25.46141576360587
 10
49.39378049043388
 20
25.41610126360587
 10
49.16139999043388
 20
25.28874876360587
 10
48.83415549043387
 20
25.16236426360587
 10
48.32601599043387
 20
25.03301526360588
 10
47.68768049043386
 20
24.89580126360587
 10
47.47490199043387
 20
24.85121276360587
 10
47.34071299043387
 20
24.82332226360587
 10
46.93826699043387
 20
24.74031626360588
 10
46.52438649043388
 20
24.65785476360587
 10
46.21051249043387
 20
24.60140826360587
 10
45.97292899043387
 20
24.56898026360587
 10
45.78882749043387
 20
24.55742476360587
 10
45.63455249043387
 20
24.56535026360587
 10
45.48681149043387
 20
24.58930826360587
 10
45.36369399043387
 20
24.61750126360587
 10
45.32303799043387
 20
24.62736276360587
  0
LWPOLYLINE
  5
57
100
AcDbEntity
  8
logo
  6
ByLayer
 62
  256
370
   -1
100
AcDbPolyline
 90
  691
 70
    1
 43
0
 10
14.62430949043387
 20
25.96653026360587
 10
14.63943449043387
 20
26.00658126360587
 10
14.74549099043386
 20
26.15952526360587
 10
15.03201899043387
 20
26.57479726360587
 10
15.43537249043387
 20
27.14525176360587
 10
15.90799849043387
 20
27.80530676360587
 10
16.40234399043387
 20
28.48768626360588
 10
16.87012999043387
 20
29.12680826360587
 10
17.26362199043387
 20
29.65594126360588
 10
17.46587349043386
 20
29.92141526360587
 10
17.53544849043387
 20
30.00805126360588
 10
17.63884299043387
 20
30.13673476360588
 10
17.95592349043387
 20
30.51776376360587
 10
18.40555949043387
 20
31.03842676360588
 10
18.86741649043387
 20
31.55176926360588
 10
19.32364699043387
 20
32.03988326360587
 10
19.75755299043387
 20
32.48528426360588
 10
20.15177099043387
 20
32.86927776360587
 10
20.48954249043387
 20
33.17425826360587
 10
20.68447349043387
 20
33.33476476360588
 10
20.75350399043387
 20
33.38231776360588
 10
20.84407249043387
 20
33.44529826360588
 10
21.14040149043387
 20
33.59927076360587
 10
21.62065049043387
 20
33.78470326360588
 10
22.16061299043387
 20
33.92845126360587
 10
22.58495999043387
 20
34.00437876360587
 10
22.72743749043387
 20
34.01938276360588
 10
22.88334599043387
 20
34.03644376360587
 10
23.35566949043387
 20
34.05126626360588
 10
24.49984549043387
 20
34.07395376360587
 10
26.06328649043387
 20
34.08671926360587
 10
27.94997899043387
 20
34.09065176360588
 10
30.06372799043387
 20
34.08508576360587
 10
32.30924599043387
 20
34.06996076360587
 10
34.58949099043387
 20
34.04600276360587
 10
36.25390649043388
 20
34.02264976360588
 10
36.80899399043387
 20
34.01284876360587
 10
37.21071399043387
 20
34.00595176360587
 10
38.41635799043387
 20
33.98459526360588
 10
39.63047199043388
 20
33.95870126360587
 10
40.52792899043386
 20
33.92881426360588
 10
41.18532199043388
 20
33.88882376360587
 10
41.67930449043386
 20
33.83231676360587
 10
42.08628799043389
 20
33.75257776360587
 10
42.48316799043387
 20
33.64325426360587
 10
42.83074049043388
 20
33.53465676360587
 10
42.94665849043388
 20
33.49781226360587
 10
43.02276749043387
 20
33.47391476360587
 10
43.25284899043388
 20
33.40361376360588
 10
43.50785649043387
 20
33.33046926360588
 10
43.68481899043388
 20
33.28551776360588
 10
43.75336549043388
 20
33.27269176360587
 10
43.75735849043387
 20
33.27632176360587
 10
43.76092799043387
 20
33.28019376360587
 10
43.72517249043388
 20
33.36198976360588
 10
43.63460399043387
 20
33.49920376360588
 10
43.61094849043387
 20
33.53036126360588
 10
43.56400049043388
 20
33.59176876360587
 10
43.39532649043387
 20
33.75451376360588
 10
43.10057049043387
 20
33.97545976360587
 10
42.75003349043387
 20
34.17795326360587
 10
42.46544149043386
 20
34.30990376360587
 10
42.36791549043387
 20
34.34632476360588
 10
42.29114099043387
 20
34.37524376360587
 10
42.05839749043388
 20
34.45498276360587
 10
41.74137749043388
 20
34.53938026360587
 10
41.35496399043387
 20
34.60302626360587
 10
40.83841499043388
 20
34.65094226360587
 10
40.12971799043387
 20
34.68706076360587
 10
39.16764699043387
 20
34.71531426360588
 10
37.89049199043387
 20
34.74017976360588
 10
36.65012099043387
 20
34.75990276360587
 10
36.23684549043387
 20
34.76583176360587
 10
35.84299049043388
 20
34.77170026360587
 10
34.66166749043387
 20
34.79009226360587
 10
33.24923449043387
 20
34.81405026360588
 10
31.93208899043387
 20
34.83970226360587
 10
30.64144249043387
 20
34.86825826360587
 10
29.30983749043387
 20
34.90135176360587
 10
27.86884849043387
 20
34.94110026360588
 10
26.25041299043387
 20
34.98841126360588
 10
24.85274199043387
 20
35.03100326360587
 10
24.38701299043387
 20
35.04509976360587
 10
21.87698899043387
 20
35.12290276360588
 10
21.50442999043387
 20
35.30869826360588
 10
21.44138899043387
 20
35.34021876360588
 10
21.26025199043387
 20
35.44784826360588
 10
21.00252199043387
 20
35.63896776360587
 10
20.70582999043387
 20
35.90970526360587
 10
20.34440299043387
 20
36.28916126360587
 10
19.89246799043387
 20
36.80480276360586
 10
19.32400999043387
 20
37.48585126360586
 10
18.61367949043387
 20
38.35965276360587
 10
17.95459249043387
 20
39.18087976360587
 10
17.73594549043387
 20
39.45500526360587
 10
17.61022649043387
 20
39.61254726360587
 10
17.23379549043387
 20
40.08487076360588
 10
16.76576749043387
 20
40.67335426360587
 10
16.34135999043387
 20
41.20805326360586
 10
15.97103949043387
 20
41.67608126360587
 10
15.66515149043387
 20
42.06412826360588
 10
15.43410199043387
 20
42.35948926360587
 10
15.28805499043387
 20
42.54891476360588
 10
15.23711399043387
 20
42.60209426360587
 10
15.23711399043387
 20
42.61945776360588
 10
15.23711399043387
 20
42.62411626360588
 10
15.46168999043387
 20
42.63718426360587
 10
15.96287199043387
 20
42.60826526360588
 10
16.48117549043387
 20
42.55417826360588
 10
16.73424699043387
 20
42.51376426360588
 10
16.75717649043387
 20
42.49567476360588
 10
16.76927649043387
 20
42.48617626360588
 10
16.90195299043387
 20
42.32107176360589
 10
17.23016549043387
 20
41.89799526360587
 10
17.69232499043386
 20
41.29015176360588
 10
18.10426949043387
 20
40.74365526360588
 10
18.24081799043387
 20
40.56076376360587
 10
18.38196449043387
 20
40.37170126360587
 10
18.80800549043387
 20
39.80517926360588
 10
19.28359599043387
 20
39.17985126360587
 10
19.68404549043387
 20
38.66517776360588
 10
20.02605199043387
 20
38.24089126360589
 10
20.32613199043387
 20
37.88636126360587
 10
20.60116499043387
 20
37.58174376360586
 10
20.86803049043387
 20
37.30640826360588
 10
21.07342799043387
 20
37.10615326360588
 10
21.14300299043387
 20
37.04045026360586
 10
21.26152249043387
 20
36.92882776360588
 10
21.62585349043387
 20
36.60267226360588
 10
21.99121299043387
 20
36.32201276360588
 10
22.30339299043387
 20
36.15521426360587
 10
22.54527199043387
 20
36.07716926360587
 10
22.62797549043387
 20
36.05974526360588
 10
22.73040199043387
 20
36.03838876360587
 10
23.04288449043387
 20
35.99537326360587
 10
23.62120399043387
 20
35.94419026360588
 10
24.38011599043387
 20
35.90583326360588
 10
25.33686299043387
 20
35.88054426360587
 10
26.50935299043387
 20
35.86741576360588
 10
27.91416299043387
 20
35.86638726360587
 10
29.56950349043387
 20
35.87757976360587
 10
31.01176299043387
 20
35.89330976360587
 10
31.49255649043387
 20
35.89954126360587
 10
32.04201749043388
 20
35.90710376360587
 10
33.69106599043387
 20
35.92579826360587
 10
35.52851149043387
 20
35.93856376360587
 10
37.04101149043387
 20
35.93759576360587
 10
38.26504749043387
 20
35.92150276360587
 10
39.23691949043387
 20
35.89034526360587
 10
39.99280649043386
 20
35.84279226360587
 10
40.56925049043387
 20
35.77775476360587
 10
40.89552699043386
 20
35.72130826360587
 10
41.00249099043387
 20
35.69505126360587
 10
41.15870199043388
 20
35.65669426360587
 10
41.62412849043388
 20
35.52444126360587
 10
42.26288749043388
 20
35.31789426360587
 10
42.86691949043387
 20
35.09277376360587
 10
43.25780999043387
 20
34.92863726360587
 10
43.38510199043387
 20
34.86759276360587
 10
43.43047699043387
 20
34.84587326360587
 10
43.56859849043387
 20
34.78252976360588
 10
43.72287349043388
 20
34.71658476360587
 10
43.83153149043387
 20
34.67623126360587
 10
43.87454699043387
 20
34.66473626360587
 10
43.87817699043387
 20
34.66800326360588
 10
43.88870399043387
 20
34.67853026360588
 10
43.86892049043387
 20
34.76183876360588
 10
43.76885349043387
 20
34.93160176360588
 10
43.60241799043387
 20
35.14135526360587
 10
43.44911099043387
 20
35.30579426360588
 10
43.39466099043388
 20
35.35661426360587
 10
43.21836399043387
 20
35.52171876360588
 10
42.62038199043387
 20
35.94189126360588
 10
41.68686699043388
 20
36.40108626360588
 10
40.60403799043387
 20
36.73062976360586
 10
39.68958049043386
 20
36.89609726360587
 10
39.38236149043388
 20
36.92658926360588
 10
39.28217349043387
 20
36.93675326360588
 10
38.98027849043387
 20
36.95054726360587
 10
38.32705999043387
 20
36.97051226360588
 10
37.47661149043387
 20
36.98600026360588
 10
36.48338299043387
 20
36.99682976360588
 10
35.40188499043387
 20
37.00269826360586
 10
34.28650699043388
 20
37.00269826360586
 10
33.19085199043387
 20
36.99682976360588
 10
32.42546649043387
 20
36.98823876360587
 10
32.17039849043387
 20
36.98406426360588
 10
31.98726499043387
 20
36.98103926360587
 10
31.43744099043387
 20
36.97517076360587
 10
30.52231799043387
 20
36.96760826360588
 10
29.54155249043387
 20
36.96307076360587
 10
28.84441099043387
 20
36.96173976360587
 10
28.61233299043387
 20
36.96173976360587
 10
28.32580499043387
 20
36.96204226360587
 10
27.46646299043387
 20
36.96694276360586
 10
26.72963349043387
 20
36.98600026360588
 10
26.21429449043387
 20
37.02865276360587
 10
25.85256499043387
 20
37.08243726360587
 10
25.73271449043387
 20
37.10379376360588
 10
25.55381599043387
 20
37.13597976360587
 10
25.02177899043387
 20
37.25843176360588
 10
24.32003949043387
 20
37.45898926360587
 10
23.67831599043387
 20
37.68937326360587
 10
23.27556749043387
 20
37.86536776360588
 10
23.14694449043387
 20
37.93391426360588
 10
23.08850149043387
 20
37.96507176360588
 10
22.91686299043387
 20
38.06556226360587
 10
22.76059149043387
 20
38.18045176360588
 10
22.65126799043387
 20
38.30254076360588
 10
22.58199549043387
 20
38.41615976360587
 10
22.56269599043387
 20
38.45548476360587
 10
22.48319899043387
 20
38.61568876360587
 10
22.36830949043387
 20
39.15692176360588
 10
22.28893349043387
 20
40.15081576360588
 10
22.32729049043387
 20
41.29341876360589
 10
22.42971699043387
 20
42.15699576360589
 10
22.48652649043387
 20
42.44025676360587
 10
22.55319749043387
 20
42.77409576360586
 10
23.05704149043387
 20
42.77409576360586
 10
23.10592549043387
 20
42.77409576360586
 10
23.25330349043387
 20
42.77306726360587
 10
23.41574599043387
 20
42.76943726360587
 10
23.52700549043387
 20
42.76459726360586
 10
23.56935549043387
 20
42.76030176360588
 10
23.57098899043387
 20
42.75794226360587
 10
23.57225949043387
 20
42.75600626360588
 10
23.57788599043387
 20
42.62931926360587
 10
23.58968349043387
 20
42.28991426360587
 10
23.60480849043387
 20
41.79139426360587
 10
23.61733199043387
 20
41.33703926360588
 10
23.62120399043387
 20
41.18542626360587
 10
23.62477349043387
 20
41.04361426360587
 10
23.63729699043387
 20
40.61793626360588
 10
23.65568899043387
 20
40.17713326360587
 10
23.68128049043387
 20
39.84099526360588
 10
23.71806449043387
 20
39.58689526360588
 10
23.77094149043387
 20
39.39226676360587
 10
23.84408599043387
 20
39.23442226360587
 10
23.94257999043387
 20
39.09061376360587
 10
24.03768599043387
 20
38.97542176360589
 10
24.07053749043387
 20
38.93803276360588
 10
24.11651749043387
 20
38.88551876360587
 10
24.26909849043387
 20
38.73971376360588
 10
24.47824699043387
 20
38.60848926360588
 10
24.74571749043387
 20
38.52209526360587
 10
25.02673999043387
 20
38.47127526360587
 10
25.12124099043387
 20
38.45838876360587
 10
25.23709849043387
 20
38.44302176360588
 10
25.58666749043387
 20
38.40170026360587
 10
26.07048599043387
 20
38.35674876360588
 10
26.61861599043387
 20
38.32220326360587
 10
27.27637199043387
 20
38.29697476360587
 10
28.09045999043387
 20
38.27985326360587
 10
29.10601299043387
 20
38.26932626360588
 10
30.36901099043387
 20
38.26412326360588
 10
31.53660049043387
 20
38.26279226360588
 10
31.92579699043387
 20
38.26279226360588
 10
32.18419249043387
 20
38.26279226360588
 10
32.96046799043388
 20
38.26188476360588
 10
33.93300549043386
 20
38.25861776360588
 10
34.82713499043387
 20
38.25299126360588
 10
35.62603749043387
 20
38.24506576360588
 10
36.31398299043387
 20
38.23556726360587
 10
36.87463649043387
 20
38.22437476360587
 10
37.29184449043387
 20
38.21160926360588
 10
37.48483949043387
 20
38.20307876360587
 10
37.54909049043387
 20
38.19751276360587
 10
37.93411249043387
 20
38.16496376360588
 10
39.08500399043388
 20
38.01401626360587
 10
40.47898449043389
 20
37.73275176360588
 10
41.75081549043387
 20
37.34863726360587
 10
42.63514399043387
 20
36.99549876360587
 10
42.91997799043388
 20
36.85701426360588
 10
42.98108299043388
 20
36.82742976360587
 10
43.16427699043387
 20
36.73686126360587
 10
43.36084149043387
 20
36.63510026360588
 10
43.52195299043387
 20
36.54223276360587
 10
43.66086099043387
 20
36.44966776360587
 10
43.78984699043387
 20
36.34790676360587
 10
43.92209999043388
 20
36.22745126360587
 10
44.06947799043388
 20
36.07940776360587
 10
44.20179149043388
 20
35.94092326360588
 10
44.24577499043387
 20
35.89427776360587
 10
44.43417199043388
 20
35.69438576360587
 10
44.96524099043387
 20
35.06089026360588
 10
45.63848499043387
 20
34.14842926360588
 10
46.22993299043388
 20
33.20771476360587
 10
46.59789399043387
 20
32.52497226360587
 10
46.70485799043387
 20
32.28992976360587
 10
46.95109299043388
 20
31.75002776360587
 10
46.92810299043387
 20
32.13698576360587
 10
46.92217399043388
 20
32.23287826360587
 10
46.85223599043387
 20
32.51740976360587
 10
46.66849749043388
 20
33.00449526360588
 10
46.38160649043387
 20
33.58874376360588
 10
45.99821799043387
 20
34.25968876360588
 10
45.52395849043387
 20
35.00837626360588
 10
44.96457549043387
 20
35.82506576360587
 10
44.32617949043387
 20
36.69947226360588
 10
43.79504999043387
 20
37.39370976360586
 10
43.61457849043387
 20
37.62209726360587
 10
43.54863349043387
 20
37.70552676360587
 10
43.35267399043387
 20
37.95690426360588
 10
43.13832249043388
 20
38.23853176360587
 10
42.99354599043387
 20
38.43739526360587
 10
42.94042699043387
 20
38.50243276360588
 10
42.94042699043387
 20
38.52378926360588
 10
42.94042699043387
 20
38.54308876360587
 10
42.98664899043387
 20
38.60122926360587
 10
43.10123599043386
 20
38.68199676360587
 10
43.24698049043387
 20
38.74534026360587
 10
43.35134299043386
 20
38.77093176360588
 10
43.38643299043389
 20
38.77093176360588
 10
43.45860949043387
 20
38.77093176360588
 10
43.67622799043387
 20
38.68562676360588
 10
44.05707549043387
 20
38.46540676360587
 10
44.44693749043387
 20
38.16532676360588
 10
44.69450349043387
 20
37.92871126360587
 10
44.76534899043388
 20
37.84038126360588
 10
45.06960349043388
 20
37.45965476360588
 10
45.94570399043387
 20
36.28589426360587
 10
46.88908049043387
 20
34.87085976360588
 10
47.60158899043388
 20
33.58511376360587
 10
47.98866799043387
 20
32.71603126360587
 10
48.09042899043388
 20
32.41697976360588
 10
48.11142249043387
 20
32.35496726360588
 10
48.18190499043387
 20
32.17044226360588
 10
48.27949149043388
 20
31.94465626360588
 10
48.37133049043388
 20
31.76478976360588
 10
48.42517549043387
 20
31.67742776360587
 10
48.44586649043387
 20
31.65576876360588
 10
48.59548299043387
 20
31.49822676360588
 10
48.78781249043388
 20
31.69061676360587
 10
48.98014199043388
 20
31.88264376360587
 10
48.81570299043388
 20
32.45176726360587
 10
48.78230699043388
 20
32.56695926360587
 10
48.67431449043387
 20
32.90999426360587
 10
48.51640949043387
 20
33.34783276360587
 10
48.32994849043388
 20
33.79160026360587
 10
48.10113749043387
 20
34.26628326360587
 10
47.81733199043387
 20
34.79765476360588
 10
47.46504049043386
 20
35.41112476360587
 10
47.03179999043387
 20
36.13228476360588
 10
46.63733999043387
 20
36.77364526360586
 10
46.50460299043388
 20
36.98630276360587
 10
46.40713749043388
 20
37.14251376360587
 10
46.11631399043387
 20
37.61126776360587
 10
45.83045149043387
 20
38.08262326360587
 10
45.63878749043387
 20
38.42202826360587
 10
45.53442499043388
 20
38.65108126360587
 10
45.50913599043388
 20
38.79156226360586
 10
45.55578149043387
 20
38.86513026360588
 10
45.66637549043387
 20
38.89332326360586
 10
45.79173149043388
 20
38.89798176360588
 10
45.83377899043387
 20
38.89798176360588
 10
45.87249899043387
 20
38.89798176360588
 10
45.98968749043387
 20
38.88521626360588
 10
46.14396249043388
 20
38.83651376360588
 10
46.32776149043387
 20
38.73971376360588
 10
46.51216549043387
 20
38.62192026360587
 10
46.57260499043387
 20
38.58090126360587
 10
46.61991599043387
 20
38.54907826360589
 10
46.76130449043388
 20
38.45155226360588
 10
46.93143049043387
 20
38.33369826360587
 10
47.06332049043387
 20
38.24016526360587
 10
47.12533299043388
 20
38.19491126360587
 10
47.13942949043388
 20
38.18371876360587
 10
47.17264399043387
 20
38.15740126360588
 10
47.24845049043388
 20
38.04686776360587
 10
47.43884399043387
 20
37.75828276360588
 10
47.68798299043387
 20
37.35656276360587
 10
47.97287749043387
 20
36.88030676360588
 10
48.27090049043387
 20
36.36823476360587
 10
48.55912249043388
 20
35.85882476360587
 10
48.81515849043387
 20
35.39049426360587
 10
48.96737649043387
 20
35.09997326360588
 10
49.01595799043388
 20
35.00184226360588
 10
49.06193799043388
 20
34.90855126360587
 10
49.19122649043387
 20
34.62438276360588
 10
49.36915699043388
 20
34.20427076360588
 10
49.52869549043388
 20
33.79293126360587
 10
49.62186549043388
 20
33.52999826360588
 10
49.64945349043387
 20
33.44112376360587
 10
49.67667849043387
 20
33.35249126360587
 10
49.75980549043388
 20
33.08659376360588
 10
49.84710699043389
 20
32.82366076360587
 10
49.91994899043387
 20
32.64409676360587
 10
49.98589399043388
 20
32.53876626360588
 10
50.05323049043388
 20
32.49841276360587
 10
50.13000499043387
 20
32.51480826360587
 10
50.22420349043388
 20
32.57881726360588
 10
50.31446949043387
 20
32.65528926360587
 10
50.34435649043388
 20
32.68124376360587
 10
50.37847849043388
 20
32.71143326360587
 10
50.47794049043387
 20
32.80593426360588
 10
50.54394599043388
 20
32.90769526360587
 10
50.55961549043388
 20
33.03601576360587
 10
50.54824149043388
 20
33.18962526360588
 10
50.54291749043388
 20
33.24056626360587
 10
50.52361799043386
 20
33.41940426360587
 10
50.41193499043387
 20
33.95017076360587
 10
50.16739399043388
 20
34.81435276360587
 10
49.83591449043388
 20
35.74883576360587
 10
49.55035449043388
 20
36.44174226360587
 10
49.44532649043388
 20
36.66758876360588
 10
49.41743599043387
 20
36.72699976360588
 10
49.33727349043387
 20
36.90626126360588
 10
49.24870149043387
 20
37.11432076360587
 10
49.18898799043387
 20
37.26956376360588
 10
49.16732899043387
 20
37.32964026360588
 10
49.16732899043387
 20
37.34966576360587
 10
49.16732899043387
 20
37.37991576360588
 10
49.22117399043387
 20
37.47018176360587
 10
49.32583899043387
 20
37.61223576360588
 10
49.35106749043388
 20
37.64048926360588
 10
49.37702199043387
 20
37.66971076360588
 10
49.45845499043387
 20
37.75441076360588
 10
49.53492699043387
 20
37.80492826360586
 10
49.61073349043387
 20
37.80129826360588
 10
49.69077499043388
 20
37.76620826360588
 10
49.71672949043388
 20
37.75277726360588
 10
49.78509449043388
 20
37.71762676360586
 10
49.96986149043388
 20
37.57194276360586
 10
50.25536099043387
 20
37.29158576360588
 10
50.52585649043387
 20
36.96397826360588
 10
50.68932749043388
 20
36.72506376360587
 10
50.73458149043388
 20
36.64006126360587
 10
50.76216949043387
 20
36.58821276360586
 10
50.84130349043388
 20
36.39642776360587
 10
50.98341799043387
 20
36.01346276360587
 10
51.14229099043387
 20
35.54307526360587
 10
51.26214149043388
 20
35.16495026360587
 10
51.29983299043387
 20
35.03790026360588
 10
51.33498349043387
 20
34.91907826360588
 10
51.44485149043387
 20
34.56327776360587
 10
51.57159899043388
 20
34.17432326360588
 10
51.66579749043387
 20
33.91175326360587
 10
51.70227899043388
 20
33.81495326360587
 10
51.71437899043388
 20
33.81495326360587
 10
51.73869999043388
 20
33.81495326360587
 10
51.81190499043389
 20
33.89245376360587
 10
51.94645699043388
 20
34.04243326360587
 10
51.97531549043387
 20
34.07849126360587
 10
52.02026699043388
 20
34.13524026360587
 10
52.15977999043388
 20
34.30300676360588
 10
52.31768499043387
 20
34.47597626360587
 10
52.45356799043387
 20
34.59945676360587
 10
52.57178499043388
 20
34.67556576360587
 10
52.67741799043388
 20
34.70738876360588
 10
52.77585149043387
 20
34.69655926360588
 10
52.87107849043387
 20
34.64598126360587
 10
52.94597749043388
 20
34.58136726360587
 10
52.96854399043387
 20
34.55740926360587
 10
52.99879399043387
 20
34.52522326360587
 10
53.06600949043387
 20
34.40640126360587
 10
53.10025249043387
 20
34.21703626360587
 10
53.07133349043387
 20
33.97285826360587
 10
53.00629599043387
 20
33.73388326360588
 10
52.97973649043387
 20
33.65608026360587
 10
52.95347949043387
 20
33.58027376360587
 10
52.88553799043388
 20
33.34819576360587
 10
52.85897849043388
 20
33.14467376360587
 10
52.90157049043387
 20
33.01701876360588
 10
52.98336649043387
 20
32.94974276360587
 10
53.01452399043388
 20
32.93558576360587
 10
53.03654599043389
 20
32.92542176360587
 10
53.15567049043386
 20
32.88343476360587
 10
53.24037049043388
 20
32.86171526360587
 10
53.26862399043387
 20
32.86171526360587
 10
53.28568499043386
 20
32.86171526360587
 10
53.33686799043389
 20
32.82922676360587
 10
53.35489699043387
 20
32.72589276360588
 10
53.32174299043387
 20
32.54167026360587
 10
53.26039599043387
 20
32.33554676360588
 10
53.23710349043387
 20
32.26802876360587
 10
53.15464199043388
 20
32.02905376360587
 10
52.81463199043388
 20
31.34401226360588
 10
52.19916549043388
 20
30.47154176360587
 10
51.38683199043388
 20
29.64632176360588
 10
50.63778149043387
 20
29.04404426360587
 10
50.37454599043387
 20
28.86351226360587
 10
50.10604699043388
 20
28.68001576360588
 10
49.24579749043387
 20
28.20968876360587
 10
48.00766499043387
 20
27.70747826360588
 10
46.70879049043387
 20
27.37303426360587
 10
45.72608899043387
 20
27.23582026360587
 10
45.39721099043388
 20
27.22202626360587
 10
45.25176899043387
 20
27.21615776360586
 10
44.81423299043387
 20
27.22172376360587
 10
44.33997349043388
 20
27.27750476360588
 10
43.94642099043387
 20
27.39475376360588
 10
43.68675499043387
 20
27.52464726360588
 10
43.60768149043388
 20
27.57885526360587
 10
43.55649849043387
 20
27.61394526360587
 10
43.42025249043388
 20
27.74329426360588
 10
43.35200849043387
 20
27.90017076360587
 10
43.40192099043388
 20
28.05311476360588
 10
43.52364699043387
 20
28.17423576360587
 10
43.57029249043387
 20
28.20545376360587
 10
43.63424099043387
 20
28.24877176360587
 10
43.84399449043387
 20
28.35216626360587
 10
44.19259549043387
 20
28.46215526360587
 10
44.65045949043387
 20
28.54413276360587
 10
45.10142649043387
 20
28.59440826360587
 10
45.25213199043388
 20
28.60614526360587
 10
45.75500799043387
 20
28.64655926360588
 10
47.25171749043388
 20
28.92848926360587
 10
49.00252699043388
 20
29.55641876360587
 10
50.51345399043387
 20
30.49453176360588
 10
51.50988899043388
 20
31.40439126360587
 10
51.79417849043387
 20
31.74736576360587
 10
51.82932899043387
 20
31.79007876360588
 10
51.93332849043387
 20
31.91906476360587
 10
51.98844399043388
 20
31.99910626360587
 10
51.96484899043387
 20
32.00213126360588
 10
51.89134149043389
 20
31.95742176360587
 10
51.86768599043388
 20
31.94169176360587
 10
51.50892099043387
 20
31.70634676360588
 10
50.39451099043387
 20
31.05875476360588
 10
48.92042849043388
 20
30.33208926360587
 10
47.51005249043388
 20
29.79043276360588
 10
46.55191399043387
 20
29.51939276360587
 10
46.22702899043387
 20
29.46155476360587
 10
46.10717849043387
 20
29.44056126360587
 10
45.53932549043387
 20
29.38145276360587
 10
44.85035149043388
 20
29.37752026360587
 10
44.67012199043387
 20
29.38375176360587
 10
44.50084299043387
 20
29.38974126360587
 10
43.99373199043387
 20
29.42713026360587
 10
43.42122049043387
 20
29.51146726360587
 10
42.90588149043387
 20
29.64601926360587
 10
42.52551799043387
 20
29.78559276360588
 10
42.40240049043388
 20
29.84004276360587
 10
42.34432049043387
 20
29.86599726360588
 10
42.17625149043387
 20
29.95783626360587
 10
42.04986699043387
 20
30.08815326360588
 10
42.00031749043387
 20
30.27358576360587
 10
41.99862349043387
 20
30.48660626360586
 10
42.00291899043387
 20
30.55720976360588
 10
42.01907249043387
 20
30.82631376360587
 10
36.80899399043387
 20
30.85819726360587
 10
36.53952699043387
 20
30.85989126360587
 10
35.73167049043388
 20
30.86473126360587
 10
34.66789899043387
 20
30.87102326360588
 10
33.64544899043388
 20
30.87622626360587
 10
32.69094049043387
 20
30.88118726360587
 10
31.83262699043387
 20
30.88481726360587
 10
31.09773349043387
 20
30.88778176360587
 10
30.51378749043387
 20
30.88971776360587
 10
30.20923049043387
 20
30.89002026360588
 10
30.10813499043388
 20
30.89002026360588
 10
29.41389749043387
 20
30.89002026360588
 10
27.33124549043387
 20
30.80048026360588
 10
25.19184449043387
 20
30.59659526360587
 10
24.79992549043387
 20
30.53912026360587
 10
24.73688449043387
 20
30.53028726360587
 10
24.54909249043387
 20
30.49846426360588
 10
24.34762749043387
 20
30.45218176360587
 10
24.18609249043387
 20
30.39410176360587
 10
24.05607799043387
 20
30.31823476360587
 10
23.94911399043387
 20
30.21816776360588
 10
23.85685149043387
 20
30.08712476360587
 10
23.77094149043387
 20
29.91911626360587
 10
23.70330249043387
 20
29.76127176360588
 10
23.68224849043387
 20
29.70772926360587
 10
23.64552499043387
 20
29.61480126360587
 10
23.58218149043387
 20
29.31744376360587
 10
23.53263199043387
 20
28.78177676360587
 10
23.53384199043387
 20
28.10466076360587
 10
23.56808499043387
 20
27.49221926360587
 10
23.58581149043387
 20
27.28869726360588
 10
23.59627799043387
 20
27.16594276360587
 10
23.60680499043387
 20
26.79465426360587
 10
23.57461899043387
 20
26.41066076360588
 10
23.48798299043386
 20
26.13526476360587
 10
23.39045699043387
 20
25.99538876360587
 10
23.34713899043387
 20
25.96489676360587
 10
23.32650849043387
 20
25.95080026360587
 10
23.14264899043387
 20
25.89725776360587
 10
22.89641399043387
 20
25.87233176360587
 10
22.81443649043387
 20
25.87233176360587
 10
22.77499049043386
 20
25.87233176360587
 10
22.65689449043387
 20
25.87432826360587
 10
22.53740699043387
 20
25.88576276360587
 10
22.44907699043387
 20
25.91794876360587
 10
22.38476549043387
 20
25.98002176360588
 10
22.33781749043387
 20
26.08269026360587
 10
22.30133599043387
 20
26.23575526360587
 10
22.26890799043387
 20
26.44944126360588
 10
22.24162249043388
 20
26.66276426360587
 10
22.23309199043387
 20
26.73360976360587
 10
22.20387049043387
 20
26.97191926360588
 10
22.16321449043387
 20
27.69174826360587
 10
22.18354249043387
 20
28.63833126360588
 10
22.29062749043387
 20
29.52132876360588
 10
22.41822199043387
 20
30.10128176360587
 10
22.48059749043387
 20
30.28804526360587
 10
22.49965499043387
 20
30.34588326360587
 10
22.56463199043387
 20
30.51655376360587
 10
22.65356699043387
 20
30.67536626360587
 10
22.77862049043387
 20
30.80731676360587
 10
22.92170299043387
 20
30.91924176360588
 10
22.97094999043387
 20
30.95439226360587
 10
23.10556249043387
 20
31.05088976360588
 10
23.55162899043387
 20
31.28127376360587
 10
24.29934849043387
 20
31.54880476360587
 10
25.21283799043387
 20
31.75722726360587
 10
26.02160199043387
 20
31.87804576360587
 10
26.29239999043387
 20
31.90557326360587
 10
26.38720349043387
 20
31.91543476360587
 10
26.78632199043387
 20
31.93249576360587
 10
27.63223299043387
 20
31.95348926360587
 10
28.72921899043387
 20
31.96704126360588
 10
29.66527499043387
 20
31.97121576360587
 10
29.97745499043387
 20
31.97085276360588
 10
30.34112049043387
 20
31.97061076360588
 10
31.43284299043388
 20
31.97321226360587
 10
33.16392949043387
 20
31.98113776360587
 10
34.95418499043387
 20
31.99354026360587
 10
36.17846299043386
 20
32.00473276360587
 10
36.58641449043387
 20
32.00927026360587
 10
36.99841949043387
 20
32.01423126360586
 10
38.23455549043388
 20
32.02245926360587
 10
39.70434249043387
 20
32.02149126360587
 10
40.95584549043387
 20
32.00733426360587
 10
41.70162899043387
 20
31.98960776360587
 10
41.95010249043387
 20
31.97944376360587
 10
42.12240649043387
 20
31.97254676360587
 10
42.64070999043388
 20
31.95415476360587
 10
43.21013599043387
 20
31.93745676360587
 10
43.60011899043387
 20
31.93055976360587
 10
43.74683149043388
 20
31.93189076360587
 10
43.75076399043387
 20
31.93552076360588
 10
43.75372849043387
 20
31.93878776360588
 10
43.73866399043387
 20
31.97224426360587
 10
43.66412799043387
 20
32.03002176360587
 10
43.54004249043387
 20
32.10286376360587
 10
43.37923349043388
 20
32.18429676360587
 10
43.19446649043387
 20
32.26857326360587
 10
42.99880949043387
 20
32.34970376360587
 10
42.80514899043388
 20
32.42060976360587
 10
42.67186749043388
 20
32.46362526360588
 10
42.62691599043388
 20
32.47536226360587
 10
42.54874999043388
 20
32.49641626360587
 10
42.31316299043387
 20
32.55455676360587
 10
41.99838149043387
 20
32.61687176360587
 10
41.63598649043388
 20
32.66509026360588
 10
41.18036099043387
 20
32.70193476360588
 10
40.58564599043387
 20
32.73049076360587
 10
39.80574049043388
 20
32.75378326360587
 10
38.79508799043387
 20
32.77441376360587
 10
37.82944749043388
 20
32.79050676360588
 10
37.50776899043387
 20
32.79546776360587
 10
37.06369899043386
 20
32.80236476360587
 10
35.73167049043388
 20
32.82432626360587
 10
33.71411649043387
 20
32.85881126360587
 10
31.70297549043387
 20
32.89517176360587
 10
30.38540649043387
 20
32.92015826360587
 10
29.94659999043387
 20
32.92868876360588
 10
29.47070699043388
 20
32.93818726360588
 10
28.04314899043387
 20
32.96577526360587
 10
26.56483149043387
 20
32.99209276360587
 10
25.45114749043387
 20
33.00685476360587
 10
24.64171799043387
 20
33.01012176360587
 10
24.07646649043387
 20
33.00225676360587
 10
23.69537699043387
 20
32.98223126360587
 10
23.43740499043387
 20
32.95040826360587
 10
23.29105549043387
 20
32.91919026360587
 10
23.24307899043387
 20
32.90600126360587
 10
23.02745699043387
 20
32.84695326360588
 10
22.03156649043387
 20
32.45672826360587
 10
21.14699599043387
 20
31.94205476360587
 10
20.98751799043387
 20
31.82057076360587
 10
20.92344849043387
 20
31.77235226360587
 10
20.73868149043387
 20
31.61837976360587
 10
20.47012199043387
 20
31.37190276360587
 10
20.17046549043387
 20
31.06825326360587
 10
19.82882199043387
 20
30.69575476360588
 10
19.43460399043387
 20
30.24176276360587
 10
18.97673999043387
 20
29.69466126360587
 10
18.44433999043387
 20
29.04174526360588
 10
17.98024449043387
 20
28.46439376360587
 10
17.82663499043387
 20
28.27103576360587
 10
15.91592399043387
 20
25.87233176360587
 10
15.25193649043387
 20
25.87233176360587
 10
15.16723649043387
 20
25.87233176360587
 10
14.91319699043387
 20
25.87590126360587
 10
14.71657199043387
 20
25.88969526360587
 10
14.63054099043386
 20
25.91861426360587
 10
14.62037699043387
 20
25.95666876360587
 10
14.62430949043387
 20
25.96653026360587
  0
LINE
  5
58
100
AcDbEntity
  8
leds
  6
ByLayer
 62
  256
370
   -1
100
AcDbLine
 10
9.800000000000001
 20
23.2
 11
9.800000000000001
 21
24.8
  0
LINE
  5
59
100
AcDbEntity
  8
leds
  6
ByLayer
 62
  256
370
   -1
100
AcDbLine
 10
9.800000000000001
 20
24.8
 11
11.2
 21
24.8
  0
LINE
  5
5A
100
AcDbEntity
  8
leds
  6
ByLayer
 62
  256
370
   -1
100
AcDbLine
 10
11.2
 20
24.8
 11
11.2
 21
23.2
  0
LINE
  5
5B
100
AcDbEntity
  8
leds
  6
ByLayer
 62
  256
370
   -1
100
AcDbLine
 10
11.2
 20
23.2
 11
9.800000000000001
 21
23.2
  0
LINE
  5
5C
100
AcDbEntity
  8
leds
  6
ByLayer
 62
  256
370
   -1
100
AcDbLine
 10
12.8
 20
23.2
 11
12.8
 21
24.8
  0
LINE
  5
5D
100
AcDbEntity
  8
leds
  6
ByLayer
 62
  256
370
   -1
100
AcDbLine
 10
12.8
 20
24.8
 11
14.2
 21
24.8
  0
LINE
  5
5E
100
AcDbEntity
  8
leds
  6
ByLayer
 62
  256
370
   -1
100
AcDbLine
 10
14.2
 20
24.8
 11
14.2
 21
23.2
  0
LINE
  5
5F
100
AcDbEntity
  8
leds
  6
ByLayer
 62
  256
370
   -1
100
AcDbLine
 10
14.2
 20
23.2
 11
12.8
 21
23.2
  0
LINE
  5
60
100
AcDbEntity
  8
leds
  6
ByLayer
 62
  256
370
   -1
100
AcDbLine
 10
11.2
 20
24.6
 11
12.8
 21
24.6
  0
LINE
  5
61
100
AcDbEntity
  8
leds
  6
ByLayer
 62
  256
370
   -1
100
AcDbLine
 10
12.8
 20
23.4
 11
11.2
 21
23.4
  0
LINE
  5
62
100
AcDbEntity
  8
leds
  6
ByLayer
 62
  256
370
   -1
100
AcDbLine
 10
21.8
 20
23.2
 11
21.8
 21
24.8
  0
LINE
  5
63
100
AcDbEntity
  8
leds
  6
ByLayer
 62
  256
370
   -1
100
AcDbLine
 10
21.8
 20
24.8
 11
23.2
 21
24.8
  0
LINE
  5
64
100
AcDbEntity
  8
leds
  6
ByLayer
 62
  256
370
   -1
100
AcDbLine
 10
23.2
 20
24.8
 11
23.2
 21
23.2
  0
LINE
  5
65
100
AcDbEntity
  8
leds
  6
ByLayer
 62
  256
370
   -1
100
AcDbLine
 10
23.2
 20
23.2
 11
21.8
 21
23.2
  0
LINE
  5
66
100
AcDbEntity
  8
leds
  6
ByLayer
 62
  256
370
   -1
100
AcDbLine
 10
24.8
 20
23.2
 11
24.8
 21
24.8
  0
LINE
  5
67
100
AcDbEntity
  8
leds
  6
ByLayer
 62
  256
370
   -1
100
AcDbLine
 10
24.8
 20
24.8
 11
26.2
 21
24.8
  0
LINE
  5
68
100
AcDbEntity
  8
leds
  6
ByLayer
 62
  256
370
   -1
100
AcDbLine
 10
26.2
 20
24.8
 11
26.2
 21
23.2
  0
LINE
  5
69
100
AcDbEntity
  8
leds
  6
ByLayer
 62
  256
370
   -1
100
AcDbLine
 10
26.2
 20
23.2
 11
24.8
 21
23.2
  0
LINE
  5
6A
100
AcDbEntity
  8
leds
  6
ByLayer
 62
  256
370
   -1
100
AcDbLine
 10
23.2
 20
24.6
 11
24.8
 21
24.6
  0
LINE
  5
6B
100
AcDbEntity
  8
leds
  6
ByLayer
 62
  256
370
   -1
100
AcDbLine
 10
24.8
 20
23.4
 11
23.2
 21
23.4
  0
LINE
  5
6C
100
AcDbEntity
  8
leds
  6
ByLayer
 62
  256
370
   -1
100
AcDbLine
 10
9.800000000000001
 20
43.2
 11
9.800000000000001
 21
44.8
  0
LINE
  5
6D
100
AcDbEntity
  8
leds
  6
ByLayer
 62
  256
370
   -1
100
AcDbLine
 10
9.800000000000001
 20
44.8
 11
11.2
 21
44.8
  0
LINE
  5
6E
100
AcDbEntity
  8
leds
  6
ByLayer
 62
  256
370
   -1
100
AcDbLine
 10
11.2
 20
44.8
 11
11.2
 21
43.2
  0
LINE
  5
6F
100
AcDbEntity
  8
leds
  6
ByLayer
 62
  256
370
   -1
100
AcDbLine
 10
11.2
 20
43.2
 11
9.800000000000001
 21
43.2
  0
LINE
  5
70
100
AcDbEntity
  8
leds
  6
ByLayer
 62
  256
370
   -1
100
AcDbLine
 10
12.8
 20
43.2
 11
12.8
 21
44.8
  0
LINE
  5
71
100
AcDbEntity
  8
leds
  6
ByLayer
 62
  256
370
   -1
100
AcDbLine
 10
12.8
 20
44.8
 11
14.2
 21
44.8
  0
LINE
  5
72
100
AcDbEntity
  8
leds
  6
ByLayer
 62
  256
370
   -1
100
AcDbLine
 10
14.2
 20
44.8
 11
14.2
 21
43.2
  0
LINE
  5
73
100
AcDbEntity
  8
leds
  6
ByLayer
 62
  256
370
   -1
100
AcDbLine
 10
14.2
 20
43.2
 11
12.8
 21
43.2
  0
LINE
  5
74
100
AcDbEntity
  8
leds
  6
ByLayer
 62
  256
370
   -1
100
AcDbLine
 10
11.2
 20
44.6
 11
12.8
 21
44.6
  0
LINE
  5
75
100
AcDbEntity
  8
leds
  6
ByLayer
 62
  256
370
   -1
100
AcDbLine
 10
12.8
 20
43.4
 11
11.2
 21
43.4
  0
LINE
  5
76
100
AcDbEntity
  8
leds
  6
ByLayer
 62
  256
370
   -1
100
AcDbLine
 10
21.8
 20
43.2
 11
21.8
 21
44.8
  0
LINE
  5
77
100
AcDbEntity
  8
leds
  6
ByLayer
 62
  256
370
   -1
100
AcDbLine
 10
21.8
 20
44.8
 11
23.2
 21
44.8
  0
LINE
  5
78
100
AcDbEntity
  8
leds
  6
ByLayer
 62
  256
370
   -1
100
AcDbLine
 10
23.2
 20
44.8
 11
23.2
 21
43.2
  0
LINE
  5
79
100
AcDbEntity
  8
leds
  6
ByLayer
 62
  256
370
   -1
100
AcDbLine
 10
23.2
 20
43.2
 11
21.8
 21
43.2
  0
LINE
  5
7A
100
AcDbEntity
  8
leds
  6
ByLayer
 62
  256
370
   -1
100
AcDbLine
 10
24.8
 20
43.2
 11
24.8
 21
44.8
  0
LINE
  5
7B
100
AcDbEntity
  8
leds
  6
ByLayer
 62
  256
370
   -1
100
AcDbLine
 10
24.8
 20
44.8
 11
26.2
 21
44.8
  0
LINE
  5
7C
100
AcDbEntity
  8
leds
  6
ByLayer
 62
  256
370
   -1
100
AcDbLine
 10
26.2
 20
44.8
 11
26.2
 21
43.2
  0
LINE
  5
7D
100
AcDbEntity
  8
leds
  6
ByLayer
 62
  256
370
   -1
100
AcDbLine
 10
26.2
 20
43.2
 11
24.8
 21
43.2
  0
LINE
  5
7E
100
AcDbEntity
  8
leds
  6
ByLayer
 62
  256
370
   -1
100
AcDbLine
 10
23.2
 20
44.6
 11
24.8
 21
44.6
  0
LINE
  5
7F
100
AcDbEntity
  8
leds
  6
ByLayer
 62
  256
370
   -1
100
AcDbLine
 10
24.8
 20
43.4
 11
23.2
 21
43.4
  0
LINE
  5
80
100
AcDbEntity
  8
leds
  6
ByLayer
 62
  256
370
   -1
100
AcDbLine
 10
15.8
 20
23.2
 11
15.8
 21
24.8
  0
LINE
  5
81
100
AcDbEntity
  8
leds
  6
ByLayer
 62
  256
370
   -1
100
AcDbLine
 10
15.8
 20
24.8
 11
17.2
 21
24.8
  0
LINE
  5
82
100
AcDbEntity
  8
leds
  6
ByLayer
 62
  256
370
   -1
100
AcDbLine
 10
17.2
 20
24.8
 11
17.2
 21
23.2
  0
LINE
  5
83
100
AcDbEntity
  8
leds
  6
ByLayer
 62
  256
370
   -1
100
AcDbLine
 10
17.2
 20
23.2
 11
15.8
 21
23.2
  0
LINE
  5
84
100
AcDbEntity
  8
leds
  6
ByLayer
 62
  256
370
   -1
100
AcDbLine
 10
18.8
 20
23.2
 11
18.8
 21
24.8
  0
LINE
  5
85
100
AcDbEntity
  8
leds
  6
ByLayer
 62
  256
370
   -1
100
AcDbLine
 10
18.8
 20
24.8
 11
20.2
 21
24.8
  0
LINE
  5
86
100
AcDbEntity
  8
leds
  6
ByLayer
 62
  256
370
   -1
100
AcDbLine
 10
20.2
 20
24.8
 11
20.2
 21
23.2
  0
LINE
  5
87
100
AcDbEntity
  8
leds
  6
ByLayer
 62
  256
370
   -1
100
AcDbLine
 10
20.2
 20
23.2
 11
18.8
 21
23.2
  0
LINE
  5
88
100
AcDbEntity
  8
leds
  6
ByLayer
 62
  256
370
   -1
100
AcDbLine
 10
17.2
 20
24.6
 11
18.8
 21
24.6
  0
LINE
  5
89
100
AcDbEntity
  8
leds
  6
ByLayer
 62
  256
370
   -1
100
AcDbLine
 10
18.8
 20
23.4
 11
17.2
 21
23.4
  0
LINE
  5
8A
100
AcDbEntity
  8
leds
  6
ByLayer
 62
  256
370
   -1
100
AcDbLine
 10
15.8
 20
43.2
 11
15.8
 21
44.8
  0
LINE
  5
8B
100
AcDbEntity
  8
leds
  6
ByLayer
 62
  256
370
   -1
100
AcDbLine
 10
15.8
 20
44.8
 11
17.2
 21
44.8
  0
LINE
  5
8C
100
AcDbEntity
  8
leds
  6
ByLayer
 62
  256
370
   -1
100
AcDbLine
 10
17.2
 20
44.8
 11
17.2
 21
43.2
  0
LINE
  5
8D
100
AcDbEntity
  8
leds
  6
ByLayer
 62
  256
370
   -1
100
AcDbLine
 10
17.2
 20
43.2
 11
15.8
 21
43.2
  0
LINE
  5
8E
100
AcDbEntity
  8
leds
  6
ByLayer
 62
  256
370
   -1
100
AcDbLine
 10
18.8
 20
43.2
 11
18.8
 21
44.8
  0
LINE
  5
8F
100
AcDbEntity
  8
leds
  6
ByLayer
 62
  256
370
   -1
100
AcDbLine
 10
18.8
 20
44.8
 11
20.2
 21
44.8
  0
LINE
  5
90
100
AcDbEntity
  8
leds
  6
ByLayer
 62
  256
370
   -1
100
AcDbLine
 10
20.2
 20
44.8
 11
20.2
 21
43.2
  0
LINE
  5
91
100
AcDbEntity
  8
leds
  6
ByLayer
 62
  256
370
   -1
100
AcDbLine
 10
20.2
 20
43.2
 11
18.8
 21
43.2
  0
LINE
  5
92
100
AcDbEntity
  8
leds
  6
ByLayer
 62
  256
370
   -1
100
AcDbLine
 10
17.2
 20
44.6
 11
18.8
 21
44.6
  0
LINE
  5
93
100
AcDbEntity
  8
leds
  6
ByLayer
 62
  256
370
   -1
100
AcDbLine
 10
18.8
 20
43.4
 11
17.2
 21
43.4
  0
LINE
  5
94
100
AcDbEntity
  8
leds
  6
ByLayer
 62
  256
370
   -1
100
AcDbLine
 10
4.200000000000001
 20
39.2
 11
5.800000000000001
 21
39.2
  0
LINE
  5
95
100
AcDbEntity
  8
leds
  6
ByLayer
 62
  256
370
   -1
100
AcDbLine
 10
5.800000000000001
 20
39.2
 11
5.800000000000001
 21
37.8
  0
LINE
  5
96
100
AcDbEntity
  8
leds
  6
ByLayer
 62
  256
370
   -1
100
AcDbLine
 10
5.800000000000001
 20
37.8
 11
4.199999999999999
 21
37.8
  0
LINE
  5
97
100
AcDbEntity
  8
leds
  6
ByLayer
 62
  256
370
   -1
100
AcDbLine
 10
4.199999999999999
 20
37.8
 11
4.200000000000001
 21
39.2
  0
LINE
  5
98
100
AcDbEntity
  8
leds
  6
ByLayer
 62
  256
370
   -1
100
AcDbLine
 10
4.199999999999999
 20
36.2
 11
5.800000000000001
 21
36.2
  0
LINE
  5
99
100
AcDbEntity
  8
leds
  6
ByLayer
 62
  256
370
   -1
100
AcDbLine
 10
5.800000000000001
 20
36.2
 11
5.799999999999999
 21
34.8
  0
LINE
  5
9A
100
AcDbEntity
  8
leds
  6
ByLayer
 62
  256
370
   -1
100
AcDbLine
 10
5.799999999999999
 20
34.8
 11
4.199999999999999
 21
34.8
  0
LINE
  5
9B
100
AcDbEntity
  8
leds
  6
ByLayer
 62
  256
370
   -1
100
AcDbLine
 10
4.199999999999999
 20
34.8
 11
4.199999999999999
 21
36.2
  0
LINE
  5
9C
100
AcDbEntity
  8
leds
  6
ByLayer
 62
  256
370
   -1
100
AcDbLine
 10
5.6
 20
37.8
 11
5.6
 21
36.2
  0
LINE
  5
9D
100
AcDbEntity
  8
leds
  6
ByLayer
 62
  256
370
   -1
100
AcDbLine
 10
4.4
 20
36.2
 11
4.4
 21
37.8
  0
LINE
  5
9E
100
AcDbEntity
  8
leds
  6
ByLayer
 62
  256
370
   -1
100
AcDbLine
 10
4.200000000000001
 20
33.2
 11
5.800000000000001
 21
33.2
  0
LINE
  5
9F
100
AcDbEntity
  8
leds
  6
ByLayer
 62
  256
370
   -1
100
AcDbLine
 10
5.800000000000001
 20
33.2
 11
5.800000000000001
 21
31.8
  0
LINE
  5
A0
100
AcDbEntity
  8
leds
  6
ByLayer
 62
  256
370
   -1
100
AcDbLine
 10
5.800000000000001
 20
31.8
 11
4.199999999999999
 21
31.8
  0
LINE
  5
A1
100
AcDbEntity
  8
leds
  6
ByLayer
 62
  256
370
   -1
100
AcDbLine
 10
4.199999999999999
 20
31.8
 11
4.200000000000001
 21
33.2
  0
LINE
  5
A2
100
AcDbEntity
  8
leds
  6
ByLayer
 62
  256
370
   -1
100
AcDbLine
 10
4.199999999999999
 20
30.2
 11
5.800000000000001
 21
30.2
  0
LINE
  5
A3
100
AcDbEntity
  8
leds
  6
ByLayer
 62
  256
370
   -1
100
AcDbLine
 10
5.800000000000001
 20
30.2
 11
5.799999999999999
 21
28.8
  0
LINE
  5
A4
100
AcDbEntity
  8
leds
  6
ByLayer
 62
  256
370
   -1
100
AcDbLine
 10
5.799999999999999
 20
28.8
 11
4.199999999999999
 21
28.8
  0
LINE
  5
A5
100
AcDbEntity
  8
leds
  6
ByLayer
 62
  256
370
   -1
100
AcDbLine
 10
4.199999999999999
 20
28.8
 11
4.199999999999999
 21
30.2
  0
LINE
  5
A6
100
AcDbEntity
  8
leds
  6
ByLayer
 62
  256
370
   -1
100
AcDbLine
 10
5.6
 20
31.8
 11
5.6
 21
30.2
  0
LINE
  5
A7
100
AcDbEntity
  8
leds
  6
ByLayer
 62
  256
370
   -1
100
AcDbLine
 10
4.4
 20
30.2
 11
4.4
 21
31.8
  0
LINE
  5
A8
100
AcDbEntity
  8
leds
  6
ByLayer
 62
  256
370
   -1
100
AcDbLine
 10
5.010050506338834
 20
40.87867965644035
 11
3.878679656440358
 21
42.01005050633884
  0
LINE
  5
A9
100
AcDbEntity
  8
leds
  6
ByLayer
 62
  256
370
   -1
100
AcDbLine
 10
3.878679656440358
 20
42.01005050633884
 11
4.868629150101524
 21
43
  0
LINE
  5
AA
100
AcDbEntity
  8
leds
  6
ByLayer
 62
  256
370
   -1
100
AcDbLine
 10
4.868629150101524
 20
43
 11
6
 21
41.86862915010153
  0
LINE
  5
AB
100
AcDbEntity
  8
leds
  6
ByLayer
 62
  256
370
   -1
100
AcDbLine
 10
6
 20
41.86862915010153
 11
5.010050506338834
 21
40.87867965644035
  0
LINE
  5
AC
100
AcDbEntity
  8
leds
  6
ByLayer
 62
  256
370
   -1
100
AcDbLine
 10
7.131370849898477
 20
43
 11
6
 21
44.13137084989847
  0
LINE
  5
AD
100
AcDbEntity
  8
leds
  6
ByLayer
 62
  256
370
   -1
100
AcDbLine
 10
6
 20
44.13137084989847
 11
6.989949493661168
 21
45.12132034355965
  0
LINE
  5
AE
100
AcDbEntity
  8
leds
  6
ByLayer
 62
  256
370
   -1
100
AcDbLine
 10
6.989949493661168
 20
45.12132034355965
 11
8.121320343559644
 21
43.98994949366116
  0
LINE
  5
AF
100
AcDbEntity
  8
leds
  6
ByLayer
 62
  256
370
   -1
100
AcDbLine
 10
8.121320343559644
 20
43.98994949366116
 11
7.131370849898477
 21
43
  0
LINE
  5
B0
100
AcDbEntity
  8
leds
  6
ByLayer
 62
  256
370
   -1
100
AcDbLine
 10
5.010050506338834
 20
42.85857864376269
 11
6.141421356237309
 21
43.98994949366116
  0
LINE
  5
B1
100
AcDbEntity
  8
leds
  6
ByLayer
 62
  256
370
   -1
100
AcDbLine
 10
6.989949493661166
 20
43.14142135623731
 11
5.858578643762689
 21
42.01005050633884
  0
LINE
  5
B2
100
AcDbEntity
  8
leds
  6
ByLayer
 62
  256
370
   -1
100
AcDbLine
 10
3.878679656440358
 20
25.98994949366116
 11
5.010050506338834
 21
27.12132034355965
  0
LINE
  5
B3
100
AcDbEntity
  8
leds
  6
ByLayer
 62
  256
370
   -1
100
AcDbLine
 10
5.010050506338834
 20
27.12132034355965
 11
6
 21
26.13137084989847
  0
LINE
  5
B4
100
AcDbEntity
  8
leds
  6
ByLayer
 62
  256
370
   -1
100
AcDbLine
 10
6
 20
26.13137084989847
 11
4.868629150101524
 21
25
  0
LINE
  5
B5
100
AcDbEntity
  8
leds
  6
ByLayer
 62
  256
370
   -1
100
AcDbLine
 10
4.868629150101524
 20
25
 11
3.878679656440358
 21
25.98994949366116
  0
LINE
  5
B6
100
AcDbEntity
  8
leds
  6
ByLayer
 62
  256
370
   -1
100
AcDbLine
 10
6
 20
23.86862915010152
 11
7.131370849898477
 21
25
  0
LINE
  5
B7
100
AcDbEntity
  8
leds
  6
ByLayer
 62
  256
370
   -1
100
AcDbLine
 10
7.131370849898477
 20
25
 11
8.121320343559642
 21
24.01005050633883
  0
LINE
  5
B8
100
AcDbEntity
  8
leds
  6
ByLayer
 62
  256
370
   -1
100
AcDbLine
 10
8.121320343559642
 20
24.01005050633883
 11
6.989949493661166
 21
22.87867965644035
  0
LINE
  5
B9
100
AcDbEntity
  8
leds
  6
ByLayer
 62
  256
370
   -1
100
AcDbLine
 10
6.989949493661166
 20
22.87867965644035
 11
6
 21
23.86862915010152
  0
LINE
  5
BA
100
AcDbEntity
  8
leds
  6
ByLayer
 62
  256
370
   -1
100
AcDbLine
 10
5.858578643762691
 20
25.98994949366116
 11
6.989949493661166
 21
24.85857864376269
  0
LINE
  5
BB
100
AcDbEntity
  8
leds
  6
ByLayer
 62
  256
370
   -1
100
AcDbLine
 10
6.141421356237309
 20
24.01005050633884
 11
5.010050506338834
 21
25.14142135623731
  0
LINE
  5
BC
100
AcDbEntity
  8
leds
  6
ByLayer
 62
  256
370
   -1
100
AcDbLine
 10
29.01005050633884
 20
22.87867965644036
 11
27.87867965644036
 21
24.01005050633884
  0
LINE
  5
BD
100
AcDbEntity
  8
leds
  6
ByLayer
 62
  256
370
   -1
100
AcDbLine
 10
27.87867965644036
 20
24.01005050633884
 11
28.86862915010153
 21
25
  0
LINE
  5
BE
100
AcDbEntity
  8
leds
  6
ByLayer
 62
  256
370
   -1
100
AcDbLine
 10
28.86862915010153
 20
25
 11
30
 21
23.86862915010153
  0
LINE
  5
BF
100
AcDbEntity
  8
leds
  6
ByLayer
 62
  256
370
   -1
100
AcDbLine
 10
30
 20
23.86862915010153
 11
29.01005050633884
 21
22.87867965644036
  0
LINE
  5
C0
100
AcDbEntity
  8
leds
  6
ByLayer
 62
  256
370
   -1
100
AcDbLine
 10
31.13137084989847
 20
25
 11
30
 21
26.13137084989847
  0
LINE
  5
C1
100
AcDbEntity
  8
leds
  6
ByLayer
 62
  256
370
   -1
100
AcDbLine
 10
30
 20
26.13137084989847
 11
30.98994949366117
 21
27.12132034355965
  0
LINE
  5
C2
100
AcDbEntity
  8
leds
  6
ByLayer
 62
  256
370
   -1
100
AcDbLine
 10
30.98994949366117
 20
27.12132034355965
 11
32.12132034355965
 21
25.98994949366116
  0
LINE
  5
C3
100
AcDbEntity
  8
leds
  6
ByLayer
 62
  256
370
   -1
100
AcDbLine
 10
32.12132034355965
 20
25.98994949366116
 11
31.13137084989847
 21
25
  0
LINE
  5
C4
100
AcDbEntity
  8
leds
  6
ByLayer
 62
  256
370
   -1
100
AcDbLine
 10
29.01005050633884
 20
24.85857864376269
 11
30.14142135623731
 21
25.98994949366116
  0
LINE
  5
C5
100
AcDbEntity
  8
leds
  6
ByLayer
 62
  256
370
   -1
100
AcDbLine
 10
30.98994949366116
 20
25.14142135623731
 11
29.85857864376269
 21
24.01005050633884
  0
LINE
  5
C6
100
AcDbEntity
  8
leds
  6
ByLayer
 62
  256
370
   -1
100
AcDbLine
 10
27.87867965644036
 20
43.98994949366116
 11
29.01005050633884
 21
45.12132034355965
  0
LINE
  5
C7
100
AcDbEntity
  8
leds
  6
ByLayer
 62
  256
370
   -1
100
AcDbLine
 10
29.01005050633884
 20
45.12132034355965
 11
30
 21
44.13137084989847
  0
LINE
  5
C8
100
AcDbEntity
  8
leds
  6
ByLayer
 62
  256
370
   -1
100
AcDbLine
 10
30
 20
44.13137084989847
 11
28.86862915010153
 21
43
  0
LINE
  5
C9
100
AcDbEntity
  8
leds
  6
ByLayer
 62
  256
370
   -1
100
AcDbLine
 10
28.86862915010153
 20
43
 11
27.87867965644036
 21
43.98994949366116
  0
LINE
  5
CA
100
AcDbEntity
  8
leds
  6
ByLayer
 62
  256
370
   -1
100
AcDbLine
 10
30
 20
41.86862915010153
 11
31.13137084989847
 21
43
  0
LINE
  5
CB
100
AcDbEntity
  8
leds
  6
ByLayer
 62
  256
370
   -1
100
AcDbLine
 10
31.13137084989847
 20
43
 11
32.12132034355965
 21
42.01005050633883
  0
LINE
  5
CC
100
AcDbEntity
  8
leds
  6
ByLayer
 62
  256
370
   -1
100
AcDbLine
 10
32.12132034355965
 20
42.01005050633883
 11
30.98994949366116
 21
40.87867965644035
  0
LINE
  5
CD
100
AcDbEntity
  8
leds
  6
ByLayer
 62
  256
370
   -1
100
AcDbLine
 10
30.98994949366116
 20
40.87867965644035
 11
30
 21
41.86862915010153
  0
LINE
  5
CE
100
AcDbEntity
  8
leds
  6
ByLayer
 62
  256
370
   -1
100
AcDbLine
 10
29.85857864376269
 20
43.98994949366116
 11
30.98994949366116
 21
42.85857864376269
  0
LINE
  5
CF
100
AcDbEntity
  8
leds
  6
ByLayer
 62
  256
370
   -1
100
AcDbLine
 10
30.14142135623731
 20
42.01005050633884
 11
29.01005050633884
 21
43.14142135623731
  0
LINE
  5
D0
100
AcDbEntity
  8
leds
  6
ByLayer
 62
  256
370
   -1
100
AcDbLine
 10
21.87867965644036
 20
40.98994949366116
 11
23.01005050633884
 21
42.12132034355965
  0
LINE
  5
D1
100
AcDbEntity
  8
leds
  6
ByLayer
 62
  256
370
   -1
100
AcDbLine
 10
23.01005050633884
 20
42.12132034355965
 11
24
 21
41.13137084989847
  0
LINE
  5
D2
100
AcDbEntity
  8
leds
  6
ByLayer
 62
  256
370
   -1
100
AcDbLine
 10
24
 20
41.13137084989847
 11
22.86862915010153
 21
40
  0
LINE
  5
D3
100
AcDbEntity
  8
leds
  6
ByLayer
 62
  256
370
   -1
100
AcDbLine
 10
22.86862915010153
 20
40
 11
21.87867965644036
 21
40.98994949366116
  0
LINE
  5
D4
100
AcDbEntity
  8
leds
  6
ByLayer
 62
  256
370
   -1
100
AcDbLine
 10
24
 20
38.86862915010153
 11
25.13137084989848
 21
40
  0
LINE
  5
D5
100
AcDbEntity
  8
leds
  6
ByLayer
 62
  256
370
   -1
100
AcDbLine
 10
25.13137084989848
 20
40
 11
26.12132034355964
 21
39.01005050633883
  0
LINE
  5
D6
100
AcDbEntity
  8
leds
  6
ByLayer
 62
  256
370
   -1
100
AcDbLine
 10
26.12132034355964
 20
39.01005050633883
 11
24.98994949366116
 21
37.87867965644035
  0
LINE
  5
D7
100
AcDbEntity
  8
leds
  6
ByLayer
 62
  256
370
   -1
100
AcDbLine
 10
24.98994949366116
 20
37.87867965644035
 11
24
 21
38.86862915010153
  0
LINE
  5
D8
100
AcDbEntity
  8
leds
  6
ByLayer
 62
  256
370
   -1
100
AcDbLine
 10
23.85857864376269
 20
40.98994949366116
 11
24.98994949366116
 21
39.85857864376269
  0
LINE
  5
D9
100
AcDbEntity
  8
leds
  6
ByLayer
 62
  256
370
   -1
100
AcDbLine
 10
24.14142135623731
 20
39.01005050633884
 11
23.01005050633884
 21
40.14142135623731
  0
LINE
  5
DA
100
AcDbEntity
  8
leds
  6
ByLayer
 62
  256
370
   -1
100
AcDbLine
 10
23.01005050633884
 20
25.87867965644036
 11
21.87867965644036
 21
27.01005050633884
  0
LINE
  5
DB
100
AcDbEntity
  8
leds
  6
ByLayer
 62
  256
370
   -1
100
AcDbLine
 10
21.87867965644036
 20
27.01005050633884
 11
22.86862915010153
 21
28
  0
LINE
  5
DC
100
AcDbEntity
  8
leds
  6
ByLayer
 62
  256
370
   -1
100
AcDbLine
 10
22.86862915010153
 20
28
 11
24
 21
26.86862915010153
  0
LINE
  5
DD
100
AcDbEntity
  8
leds
  6
ByLayer
 62
  256
370
   -1
100
AcDbLine
 10
24
 20
26.86862915010153
 11
23.01005050633884
 21
25.87867965644036
  0
LINE
  5
DE
100
AcDbEntity
  8
leds
  6
ByLayer
 62
  256
370
   -1
100
AcDbLine
 10
25.13137084989848
 20
28
 11
24
 21
29.13137084989847
  0
LINE
  5
DF
100
AcDbEntity
  8
leds
  6
ByLayer
 62
  256
370
   -1
100
AcDbLine
 10
24
 20
29.13137084989847
 11
24.98994949366117
 21
30.12132034355965
  0
LINE
  5
E0
100
AcDbEntity
  8
leds
  6
ByLayer
 62
  256
370
   -1
100
AcDbLine
 10
24.98994949366117
 20
30.12132034355965
 11
26.12132034355965
 21
28.98994949366117
  0
LINE
  5
E1
100
AcDbEntity
  8
leds
  6
ByLayer
 62
  256
370
   -1
100
AcDbLine
 10
26.12132034355965
 20
28.98994949366117
 11
25.13137084989848
 21
28
  0
LINE
  5
E2
100
AcDbEntity
  8
leds
  6
ByLayer
 62
  256
370
   -1
100
AcDbLine
 10
23.01005050633884
 20
27.85857864376269
 11
24.14142135623731
 21
28.98994949366117
  0
LINE
  5
E3
100
AcDbEntity
  8
leds
  6
ByLayer
 62
  256
370
   -1
100
AcDbLine
 10
24.98994949366116
 20
28.14142135623731
 11
23.85857864376269
 21
27.01005050633883
  0
LINE
  5
E4
100
AcDbEntity
  8
leds
  6
ByLayer
 62
  256
370
   -1
100
AcDbLine
 10
16.01005050633884
 20
25.87867965644036
 11
14.87867965644036
 21
27.01005050633884
  0
LINE
  5
E5
100
AcDbEntity
  8
leds
  6
ByLayer
 62
  256
370
   -1
100
AcDbLine
 10
14.87867965644036
 20
27.01005050633884
 11
15.86862915010153
 21
28
  0
LINE
  5
E6
100
AcDbEntity
  8
leds
  6
ByLayer
 62
  256
370
   -1
100
AcDbLine
 10
15.86862915010153
 20
28
 11
17
 21
26.86862915010153
  0
LINE
  5
E7
100
AcDbEntity
  8
leds
  6
ByLayer
 62
  256
370
   -1
100
AcDbLine
 10
17
 20
26.86862915010153
 11
16.01005050633884
 21
25.87867965644036
  0
LINE
  5
E8
100
AcDbEntity
  8
leds
  6
ByLayer
 62
  256
370
   -1
100
AcDbLine
 10
18.13137084989848
 20
28
 11
17
 21
29.13137084989847
  0
LINE
  5
E9
100
AcDbEntity
  8
leds
  6
ByLayer
 62
  256
370
   -1
100
AcDbLine
 10
17
 20
29.13137084989847
 11
17.98994949366117
 21
30.12132034355965
  0
LINE
  5
EA
100
AcDbEntity
  8
leds
  6
ByLayer
 62
  256
370
   -1
100
AcDbLine
 10
17.98994949366117
 20
30.12132034355965
 11
19.12132034355965
 21
28.98994949366117
  0
LINE
  5
EB
100
AcDbEntity
  8
leds
  6
ByLayer
 62
  256
370
   -1
100
AcDbLine
 10
19.12132034355965
 20
28.98994949366117
 11
18.13137084989848
 21
28
  0
LINE
  5
EC
100
AcDbEntity
  8
leds
  6
ByLayer
 62
  256
370
   -1
100
AcDbLine
 10
16.01005050633884
 20
27.85857864376269
 11
17.14142135623731
 21
28.98994949366117
  0
LINE
  5
ED
100
AcDbEntity
  8
leds
  6
ByLayer
 62
  256
370
   -1
100
AcDbLine
 10
17.98994949366116
 20
28.14142135623731
 11
16.85857864376269
 21
27.01005050633883
  0
LINE
  5
EE
100
AcDbEntity
  8
leds
  6
ByLayer
 62
  256
370
   -1
100
AcDbLine
 10
14.87867965644036
 20
40.98994949366116
 11
16.01005050633884
 21
42.12132034355965
  0
LINE
  5
EF
100
AcDbEntity
  8
leds
  6
ByLayer
 62
  256
370
   -1
100
AcDbLine
 10
16.01005050633884
 20
42.12132034355965
 11
17
 21
41.13137084989847
  0
LINE
  5
F0
100
AcDbEntity
  8
leds
  6
ByLayer
 62
  256
370
   -1
100
AcDbLine
 10
17
 20
41.13137084989847
 11
15.86862915010153
 21
40
  0
LINE
  5
F1
100
AcDbEntity
  8
leds
  6
ByLayer
 62
  256
370
   -1
100
AcDbLine
 10
15.86862915010153
 20
40
 11
14.87867965644036
 21
40.98994949366116
  0
LINE
  5
F2
100
AcDbEntity
  8
leds
  6
ByLayer
 62
  256
370
   -1
100
AcDbLine
 10
17
 20
38.86862915010153
 11
18.13137084989848
 21
40
  0
LINE
  5
F3
100
AcDbEntity
  8
leds
  6
ByLayer
 62
  256
370
   -1
100
AcDbLine
 10
18.13137084989848
 20
40
 11
19.12132034355964
 21
39.01005050633883
  0
LINE
  5
F4
100
AcDbEntity
  8
leds
  6
ByLayer
 62
  256
370
   -1
100
AcDbLine
 10
19.12132034355964
 20
39.01005050633883
 11
17.98994949366116
 21
37.87867965644035
  0
LINE
  5
F5
100
AcDbEntity
  8
leds
  6
ByLayer
 62
  256
370
   -1
100
AcDbLine
 10
17.98994949366116
 20
37.87867965644035
 11
17
 21
38.86862915010153
  0
LINE
  5
F6
100
AcDbEntity
  8
leds
  6
ByLayer
 62
  256
370
   -1
100
AcDbLine
 10
16.85857864376269
 20
40.98994949366116
 11
17.98994949366116
 21
39.85857864376269
  0
LINE
  5
F7
100
AcDbEntity
  8
leds
  6
ByLayer
 62
  256
370
   -1
100
AcDbLine
 10
17.14142135623731
 20
39.01005050633884
 11
16.01005050633884
 21
40.14142135623731
  0
LINE
  5
F8
100
AcDbEntity
  8
leds
  6
ByLayer
 62
  256
370
   -1
100
AcDbLine
 10
24.8
 20
31.2
 11
24.8
 21
32.8
  0
LINE
  5
F9
100
AcDbEntity
  8
leds
  6
ByLayer
 62
  256
370
   -1
100
AcDbLine
 10
24.8
 20
32.8
 11
26.2
 21
32.8
  0
LINE
  5
FA
100
AcDbEntity
  8
leds
  6
ByLayer
 62
  256
370
   -1
100
AcDbLine
 10
26.2
 20
32.8
 11
26.2
 21
31.2
  0
LINE
  5
FB
100
AcDbEntity
  8
leds
  6
ByLayer
 62
  256
370
   -1
100
AcDbLine
 10
26.2
 20
31.2
 11
24.8
 21
31.2
  0
LINE
  5
FC
100
AcDbEntity
  8
leds
  6
ByLayer
 62
  256
370
   -1
100
AcDbLine
 10
27.8
 20
31.2
 11
27.8
 21
32.8
  0
LINE
  5
FD
100
AcDbEntity
  8
leds
  6
ByLayer
 62
  256
370
   -1
100
AcDbLine
 10
27.8
 20
32.8
 11
29.2
 21
32.8
  0
LINE
  5
FE
100
AcDbEntity
  8
leds
  6
ByLayer
 62
  256
370
   -1
100
AcDbLine
 10
29.2
 20
32.8
 11
29.2
 21
31.2
  0
LINE
  5
FF
100
AcDbEntity
  8
leds
  6
ByLayer
 62
  256
370
   -1
100
AcDbLine
 10
29.2
 20
31.2
 11
27.8
 21
31.2
  0
LINE
  5
100
100
AcDbEntity
  8
leds
  6
ByLayer
 62
  256
370
   -1
100
AcDbLine
 10
26.2
 20
32.6
 11
27.8
 21
32.6
  0
LINE
  5
101
100
AcDbEntity
  8
leds
  6
ByLayer
 62
  256
370
   -1
100
AcDbLine
 10
27.8
 20
31.4
 11
26.2
 21
31.4
  0
LINE
  5
102
100
AcDbEntity
  8
leds
  6
ByLayer
 62
  256
370
   -1
100
AcDbLine
 10
18.8
 20
31.2
 11
18.8
 21
32.8
  0
LINE
  5
103
100
AcDbEntity
  8
leds
  6
ByLayer
 62
  256
370
   -1
100
AcDbLine
 10
18.8
 20
32.8
 11
20.2
 21
32.8
  0
LINE
  5
104
100
AcDbEntity
  8
leds
  6
ByLayer
 62
  256
370
   -1
100
AcDbLine
 10
20.2
 20
32.8
 11
20.2
 21
31.2
  0
LINE
  5
105
100
AcDbEntity
  8
leds
  6
ByLayer
 62
  256
370
   -1
100
AcDbLine
 10
20.2
 20
31.2
 11
18.8
 21
31.2
  0
LINE
  5
106
100
AcDbEntity
  8
leds
  6
ByLayer
 62
  256
370
   -1
100
AcDbLine
 10
21.8
 20
31.2
 11
21.8
 21
32.8
  0
LINE
  5
107
100
AcDbEntity
  8
leds
  6
ByLayer
 62
  256
370
   -1
100
AcDbLine
 10
21.8
 20
32.8
 11
23.2
 21
32.8
  0
LINE
  5
108
100
AcDbEntity
  8
leds
  6
ByLayer
 62
  256
370
   -1
100
AcDbLine
 10
23.2
 20
32.8
 11
23.2
 21
31.2
  0
LINE
  5
109
100
AcDbEntity
  8
leds
  6
ByLayer
 62
  256
370
   -1
100
AcDbLine
 10
23.2
 20
31.2
 11
21.8
 21
31.2
  0
LINE
  5
10A
100
AcDbEntity
  8
leds
  6
ByLayer
 62
  256
370
   -1
100
AcDbLine
 10
20.2
 20
32.6
 11
21.8
 21
32.6
  0
LINE
  5
10B
100
AcDbEntity
  8
leds
  6
ByLayer
 62
  256
370
   -1
100
AcDbLine
 10
21.8
 20
31.4
 11
20.2
 21
31.4
  0
LINE
  5
10C
100
AcDbEntity
  8
leds
  6
ByLayer
 62
  256
370
   -1
100
AcDbLine
 10
18.8
 20
35.2
 11
18.8
 21
36.8
  0
LINE
  5
10D
100
AcDbEntity
  8
leds
  6
ByLayer
 62
  256
370
   -1
100
AcDbLine
 10
18.8
 20
36.8
 11
20.2
 21
36.8
  0
LINE
  5
10E
100
AcDbEntity
  8
leds
  6
ByLayer
 62
  256
370
   -1
100
AcDbLine
 10
20.2
 20
36.8
 11
20.2
 21
35.2
  0
LINE
  5
10F
100
AcDbEntity
  8
leds
  6
ByLayer
 62
  256
370
   -1
100
AcDbLine
 10
20.2
 20
35.2
 11
18.8
 21
35.2
  0
LINE
  5
110
100
AcDbEntity
  8
leds
  6
ByLayer
 62
  256
370
   -1
100
AcDbLine
 10
21.8
 20
35.2
 11
21.8
 21
36.8
  0
LINE
  5
111
100
AcDbEntity
  8
leds
  6
ByLayer
 62
  256
370
   -1
100
AcDbLine
 10
21.8
 20
36.8
 11
23.2
 21
36.8
  0
LINE
  5
112
100
AcDbEntity
  8
leds
  6
ByLayer
 62
  256
370
   -1
100
AcDbLine
 10
23.2
 20
36.8
 11
23.2
 21
35.2
  0
LINE
  5
113
100
AcDbEntity
  8
leds
  6
ByLayer
 62
  256
370
   -1
100
AcDbLine
 10
23.2
 20
35.2
 11
21.8
 21
35.2
  0
LINE
  5
114
100
AcDbEntity
  8
leds
  6
ByLayer
 62
  256
370
   -1
100
AcDbLine
 10
20.2
 20
36.6
 11
21.8
 21
36.6
  0
LINE
  5
115
100
AcDbEntity
  8
leds
  6
ByLayer
 62
  256
370
   -1
100
AcDbLine
 10
21.8
 20
35.4
 11
20.2
 21
35.4
  0
LINE
  5
116
100
AcDbEntity
  8
leds
  6
ByLayer
 62
  256
370
   -1
100
AcDbLine
 10
24.8
 20
35.2
 11
24.8
 21
36.8
  0
LINE
  5
117
100
AcDbEntity
  8
leds
  6
ByLayer
 62
  256
370
   -1
100
AcDbLine
 10
24.8
 20
36.8
 11
26.2
 21
36.8
  0
LINE
  5
118
100
AcDbEntity
  8
leds
  6
ByLayer
 62
  256
370
   -1
100
AcDbLine
 10
26.2
 20
36.8
 11
26.2
 21
35.2
  0
LINE
  5
119
100
AcDbEntity
  8
leds
  6
ByLayer
 62
  256
370
   -1
100
AcDbLine
 10
26.2
 20
35.2
 11
24.8
 21
35.2
  0
LINE
  5
11A
100
AcDbEntity
  8
leds
  6
ByLayer
 62
  256
370
   -1
100
AcDbLine
 10
27.8
 20
35.2
 11
27.8
 21
36.8
  0
LINE
  5
11B
100
AcDbEntity
  8
leds
  6
ByLayer
 62
  256
370
   -1
100
AcDbLine
 10
27.8
 20
36.8
 11
29.2
 21
36.8
  0
LINE
  5
11C
100
AcDbEntity
  8
leds
  6
ByLayer
 62
  256
370
   -1
100
AcDbLine
 10
29.2
 20
36.8
 11
29.2
 21
35.2
  0
LINE
  5
11D
100
AcDbEntity
  8
leds
  6
ByLayer
 62
  256
370
   -1
100
AcDbLine
 10
29.2
 20
35.2
 11
27.8
 21
35.2
  0
LINE
  5
11E
100
AcDbEntity
  8
leds
  6
ByLayer
 62
  256
370
   -1
100
AcDbLine
 10
26.2
 20
36.6
 11
27.8
 21
36.6
  0
LINE
  5
11F
100
AcDbEntity
  8
leds
  6
ByLayer
 62
  256
370
   -1
100
AcDbLine
 10
27.8
 20
35.4
 11
26.2
 21
35.4
  0
LINE
  5
120
100
AcDbEntity
  8
leds
  6
ByLayer
 62
  256
370
   -1
100
AcDbLine
 10
30.8
 20
35.2
 11
30.8
 21
36.8
  0
LINE
  5
121
100
AcDbEntity
  8
leds
  6
ByLayer
 62
  256
370
   -1
100
AcDbLine
 10
30.8
 20
36.8
 11
32.2
 21
36.8
  0
LINE
  5
122
100
AcDbEntity
  8
leds
  6
ByLayer
 62
  256
370
   -1
100
AcDbLine
 10
32.2
 20
36.8
 11
32.2
 21
35.2
  0
LINE
  5
123
100
AcDbEntity
  8
leds
  6
ByLayer
 62
  256
370
   -1
100
AcDbLine
 10
32.2
 20
35.2
 11
30.8
 21
35.2
  0
LINE
  5
124
100
AcDbEntity
  8
leds
  6
ByLayer
 62
  256
370
   -1
100
AcDbLine
 10
33.8
 20
35.2
 11
33.8
 21
36.8
  0
LINE
  5
125
100
AcDbEntity
  8
leds
  6
ByLayer
 62
  256
370
   -1
100
AcDbLine
 10
33.8
 20
36.8
 11
35.2
 21
36.8
  0
LINE
  5
126
100
AcDbEntity
  8
leds
  6
ByLayer
 62
  256
370
   -1
100
AcDbLine
 10
35.2
 20
36.8
 11
35.2
 21
35.2
  0
LINE
  5
127
100
AcDbEntity
  8
leds
  6
ByLayer
 62
  256
370
   -1
100
AcDbLine
 10
35.2
 20
35.2
 11
33.8
 21
35.2
  0
LINE
  5
128
100
AcDbEntity
  8
leds
  6
ByLayer
 62
  256
370
   -1
100
AcDbLine
 10
32.2
 20
36.6
 11
33.8
 21
36.6
  0
LINE
  5
129
100
AcDbEntity
  8
leds
  6
ByLayer
 62
  256
370
   -1
100
AcDbLine
 10
33.8
 20
35.4
 11
32.2
 21
35.4
  0
LINE
  5
12A
100
AcDbEntity
  8
leds
  6
ByLayer
 62
  256
370
   -1
100
AcDbLine
 10
30.8
 20
31.2
 11
30.8
 21
32.8
  0
LINE
  5
12B
100
AcDbEntity
  8
leds
  6
ByLayer
 62
  256
370
   -1
100
AcDbLine
 10
30.8
 20
32.8
 11
32.2
 21
32.8
  0
LINE
  5
12C
100
AcDbEntity
  8
leds
  6
ByLayer
 62
  256
370
   -1
100
AcDbLine
 10
32.2
 20
32.8
 11
32.2
 21
31.2
  0
LINE
  5
12D
100
AcDbEntity
  8
leds
  6
ByLayer
 62
  256
370
   -1
100
AcDbLine
 10
32.2
 20
31.2
 11
30.8
 21
31.2
  0
LINE
  5
12E
100
AcDbEntity
  8
leds
  6
ByLayer
 62
  256
370
   -1
100
AcDbLine
 10
33.8
 20
31.2
 11
33.8
 21
32.8
  0
LINE
  5
12F
100
AcDbEntity
  8
leds
  6
ByLayer
 62
  256
370
   -1
100
AcDbLine
 10
33.8
 20
32.8
 11
35.2
 21
32.8
  0
LINE
  5
130
100
AcDbEntity
  8
leds
  6
ByLayer
 62
  256
370
   -1
100
AcDbLine
 10
35.2
 20
32.8
 11
35.2
 21
31.2
  0
LINE
  5
131
100
AcDbEntity
  8
leds
  6
ByLayer
 62
  256
370
   -1
100
AcDbLine
 10
35.2
 20
31.2
 11
33.8
 21
31.2
  0
LINE
  5
132
100
AcDbEntity
  8
leds
  6
ByLayer
 62
  256
370
   -1
100
AcDbLine
 10
32.2
 20
32.6
 11
33.8
 21
32.6
  0
LINE
  5
133
100
AcDbEntity
  8
leds
  6
ByLayer
 62
  256
370
   -1
100
AcDbLine
 10
33.8
 20
31.4
 11
32.2
 21
31.4
  0
LINE
  5
134
100
AcDbEntity
  8
leds
  6
ByLayer
 62
  256
370
   -1
100
AcDbLine
 10
36.8
 20
31.2
 11
36.8
 21
32.8
  0
LINE
  5
135
100
AcDbEntity
  8
leds
  6
ByLayer
 62
  256
370
   -1
100
AcDbLine
 10
36.8
 20
32.8
 11
38.2
 21
32.8
  0
LINE
  5
136
100
AcDbEntity
  8
leds
  6
ByLayer
 62
  256
370
   -1
100
AcDbLine
 10
38.2
 20
32.8
 11
38.2
 21
31.2
  0
LINE
  5
137
100
AcDbEntity
  8
leds
  6
ByLayer
 62
  256
370
   -1
100
AcDbLine
 10
38.2
 20
31.2
 11
36.8
 21
31.2
  0
LINE
  5
138
100
AcDbEntity
  8
leds
  6
ByLayer
 62
  256
370
   -1
100
AcDbLine
 10
39.8
 20
31.2
 11
39.8
 21
32.8
  0
LINE
  5
139
100
AcDbEntity
  8
leds
  6
ByLayer
 62
  256
370
   -1
100
AcDbLine
 10
39.8
 20
32.8
 11
41.2
 21
32.8
  0
LINE
  5
13A
100
AcDbEntity
  8
leds
  6
ByLayer
 62
  256
370
   -1
100
AcDbLine
 10
41.2
 20
32.8
 11
41.2
 21
31.2
  0
LINE
  5
13B
100
AcDbEntity
  8
leds
  6
ByLayer
 62
  256
370
   -1
100
AcDbLine
 10
41.2
 20
31.2
 11
39.8
 21
31.2
  0
LINE
  5
13C
100
AcDbEntity
  8
leds
  6
ByLayer
 62
  256
370
   -1
100
AcDbLine
 10
38.2
 20
32.6
 11
39.8
 21
32.6
  0
LINE
  5
13D
100
AcDbEntity
  8
leds
  6
ByLayer
 62
  256
370
   -1
100
AcDbLine
 10
39.8
 20
31.4
 11
38.2
 21
31.4
  0
LINE
  5
13E
100
AcDbEntity
  8
leds
  6
ByLayer
 62
  256
370
   -1
100
AcDbLine
 10
36.8
 20
35.2
 11
36.8
 21
36.8
  0
LINE
  5
13F
100
AcDbEntity
  8
leds
  6
ByLayer
 62
  256
370
   -1
100
AcDbLine
 10
36.8
 20
36.8
 11
38.2
 21
36.8
  0
LINE
  5
140
100
AcDbEntity
  8
leds
  6
ByLayer
 62
  256
370
   -1
100
AcDbLine
 10
38.2
 20
36.8
 11
38.2
 21
35.2
  0
LINE
  5
141
100
AcDbEntity
  8
leds
  6
ByLayer
 62
  256
370
   -1
100
AcDbLine
 10
38.2
 20
35.2
 11
36.8
 21
35.2
  0
LINE
  5
142
100
AcDbEntity
  8
leds
  6
ByLayer
 62
  256
370
   -1
100
AcDbLine
 10
39.8
 20
35.2
 11
39.8
 21
36.8
  0
LINE
  5
143
100
AcDbEntity
  8
leds
  6
ByLayer
 62
  256
370
   -1
100
AcDbLine
 10
39.8
 20
36.8
 11
41.2
 21
36.8
  0
LINE
  5
144
100
AcDbEntity
  8
leds
  6
ByLayer
 62
  256
370
   -1
100
AcDbLine
 10
41.2
 20
36.8
 11
41.2
 21
35.2
  0
LINE
  5
145
100
AcDbEntity
  8
leds
  6
ByLayer
 62
  256
370
   -1
100
AcDbLine
 10
41.2
 20
35.2
 11
39.8
 21
35.2
  0
LINE
  5
146
100
AcDbEntity
  8
leds
  6
ByLayer
 62
  256
370
   -1
100
AcDbLine
 10
38.2
 20
36.6
 11
39.8
 21
36.6
  0
LINE
  5
147
100
AcDbEntity
  8
leds
  6
ByLayer
 62
  256
370
   -1
100
AcDbLine
 10
39.8
 20
35.4
 11
38.2
 21
35.4
  0
LINE
  5
148
100
AcDbEntity
  8
leds
  6
ByLayer
 62
  256
370
   -1
100
AcDbLine
 10
43.8
 20
10.2
 11
43.8
 21
11.8
  0
LINE
  5
149
100
AcDbEntity
  8
leds
  6
ByLayer
 62
  256
370
   -1
100
AcDbLine
 10
43.8
 20
11.8
 11
45.2
 21
11.8
  0
LINE
  5
14A
100
AcDbEntity
  8
leds
  6
ByLayer
 62
  256
370
   -1
100
AcDbLine
 10
45.2
 20
11.8
 11
45.2
 21
10.2
  0
LINE
  5
14B
100
AcDbEntity
  8
leds
  6
ByLayer
 62
  256
370
   -1
100
AcDbLine
 10
45.2
 20
10.2
 11
43.8
 21
10.2
  0
LINE
  5
14C
100
AcDbEntity
  8
leds
  6
ByLayer
 62
  256
370
   -1
100
AcDbLine
 10
46.8
 20
10.2
 11
46.8
 21
11.8
  0
LINE
  5
14D
100
AcDbEntity
  8
leds
  6
ByLayer
 62
  256
370
   -1
100
AcDbLine
 10
46.8
 20
11.8
 11
48.2
 21
11.8
  0
LINE
  5
14E
100
AcDbEntity
  8
leds
  6
ByLayer
 62
  256
370
   -1
100
AcDbLine
 10
48.2
 20
11.8
 11
48.2
 21
10.2
  0
LINE
  5
14F
100
AcDbEntity
  8
leds
  6
ByLayer
 62
  256
370
   -1
100
AcDbLine
 10
48.2
 20
10.2
 11
46.8
 21
10.2
  0
LINE
  5
150
100
AcDbEntity
  8
leds
  6
ByLayer
 62
  256
370
   -1
100
AcDbLine
 10
45.2
 20
11.6
 11
46.8
 21
11.6
  0
LINE
  5
151
100
AcDbEntity
  8
leds
  6
ByLayer
 62
  256
370
   -1
100
AcDbLine
 10
46.8
 20
10.4
 11
45.2
 21
10.4
  0
LINE
  5
152
100
AcDbEntity
  8
leds
  6
ByLayer
 62
  256
370
   -1
100
AcDbLine
 10
51.87867965644035
 20
21.98994949366116
 11
53.01005050633884
 21
23.12132034355964
  0
LINE
  5
153
100
AcDbEntity
  8
leds
  6
ByLayer
 62
  256
370
   -1
100
AcDbLine
 10
53.01005050633884
 20
23.12132034355964
 11
54
 21
22.13137084989847
  0
LINE
  5
154
100
AcDbEntity
  8
leds
  6
ByLayer
 62
  256
370
   -1
100
AcDbLine
 10
54
 20
22.13137084989847
 11
52.86862915010153
 21
21
  0
LINE
  5
155
100
AcDbEntity
  8
leds
  6
ByLayer
 62
  256
370
   -1
100
AcDbLine
 10
52.86862915010153
 20
21
 11
51.87867965644035
 21
21.98994949366116
  0
LINE
  5
156
100
AcDbEntity
  8
leds
  6
ByLayer
 62
  256
370
   -1
100
AcDbLine
 10
54
 20
19.86862915010152
 11
55.13137084989847
 21
21
  0
LINE
  5
157
100
AcDbEntity
  8
leds
  6
ByLayer
 62
  256
370
   -1
100
AcDbLine
 10
55.13137084989847
 20
21
 11
56.12132034355965
 21
20.01005050633883
  0
LINE
  5
158
100
AcDbEntity
  8
leds
  6
ByLayer
 62
  256
370
   -1
100
AcDbLine
 10
56.12132034355965
 20
20.01005050633883
 11
54.98994949366116
 21
18.87867965644035
  0
LINE
  5
159
100
AcDbEntity
  8
leds
  6
ByLayer
 62
  256
370
   -1
100
AcDbLine
 10
54.98994949366116
 20
18.87867965644035
 11
54
 21
19.86862915010152
  0
LINE
  5
15A
100
AcDbEntity
  8
leds
  6
ByLayer
 62
  256
370
   -1
100
AcDbLine
 10
53.85857864376269
 20
21.98994949366116
 11
54.98994949366116
 21
20.85857864376269
  0
LINE
  5
15B
100
AcDbEntity
  8
leds
  6
ByLayer
 62
  256
370
   -1
100
AcDbLine
 10
54.14142135623731
 20
20.01005050633884
 11
53.01005050633884
 21
21.14142135623731
  0
LINE
  5
15C
100
AcDbEntity
  8
leds
  6
ByLayer
 62
  256
370
   -1
100
AcDbLine
 10
54.2
 20
17.2
 11
55.8
 21
17.2
  0
LINE
  5
15D
100
AcDbEntity
  8
leds
  6
ByLayer
 62
  256
370
   -1
100
AcDbLine
 10
55.8
 20
17.2
 11
55.8
 21
15.8
  0
LINE
  5
15E
100
AcDbEntity
  8
leds
  6
ByLayer
 62
  256
370
   -1
100
AcDbLine
 10
55.8
 20
15.8
 11
54.2
 21
15.8
  0
LINE
  5
15F
100
AcDbEntity
  8
leds
  6
ByLayer
 62
  256
370
   -1
100
AcDbLine
 10
54.2
 20
15.8
 11
54.2
 21
17.2
  0
LINE
  5
160
100
AcDbEntity
  8
leds
  6
ByLayer
 62
  256
370
   -1
100
AcDbLine
 10
54.2
 20
14.2
 11
55.8
 21
14.2
  0
LINE
  5
161
100
AcDbEntity
  8
leds
  6
ByLayer
 62
  256
370
   -1
100
AcDbLine
 10
55.8
 20
14.2
 11
55.8
 21
12.8
  0
LINE
  5
162
100
AcDbEntity
  8
leds
  6
ByLayer
 62
  256
370
   -1
100
AcDbLine
 10
55.8
 20
12.8
 11
54.2
 21
12.8
  0
LINE
  5
163
100
AcDbEntity
  8
leds
  6
ByLayer
 62
  256
370
   -1
100
AcDbLine
 10
54.2
 20
12.8
 11
54.2
 21
14.2
  0
LINE
  5
164
100
AcDbEntity
  8
leds
  6
ByLayer
 62
  256
370
   -1
100
AcDbLine
 10
55.6
 20
15.8
 11
55.6
 21
14.2
  0
LINE
  5
165
100
AcDbEntity
  8
leds
  6
ByLayer
 62
  256
370
   -1
100
AcDbLine
 10
54.4
 20
14.2
 11
54.4
 21
15.8
  0
LINE
  5
166
100
AcDbEntity
  8
leds
  6
ByLayer
 62
  256
370
   -1
100
AcDbLine
 10
50.2
 20
20.2
 11
51.8
 21
20.2
  0
LINE
  5
167
100
AcDbEntity
  8
leds
  6
ByLayer
 62
  256
370
   -1
100
AcDbLine
 10
51.8
 20
20.2
 11
51.8
 21
18.8
  0
LINE
  5
168
100
AcDbEntity
  8
leds
  6
ByLayer
 62
  256
370
   -1
100
AcDbLine
 10
51.8
 20
18.8
 11
50.2
 21
18.8
  0
LINE
  5
169
100
AcDbEntity
  8
leds
  6
ByLayer
 62
  256
370
   -1
100
AcDbLine
 10
50.2
 20
18.8
 11
50.2
 21
20.2
  0
LINE
  5
16A
100
AcDbEntity
  8
leds
  6
ByLayer
 62
  256
370
   -1
100
AcDbLine
 10
50.2
 20
17.2
 11
51.8
 21
17.2
  0
LINE
  5
16B
100
AcDbEntity
  8
leds
  6
ByLayer
 62
  256
370
   -1
100
AcDbLine
 10
51.8
 20
17.2
 11
51.8
 21
15.8
  0
LINE
  5
16C
100
AcDbEntity
  8
leds
  6
ByLayer
 62
  256
370
   -1
100
AcDbLine
 10
51.8
 20
15.8
 11
50.2
 21
15.8
  0
LINE
  5
16D
100
AcDbEntity
  8
leds
  6
ByLayer
 62
  256
370
   -1
100
AcDbLine
 10
50.2
 20
15.8
 11
50.2
 21
17.2
  0
LINE
  5
16E
100
AcDbEntity
  8
leds
  6
ByLayer
 62
  256
370
   -1
100
AcDbLine
 10
51.6
 20
18.8
 11
51.6
 21
17.2
  0
LINE
  5
16F
100
AcDbEntity
  8
leds
  6
ByLayer
 62
  256
370
   -1
100
AcDbLine
 10
50.4
 20
17.2
 11
50.4
 21
18.8
  0
LINE
  5
170
100
AcDbEntity
  8
leds
  6
ByLayer
 62
  256
370
   -1
100
AcDbLine
 10
50.2
 20
14.2
 11
51.8
 21
14.2
  0
LINE
  5
171
100
AcDbEntity
  8
leds
  6
ByLayer
 62
  256
370
   -1
100
AcDbLine
 10
51.8
 20
14.2
 11
51.8
 21
12.8
  0
LINE
  5
172
100
AcDbEntity
  8
leds
  6
ByLayer
 62
  256
370
   -1
100
AcDbLine
 10
51.8
 20
12.8
 11
50.2
 21
12.8
  0
LINE
  5
173
100
AcDbEntity
  8
leds
  6
ByLayer
 62
  256
370
   -1
100
AcDbLine
 10
50.2
 20
12.8
 11
50.2
 21
14.2
  0
LINE
  5
174
100
AcDbEntity
  8
leds
  6
ByLayer
 62
  256
370
   -1
100
AcDbLine
 10
50.2
 20
11.2
 11
51.8
 21
11.2
  0
LINE
  5
175
100
AcDbEntity
  8
leds
  6
ByLayer
 62
  256
370
   -1
100
AcDbLine
 10
51.8
 20
11.2
 11
51.8
 21
9.799999999999999
  0
LINE
  5
176
100
AcDbEntity
  8
leds
  6
ByLayer
 62
  256
370
   -1
100
AcDbLine
 10
51.8
 20
9.799999999999999
 11
50.2
 21
9.799999999999999
  0
LINE
  5
177
100
AcDbEntity
  8
leds
  6
ByLayer
 62
  256
370
   -1
100
AcDbLine
 10
50.2
 20
9.799999999999999
 11
50.2
 21
11.2
  0
LINE
  5
178
100
AcDbEntity
  8
leds
  6
ByLayer
 62
  256
370
   -1
100
AcDbLine
 10
51.6
 20
12.8
 11
51.6
 21
11.2
  0
LINE
  5
179
100
AcDbEntity
  8
leds
  6
ByLayer
 62
  256
370
   -1
100
AcDbLine
 10
50.4
 20
11.2
 11
50.4
 21
12.8
  0
LINE
  5
17A
100
AcDbEntity
  8
leds
  6
ByLayer
 62
  256
370
   -1
100
AcDbLine
 10
46.01005050633884
 20
14.87867965644036
 11
44.87867965644035
 21
16.01005050633884
  0
LINE
  5
17B
100
AcDbEntity
  8
leds
  6
ByLayer
 62
  256
370
   -1
100
AcDbLine
 10
44.87867965644035
 20
16.01005050633884
 11
45.86862915010153
 21
17
  0
LINE
  5
17C
100
AcDbEntity
  8
leds
  6
ByLayer
 62
  256
370
   -1
100
AcDbLine
 10
45.86862915010153
 20
17
 11
47
 21
15.86862915010153
  0
LINE
  5
17D
100
AcDbEntity
  8
leds
  6
ByLayer
 62
  256
370
   -1
100
AcDbLine
 10
47
 20
15.86862915010153
 11
46.01005050633884
 21
14.87867965644036
  0
LINE
  5
17E
100
AcDbEntity
  8
leds
  6
ByLayer
 62
  256
370
   -1
100
AcDbLine
 10
48.13137084989847
 20
17
 11
47
 21
18.13137084989848
  0
LINE
  5
17F
100
AcDbEntity
  8
leds
  6
ByLayer
 62
  256
370
   -1
100
AcDbLine
 10
47
 20
18.13137084989848
 11
47.98994949366117
 21
19.12132034355965
  0
LINE
  5
180
100
AcDbEntity
  8
leds
  6
ByLayer
 62
  256
370
   -1
100
AcDbLine
 10
47.98994949366117
 20
19.12132034355965
 11
49.12132034355965
 21
17.98994949366117
  0
LINE
  5
181
100
AcDbEntity
  8
leds
  6
ByLayer
 62
  256
370
   -1
100
AcDbLine
 10
49.12132034355965
 20
17.98994949366117
 11
48.13137084989847
 21
17
  0
LINE
  5
182
100
AcDbEntity
  8
leds
  6
ByLayer
 62
  256
370
   -1
100
AcDbLine
 10
46.01005050633884
 20
16.85857864376269
 11
47.14142135623731
 21
17.98994949366117
  0
LINE
  5
183
100
AcDbEntity
  8
leds
  6
ByLayer
 62
  256
370
   -1
100
AcDbLine
 10
47.98994949366116
 20
17.14142135623731
 11
46.85857864376269
 21
16.01005050633884
  0
LINE
  5
184
100
AcDbEntity
  8
leds
  6
ByLayer
 62
  256
370
   -1
100
AcDbLine
 10
53.01005050633884
 20
24.87867965644036
 11
51.87867965644035
 21
26.01005050633884
  0
LINE
  5
185
100
AcDbEntity
  8
leds
  6
ByLayer
 62
  256
370
   -1
100
AcDbLine
 10
51.87867965644035
 20
26.01005050633884
 11
52.86862915010153
 21
27
  0
LINE
  5
186
100
AcDbEntity
  8
leds
  6
ByLayer
 62
  256
370
   -1
100
AcDbLine
 10
52.86862915010153
 20
27
 11
54
 21
25.86862915010153
  0
LINE
  5
187
100
AcDbEntity
  8
leds
  6
ByLayer
 62
  256
370
   -1
100
AcDbLine
 10
54
 20
25.86862915010153
 11
53.01005050633884
 21
24.87867965644036
  0
LINE
  5
188
100
AcDbEntity
  8
leds
  6
ByLayer
 62
  256
370
   -1
100
AcDbLine
 10
55.13137084989847
 20
27
 11
54
 21
28.13137084989847
  0
LINE
  5
189
100
AcDbEntity
  8
leds
  6
ByLayer
 62
  256
370
   -1
100
AcDbLine
 10
54
 20
28.13137084989847
 11
54.98994949366117
 21
29.12132034355965
  0
LINE
  5
18A
100
AcDbEntity
  8
leds
  6
ByLayer
 62
  256
370
   -1
100
AcDbLine
 10
54.98994949366117
 20
29.12132034355965
 11
56.12132034355965
 21
27.98994949366117
  0
LINE
  5
18B
100
AcDbEntity
  8
leds
  6
ByLayer
 62
  256
370
   -1
100
AcDbLine
 10
56.12132034355965
 20
27.98994949366117
 11
55.13137084989847
 21
27
  0
LINE
  5
18C
100
AcDbEntity
  8
leds
  6
ByLayer
 62
  256
370
   -1
100
AcDbLine
 10
53.01005050633884
 20
26.85857864376269
 11
54.14142135623731
 21
27.98994949366117
  0
LINE
  5
18D
100
AcDbEntity
  8
leds
  6
ByLayer
 62
  256
370
   -1
100
AcDbLine
 10
54.98994949366116
 20
27.14142135623731
 11
53.85857864376269
 21
26.01005050633883
  0
LINE
  5
18E
100
AcDbEntity
  8
leds
  6
ByLayer
 62
  256
370
   -1
100
AcDbLine
 10
49.01005050633884
 20
20.87867965644036
 11
47.87867965644035
 21
22.01005050633884
  0
LINE
  5
18F
100
AcDbEntity
  8
leds
  6
ByLayer
 62
  256
370
   -1
100
AcDbLine
 10
47.87867965644035
 20
22.01005050633884
 11
48.86862915010153
 21
23
  0
LINE
  5
190
100
AcDbEntity
  8
leds
  6
ByLayer
 62
  256
370
   -1
100
AcDbLine
 10
48.86862915010153
 20
23
 11
50
 21
21.86862915010153
  0
LINE
  5
191
100
AcDbEntity
  8
leds
  6
ByLayer
 62
  256
370
   -1
100
AcDbLine
 10
50
 20
21.86862915010153
 11
49.01005050633884
 21
20.87867965644036
  0
LINE
  5
192
100
AcDbEntity
  8
leds
  6
ByLayer
 62
  256
370
   -1
100
AcDbLine
 10
51.13137084989847
 20
23
 11
50
 21
24.13137084989848
  0
LINE
  5
193
100
AcDbEntity
  8
leds
  6
ByLayer
 62
  256
370
   -1
100
AcDbLine
 10
50
 20
24.13137084989848
 11
50.98994949366117
 21
25.12132034355965
  0
LINE
  5
194
100
AcDbEntity
  8
leds
  6
ByLayer
 62
  256
370
   -1
100
AcDbLine
 10
50.98994949366117
 20
25.12132034355965
 11
52.12132034355965
 21
23.98994949366117
  0
LINE
  5
195
100
AcDbEntity
  8
leds
  6
ByLayer
 62
  256
370
   -1
100
AcDbLine
 10
52.12132034355965
 20
23.98994949366117
 11
51.13137084989847
 21
23
  0
LINE
  5
196
100
AcDbEntity
  8
leds
  6
ByLayer
 62
  256
370
   -1
100
AcDbLine
 10
49.01005050633884
 20
22.85857864376269
 11
50.14142135623731
 21
23.98994949366117
  0
LINE
  5
197
100
AcDbEntity
  8
leds
  6
ByLayer
 62
  256
370
   -1
100
AcDbLine
 10
50.98994949366116
 20
23.14142135623731
 11
49.85857864376269
 21
22.01005050633883
  0
LINE
  5
198
100
AcDbEntity
  8
leds
  6
ByLayer
 62
  256
370
   -1
100
AcDbLine
 10
42.8
 20
27.2
 11
42.8
 21
28.8
  0
LINE
  5
199
100
AcDbEntity
  8
leds
  6
ByLayer
 62
  256
370
   -1
100
AcDbLine
 10
42.8
 20
28.8
 11
44.2
 21
28.8
  0
LINE
  5
19A
100
AcDbEntity
  8
leds
  6
ByLayer
 62
  256
370
   -1
100
AcDbLine
 10
44.2
 20
28.8
 11
44.2
 21
27.2
  0
LINE
  5
19B
100
AcDbEntity
  8
leds
  6
ByLayer
 62
  256
370
   -1
100
AcDbLine
 10
44.2
 20
27.2
 11
42.8
 21
27.2
  0
LINE
  5
19C
100
AcDbEntity
  8
leds
  6
ByLayer
 62
  256
370
   -1
100
AcDbLine
 10
45.8
 20
27.2
 11
45.8
 21
28.8
  0
LINE
  5
19D
100
AcDbEntity
  8
leds
  6
ByLayer
 62
  256
370
   -1
100
AcDbLine
 10
45.8
 20
28.8
 11
47.2
 21
28.8
  0
LINE
  5
19E
100
AcDbEntity
  8
leds
  6
ByLayer
 62
  256
370
   -1
100
AcDbLine
 10
47.2
 20
28.8
 11
47.2
 21
27.2
  0
LINE
  5
19F
100
AcDbEntity
  8
leds
  6
ByLayer
 62
  256
370
   -1
100
AcDbLine
 10
47.2
 20
27.2
 11
45.8
 21
27.2
  0
LINE
  5
1A0
100
AcDbEntity
  8
leds
  6
ByLayer
 62
  256
370
   -1
100
AcDbLine
 10
44.2
 20
28.6
 11
45.8
 21
28.6
  0
LINE
  5
1A1
100
AcDbEntity
  8
leds
  6
ByLayer
 62
  256
370
   -1
100
AcDbLine
 10
45.8
 20
27.4
 11
44.2
 21
27.4
  0
LINE
  5
1A2
100
AcDbEntity
  8
leds
  6
ByLayer
 62
  256
370
   -1
100
AcDbLine
 10
42.8
 20
30.2
 11
42.8
 21
31.8
  0
LINE
  5
1A3
100
AcDbEntity
  8
leds
  6
ByLayer
 62
  256
370
   -1
100
AcDbLine
 10
42.8
 20
31.8
 11
44.2
 21
31.8
  0
LINE
  5
1A4
100
AcDbEntity
  8
leds
  6
ByLayer
 62
  256
370
   -1
100
AcDbLine
 10
44.2
 20
31.8
 11
44.2
 21
30.2
  0
LINE
  5
1A5
100
AcDbEntity
  8
leds
  6
ByLayer
 62
  256
370
   -1
100
AcDbLine
 10
44.2
 20
30.2
 11
42.8
 21
30.2
  0
LINE
  5
1A6
100
AcDbEntity
  8
leds
  6
ByLayer
 62
  256
370
   -1
100
AcDbLine
 10
45.8
 20
30.2
 11
45.8
 21
31.8
  0
LINE
  5
1A7
100
AcDbEntity
  8
leds
  6
ByLayer
 62
  256
370
   -1
100
AcDbLine
 10
45.8
 20
31.8
 11
47.2
 21
31.8
  0
LINE
  5
1A8
100
AcDbEntity
  8
leds
  6
ByLayer
 62
  256
370
   -1
100
AcDbLine
 10
47.2
 20
31.8
 11
47.2
 21
30.2
  0
LINE
  5
1A9
100
AcDbEntity
  8
leds
  6
ByLayer
 62
  256
370
   -1
100
AcDbLine
 10
47.2
 20
30.2
 11
45.8
 21
30.2
  0
LINE
  5
1AA
100
AcDbEntity
  8
leds
  6
ByLayer
 62
  256
370
   -1
100
AcDbLine
 10
44.2
 20
31.6
 11
45.8
 21
31.6
  0
LINE
  5
1AB
100
AcDbEntity
  8
leds
  6
ByLayer
 62
  256
370
   -1
100
AcDbLine
 10
45.8
 20
30.4
 11
44.2
 21
30.4
  0
LINE
  5
1AC
100
AcDbEntity
  8
leds
  6
ByLayer
 62
  256
370
   -1
100
AcDbLine
 10
41.87867965644035
 20
35.98994949366116
 11
43.01005050633884
 21
37.12132034355965
  0
LINE
  5
1AD
100
AcDbEntity
  8
leds
  6
ByLayer
 62
  256
370
   -1
100
AcDbLine
 10
43.01005050633884
 20
37.12132034355965
 11
44
 21
36.13137084989847
  0
LINE
  5
1AE
100
AcDbEntity
  8
leds
  6
ByLayer
 62
  256
370
   -1
100
AcDbLine
 10
44
 20
36.13137084989847
 11
42.86862915010153
 21
35
  0
LINE
  5
1AF
100
AcDbEntity
  8
leds
  6
ByLayer
 62
  256
370
   -1
100
AcDbLine
 10
42.86862915010153
 20
35
 11
41.87867965644035
 21
35.98994949366116
  0
LINE
  5
1B0
100
AcDbEntity
  8
leds
  6
ByLayer
 62
  256
370
   -1
100
AcDbLine
 10
44
 20
33.86862915010153
 11
45.13137084989847
 21
35
  0
LINE
  5
1B1
100
AcDbEntity
  8
leds
  6
ByLayer
 62
  256
370
   -1
100
AcDbLine
 10
45.13137084989847
 20
35
 11
46.12132034355965
 21
34.01005050633883
  0
LINE
  5
1B2
100
AcDbEntity
  8
leds
  6
ByLayer
 62
  256
370
   -1
100
AcDbLine
 10
46.12132034355965
 20
34.01005050633883
 11
44.98994949366116
 21
32.87867965644035
  0
LINE
  5
1B3
100
AcDbEntity
  8
leds
  6
ByLayer
 62
  256
370
   -1
100
AcDbLine
 10
44.98994949366116
 20
32.87867965644035
 11
44
 21
33.86862915010153
  0
LINE
  5
1B4
100
AcDbEntity
  8
leds
  6
ByLayer
 62
  256
370
   -1
100
AcDbLine
 10
43.85857864376269
 20
35.98994949366116
 11
44.98994949366116
 21
34.85857864376269
  0
LINE
  5
1B5
100
AcDbEntity
  8
leds
  6
ByLayer
 62
  256
370
   -1
100
AcDbLine
 10
44.14142135623731
 20
34.01005050633884
 11
43.01005050633884
 21
35.14142135623731
  0
LINE
  5
1B6
100
AcDbEntity
  8
leds
  6
ByLayer
 62
  256
370
   -1
100
AcDbLine
 10
48.87867965644035
 20
36.98994949366116
 11
50.01005050633884
 21
38.12132034355965
  0
LINE
  5
1B7
100
AcDbEntity
  8
leds
  6
ByLayer
 62
  256
370
   -1
100
AcDbLine
 10
50.01005050633884
 20
38.12132034355965
 11
51
 21
37.13137084989847
  0
LINE
  5
1B8
100
AcDbEntity
  8
leds
  6
ByLayer
 62
  256
370
   -1
100
AcDbLine
 10
51
 20
37.13137084989847
 11
49.86862915010153
 21
36
  0
LINE
  5
1B9
100
AcDbEntity
  8
leds
  6
ByLayer
 62
  256
370
   -1
100
AcDbLine
 10
49.86862915010153
 20
36
 11
48.87867965644035
 21
36.98994949366116
  0
LINE
  5
1BA
100
AcDbEntity
  8
leds
  6
ByLayer
 62
  256
370
   -1
100
AcDbLine
 10
51
 20
34.86862915010153
 11
52.13137084989847
 21
36
  0
LINE
  5
1BB
100
AcDbEntity
  8
leds
  6
ByLayer
 62
  256
370
   -1
100
AcDbLine
 10
52.13137084989847
 20
36
 11
53.12132034355965
 21
35.01005050633883
  0
LINE
  5
1BC
100
AcDbEntity
  8
leds
  6
ByLayer
 62
  256
370
   -1
100
AcDbLine
 10
53.12132034355965
 20
35.01005050633883
 11
51.98994949366116
 21
33.87867965644035
  0
LINE
  5
1BD
100
AcDbEntity
  8
leds
  6
ByLayer
 62
  256
370
   -1
100
AcDbLine
 10
51.98994949366116
 20
33.87867965644035
 11
51
 21
34.86862915010153
  0
LINE
  5
1BE
100
AcDbEntity
  8
leds
  6
ByLayer
 62
  256
370
   -1
100
AcDbLine
 10
50.85857864376269
 20
36.98994949366116
 11
51.98994949366116
 21
35.85857864376269
  0
LINE
  5
1BF
100
AcDbEntity
  8
leds
  6
ByLayer
 62
  256
370
   -1
100
AcDbLine
 10
51.14142135623731
 20
35.01005050633884
 11
50.01005050633884
 21
36.14142135623731
  0
LINE
  5
1C0
100
AcDbEntity
  8
leds
  6
ByLayer
 62
  256
370
   -1
100
AcDbLine
 10
52.01005050633884
 20
27.87867965644035
 11
50.87867965644035
 21
29.01005050633884
  0
LINE
  5
1C1
100
AcDbEntity
  8
leds
  6
ByLayer
 62
  256
370
   -1
100
AcDbLine
 10
50.87867965644035
 20
29.01005050633884
 11
51.86862915010153
 21
30
  0
LINE
  5
1C2
100
AcDbEntity
  8
leds
  6
ByLayer
 62
  256
370
   -1
100
AcDbLine
 10
51.86862915010153
 20
30
 11
53
 21
28.86862915010153
  0
LINE
  5
1C3
100
AcDbEntity
  8
leds
  6
ByLayer
 62
  256
370
   -1
100
AcDbLine
 10
53
 20
28.86862915010153
 11
52.01005050633884
 21
27.87867965644035
  0
LINE
  5
1C4
100
AcDbEntity
  8
leds
  6
ByLayer
 62
  256
370
   -1
100
AcDbLine
 10
54.13137084989847
 20
30
 11
53
 21
31.13137084989847
  0
LINE
  5
1C5
100
AcDbEntity
  8
leds
  6
ByLayer
 62
  256
370
   -1
100
AcDbLine
 10
53
 20
31.13137084989847
 11
53.98994949366117
 21
32.12132034355965
  0
LINE
  5
1C6
100
AcDbEntity
  8
leds
  6
ByLayer
 62
  256
370
   -1
100
AcDbLine
 10
53.98994949366117
 20
32.12132034355965
 11
55.12132034355965
 21
30.98994949366117
  0
LINE
  5
1C7
100
AcDbEntity
  8
leds
  6
ByLayer
 62
  256
370
   -1
100
AcDbLine
 10
55.12132034355965
 20
30.98994949366117
 11
54.13137084989847
 21
30
  0
LINE
  5
1C8
100
AcDbEntity
  8
leds
  6
ByLayer
 62
  256
370
   -1
100
AcDbLine
 10
52.01005050633884
 20
29.85857864376269
 11
53.14142135623731
 21
30.98994949366117
  0
LINE
  5
1C9
100
AcDbEntity
  8
leds
  6
ByLayer
 62
  256
370
   -1
100
AcDbLine
 10
53.98994949366116
 20
30.14142135623731
 11
52.85857864376269
 21
29.01005050633883
  0
LINE
  5
1CA
100
AcDbEntity
  8
leds
  6
ByLayer
 62
  256
370
   -1
100
AcDbLine
 10
48.01005050633884
 20
23.87867965644036
 11
46.87867965644035
 21
25.01005050633884
  0
LINE
  5
1CB
100
AcDbEntity
  8
leds
  6
ByLayer
 62
  256
370
   -1
100
AcDbLine
 10
46.87867965644035
 20
25.01005050633884
 11
47.86862915010153
 21
26
  0
LINE
  5
1CC
100
AcDbEntity
  8
leds
  6
ByLayer
 62
  256
370
   -1
100
AcDbLine
 10
47.86862915010153
 20
26
 11
49
 21
24.86862915010153
  0
LINE
  5
1CD
100
AcDbEntity
  8
leds
  6
ByLayer
 62
  256
370
   -1
100
AcDbLine
 10
49
 20
24.86862915010153
 11
48.01005050633884
 21
23.87867965644036
  0
LINE
  5
1CE
100
AcDbEntity
  8
leds
  6
ByLayer
 62
  256
370
   -1
100
AcDbLine
 10
50.13137084989847
 20
26
 11
49
 21
27.13137084989847
  0
LINE
  5
1CF
100
AcDbEntity
  8
leds
  6
ByLayer
 62
  256
370
   -1
100
AcDbLine
 10
49
 20
27.13137084989847
 11
49.98994949366117
 21
28.12132034355965
  0
LINE
  5
1D0
100
AcDbEntity
  8
leds
  6
ByLayer
 62
  256
370
   -1
100
AcDbLine
 10
49.98994949366117
 20
28.12132034355965
 11
51.12132034355965
 21
26.98994949366117
  0
LINE
  5
1D1
100
AcDbEntity
  8
leds
  6
ByLayer
 62
  256
370
   -1
100
AcDbLine
 10
51.12132034355965
 20
26.98994949366117
 11
50.13137084989847
 21
26
  0
LINE
  5
1D2
100
AcDbEntity
  8
leds
  6
ByLayer
 62
  256
370
   -1
100
AcDbLine
 10
48.01005050633884
 20
25.85857864376269
 11
49.14142135623731
 21
26.98994949366117
  0
LINE
  5
1D3
100
AcDbEntity
  8
leds
  6
ByLayer
 62
  256
370
   -1
100
AcDbLine
 10
49.98994949366116
 20
26.14142135623731
 11
48.85857864376269
 21
25.01005050633883
  0
LINE
  5
1D4
100
AcDbEntity
  8
leds
  6
ByLayer
 62
  256
370
   -1
100
AcDbLine
 10
44.87867965644035
 20
36.98994949366116
 11
46.01005050633884
 21
38.12132034355965
  0
LINE
  5
1D5
100
AcDbEntity
  8
leds
  6
ByLayer
 62
  256
370
   -1
100
AcDbLine
 10
46.01005050633884
 20
38.12132034355965
 11
47
 21
37.13137084989847
  0
LINE
  5
1D6
100
AcDbEntity
  8
leds
  6
ByLayer
 62
  256
370
   -1
100
AcDbLine
 10
47
 20
37.13137084989847
 11
45.86862915010153
 21
36
  0
LINE
  5
1D7
100
AcDbEntity
  8
leds
  6
ByLayer
 62
  256
370
   -1
100
AcDbLine
 10
45.86862915010153
 20
36
 11
44.87867965644035
 21
36.98994949366116
  0
LINE
  5
1D8
100
AcDbEntity
  8
leds
  6
ByLayer
 62
  256
370
   -1
100
AcDbLine
 10
47
 20
34.86862915010153
 11
48.13137084989847
 21
36
  0
LINE
  5
1D9
100
AcDbEntity
  8
leds
  6
ByLayer
 62
  256
370
   -1
100
AcDbLine
 10
48.13137084989847
 20
36
 11
49.12132034355965
 21
35.01005050633883
  0
LINE
  5
1DA
100
AcDbEntity
  8
leds
  6
ByLayer
 62
  256
370
   -1
100
AcDbLine
 10
49.12132034355965
 20
35.01005050633883
 11
47.98994949366116
 21
33.87867965644035
  0
LINE
  5
1DB
100
AcDbEntity
  8
leds
  6
ByLayer
 62
  256
370
   -1
100
AcDbLine
 10
47.98994949366116
 20
33.87867965644035
 11
47
 21
34.86862915010153
  0
LINE
  5
1DC
100
AcDbEntity
  8
leds
  6
ByLayer
 62
  256
370
   -1
100
AcDbLine
 10
46.85857864376269
 20
36.98994949366116
 11
47.98994949366116
 21
35.85857864376269
  0
LINE
  5
1DD
100
AcDbEntity
  8
leds
  6
ByLayer
 62
  256
370
   -1
100
AcDbLine
 10
47.14142135623731
 20
35.01005050633884
 11
46.01005050633884
 21
36.14142135623731
  0
ARC
  5
1DE
100
AcDbEntity
  8
border
  6
ByLayer
 62
  256
370
   -1
100
AcDbCircle
 10
5
 20
45
 40
5
100
AcDbArc
 50
90.00000000000004
 51
180
  0
LINE
  5
1DF
100
AcDbEntity
  8
border
  6
ByLayer
 62
  256
370
   -1
100
AcDbLine
 10
4.999999999999996
 20
50
 11
60
 21
50
  0
ARC
  5
1E0
100
AcDbEntity
  8
border
  6
ByLayer
 62
  256
370
   -1
100
AcDbCircle
 10
60
 20
45
 40
5
100
AcDbArc
 50
0
 51
90
  0
LINE
  5
1E1
100
AcDbEntity
  8
border
  6
ByLayer
 62
  256
370
   -1
100
AcDbLine
 10
65
 20
4.999999999999996
 11
65
 21
45
  0
ARC
  5
1E2
100
AcDbEntity
  8
border
  6
ByLayer
 62
  256
370
   -1
100
AcDbCircle
 10
60
 20
5
 40
5
100
AcDbArc
 50
270
 51
359.9999999999999
  0
LINE
  5
1E3
100
AcDbEntity
  8
border
  6
ByLayer
 62
  256
370
   -1
100
AcDbLine
 10
5
 20
0
 11
60
 21
0
  0
LINE
  5
1E4
100
AcDbEntity
  8
border
  6
ByLayer
 62
  256
370
   -1
100
AcDbLine
 10
-1.332267629550188e-15
 20
5
 11
8.881784197001252e-16
 21
45
  0
ARC
  5
1E5
100
AcDbEntity
  8
border
  6
ByLayer
 62
  256
370
   -1
100
AcDbCircle
 10
4.999999999999998
 20
5
 40
5
100
AcDbArc
 50
180
 51
270
  0
CIRCLE
  5
1E6
100
AcDbEntity
  8
border
  6
ByLayer
 62
  256
370
   -1
100
AcDbCircle
 10
4
 20
46
 40
1
  0
CIRCLE
  5
1E7
100
AcDbEntity
  8
border
  6
ByLayer
 62
  256
370
   -1
100
AcDbCircle
 10
61
 20
46
 40
1
  0
CIRCLE
  5
1E8
100
AcDbEntity
  8
border
  6
ByLayer
 62
  256
370
   -1
100
AcDbCircle
 10
4
 20
4
 40
1
  0
CIRCLE
  5
1E9
100
AcDbEntity
  8
border
  6
ByLayer
 62
  256
370
   -1
100
AcDbCircle
 10
61
 20
4
 40
1
  0
LINE
  5
1EA
100
AcDbEntity
  8
leds
  6
ByLayer
 62
  256
370
   -1
100
AcDbLine
 10
52
 20
7.131370849898476
 11
50.86862915010153
 21
6
  0
LINE
  5
1EB
100
AcDbEntity
  8
leds
  6
ByLayer
 62
  256
370
   -1
100
AcDbLine
 10
50.86862915010153
 20
6
 11
49.87867965644035
 21
6.989949493661166
  0
LINE
  5
1EC
100
AcDbEntity
  8
leds
  6
ByLayer
 62
  256
370
   -1
100
AcDbLine
 10
52
 20
4.868629150101523
 11
53.13137084989847
 21
6
  0
LINE
  5
1ED
100
AcDbEntity
  8
leds
  6
ByLayer
 62
  256
370
   -1
100
AcDbLine
 10
53.13137084989847
 20
6
 11
54.12132034355965
 21
5.010050506338832
  0
LINE
  5
1EE
100
AcDbEntity
  8
leds
  6
ByLayer
 62
  256
370
   -1
100
AcDbLine
 10
54.12132034355965
 20
5.010050506338832
 11
52.98994949366116
 21
3.878679656440356
  0
LINE
  5
1EF
100
AcDbEntity
  8
leds
  6
ByLayer
 62
  256
370
   -1
100
AcDbLine
 10
52.98994949366116
 20
3.878679656440356
 11
52
 21
4.868629150101523
  0
LINE
  5
1F0
100
AcDbEntity
  8
leds
  6
ByLayer
 62
  256
370
   -1
100
AcDbLine
 10
51.85857864376269
 20
6.989949493661165
 11
52.98994949366116
 21
5.858578643762691
  0
LINE
  5
1F1
100
AcDbEntity
  8
leds
  6
ByLayer
 62
  256
370
   -1
100
AcDbLine
 10
52.14142135623731
 20
5.010050506338834
 11
51.01005050633884
 21
6.141421356237309
  0
LINE
  5
1F2
100
AcDbEntity
  8
leds
  6
ByLayer
 62
  256
370
   -1
100
AcDbLine
 10
49.87867965644035
 20
6.989949493661166
 11
51.01005050633884
 21
8.121320343559642
  0
LINE
  5
1F3
100
AcDbEntity
  8
leds
  6
ByLayer
 62
  256
370
   -1
100
AcDbLine
 10
51.01005050633884
 20
8.121320343559642
 11
52
 21
7.131370849898476
  0
LINE
  5
1F4
100
AcDbEntity
  8
leds
  6
ByLayer
 62
  256
370
   -1
100
AcDbLine
 10
57.8
 20
18.2
 11
57.8
 21
19.8
  0
LINE
  5
1F5
100
AcDbEntity
  8
leds
  6
ByLayer
 62
  256
370
   -1
100
AcDbLine
 10
57.8
 20
19.8
 11
59.2
 21
19.8
  0
LINE
  5
1F6
100
AcDbEntity
  8
leds
  6
ByLayer
 62
  256
370
   -1
100
AcDbLine
 10
59.2
 20
19.8
 11
59.2
 21
18.2
  0
LINE
  5
1F7
100
AcDbEntity
  8
leds
  6
ByLayer
 62
  256
370
   -1
100
AcDbLine
 10
59.2
 20
18.2
 11
57.8
 21
18.2
  0
LINE
  5
1F8
100
AcDbEntity
  8
leds
  6
ByLayer
 62
  256
370
   -1
100
AcDbLine
 10
60.8
 20
18.2
 11
60.8
 21
19.8
  0
LINE
  5
1F9
100
AcDbEntity
  8
leds
  6
ByLayer
 62
  256
370
   -1
100
AcDbLine
 10
60.8
 20
19.8
 11
62.2
 21
19.8
  0
LINE
  5
1FA
100
AcDbEntity
  8
leds
  6
ByLayer
 62
  256
370
   -1
100
AcDbLine
 10
62.2
 20
19.8
 11
62.2
 21
18.2
  0
LINE
  5
1FB
100
AcDbEntity
  8
leds
  6
ByLayer
 62
  256
370
   -1
100
AcDbLine
 10
62.2
 20
18.2
 11
60.8
 21
18.2
  0
LINE
  5
1FC
100
AcDbEntity
  8
leds
  6
ByLayer
 62
  256
370
   -1
100
AcDbLine
 10
59.2
 20
19.6
 11
60.8
 21
19.6
  0
LINE
  5
1FD
100
AcDbEntity
  8
leds
  6
ByLayer
 62
  256
370
   -1
100
AcDbLine
 10
60.8
 20
18.4
 11
59.2
 21
18.4
  0
LINE
  5
1FE
100
AcDbEntity
  8
leds
  6
ByLayer
 62
  256
370
   -1
100
AcDbLine
 10
49.01005050633884
 20
28.87867965644035
 11
47.87867965644035
 21
30.01005050633883
  0
LINE
  5
1FF
100
AcDbEntity
  8
leds
  6
ByLayer
 62
  256
370
   -1
100
AcDbLine
 10
47.87867965644035
 20
30.01005050633883
 11
48.86862915010153
 21
31
  0
LINE
  5
200
100
AcDbEntity
  8
leds
  6
ByLayer
 62
  256
370
   -1
100
AcDbLine
 10
48.86862915010153
 20
31
 11
50
 21
29.86862915010153
  0
LINE
  5
201
100
AcDbEntity
  8
leds
  6
ByLayer
 62
  256
370
   -1
100
AcDbLine
 10
50
 20
29.86862915010153
 11
49.01005050633884
 21
28.87867965644035
  0
LINE
  5
202
100
AcDbEntity
  8
leds
  6
ByLayer
 62
  256
370
   -1
100
AcDbLine
 10
51.13137084989847
 20
31
 11
50
 21
32.13137084989847
  0
LINE
  5
203
100
AcDbEntity
  8
leds
  6
ByLayer
 62
  256
370
   -1
100
AcDbLine
 10
50
 20
32.13137084989847
 11
50.98994949366117
 21
33.12132034355965
  0
LINE
  5
204
100
AcDbEntity
  8
leds
  6
ByLayer
 62
  256
370
   -1
100
AcDbLine
 10
50.98994949366117
 20
33.12132034355965
 11
52.12132034355965
 21
31.98994949366116
  0
LINE
  5
205
100
AcDbEntity
  8
leds
  6
ByLayer
 62
  256
370
   -1
100
AcDbLine
 10
52.12132034355965
 20
31.98994949366116
 11
51.13137084989847
 21
31
  0
LINE
  5
206
100
AcDbEntity
  8
leds
  6
ByLayer
 62
  256
370
   -1
100
AcDbLine
 10
49.01005050633884
 20
30.85857864376268
 11
50.14142135623731
 21
31.98994949366116
  0
LINE
  5
207
100
AcDbEntity
  8
leds
  6
ByLayer
 62
  256
370
   -1
100
AcDbLine
 10
50.98994949366116
 20
31.1414213562373
 11
49.85857864376269
 21
30.01005050633883
  0
CIRCLE
  5
208
100
AcDbEntity
  8
LEDs
  6
ByLayer
 62
  256
370
   -1
100
AcDbCircle
 10
6
 20
43
 40
0.25
  0
CIRCLE
  5
209
100
AcDbEntity
  8
LEDs
  6
ByLayer
 62
  256
370
   -1
100
AcDbCircle
 10
6
 20
43
 40
0.5
  0
CIRCLE
  5
20A
100
AcDbEntity
  8
LEDs
  6
ByLayer
 62
  256
370
   -1
100
AcDbCircle
 10
5
 20
37
 40
0.25
  0
CIRCLE
  5
20B
100
AcDbEntity
  8
LEDs
  6
ByLayer
 62
  256
370
   -1
100
AcDbCircle
 10
5
 20
37
 40
0.5
  0
CIRCLE
  5
20C
100
AcDbEntity
  8
LEDs
  6
ByLayer
 62
  256
370
   -1
100
AcDbCircle
 10
5
 20
31
 40
0.25
  0
CIRCLE
  5
20D
100
AcDbEntity
  8
LEDs
  6
ByLayer
 62
  256
370
   -1
100
AcDbCircle
 10
5
 20
31
 40
0.5
  0
CIRCLE
  5
20E
100
AcDbEntity
  8
LEDs
  6
ByLayer
 62
  256
370
   -1
100
AcDbCircle
 10
6
 20
25
 40
0.25
  0
CIRCLE
  5
20F
100
AcDbEntity
  8
LEDs
  6
ByLayer
 62
  256
370
   -1
100
AcDbCircle
 10
6
 20
25
 40
0.5
  0
CIRCLE
  5
210
100
AcDbEntity
  8
LEDs
  6
ByLayer
 62
  256
370
   -1
100
AcDbCircle
 10
12
 20
24
 40
0.25
  0
CIRCLE
  5
211
100
AcDbEntity
  8
LEDs
  6
ByLayer
 62
  256
370
   -1
100
AcDbCircle
 10
12
 20
24
 40
0.5
  0
CIRCLE
  5
212
100
AcDbEntity
  8
LEDs
  6
ByLayer
 62
  256
370
   -1
100
AcDbCircle
 10
18
 20
24
 40
0.25
  0
CIRCLE
  5
213
100
AcDbEntity
  8
LEDs
  6
ByLayer
 62
  256
370
   -1
100
AcDbCircle
 10
18
 20
24
 40
0.5
  0
CIRCLE
  5
214
100
AcDbEntity
  8
LEDs
  6
ByLayer
 62
  256
370
   -1
100
AcDbCircle
 10
24
 20
24
 40
0.25
  0
CIRCLE
  5
215
100
AcDbEntity
  8
LEDs
  6
ByLayer
 62
  256
370
   -1
100
AcDbCircle
 10
24
 20
24
 40
0.5
  0
CIRCLE
  5
216
100
AcDbEntity
  8
LEDs
  6
ByLayer
 62
  256
370
   -1
100
AcDbCircle
 10
30
 20
25
 40
0.25
  0
CIRCLE
  5
217
100
AcDbEntity
  8
LEDs
  6
ByLayer
 62
  256
370
   -1
100
AcDbCircle
 10
30
 20
25
 40
0.5
  0
CIRCLE
  5
218
100
AcDbEntity
  8
LEDs
  6
ByLayer
 62
  256
370
   -1
100
AcDbCircle
 10
24
 20
28
 40
0.25
  0
CIRCLE
  5
219
100
AcDbEntity
  8
LEDs
  6
ByLayer
 62
  256
370
   -1
100
AcDbCircle
 10
24
 20
28
 40
0.5
  0
CIRCLE
  5
21A
100
AcDbEntity
  8
LEDs
  6
ByLayer
 62
  256
370
   -1
100
AcDbCircle
 10
17
 20
28
 40
0.25
  0
CIRCLE
  5
21B
100
AcDbEntity
  8
LEDs
  6
ByLayer
 62
  256
370
   -1
100
AcDbCircle
 10
17
 20
28
 40
0.5
  0
CIRCLE
  5
21C
100
AcDbEntity
  8
LEDs
  6
ByLayer
 62
  256
370
   -1
100
AcDbCircle
 10
21
 20
32
 40
0.25
  0
CIRCLE
  5
21D
100
AcDbEntity
  8
LEDs
  6
ByLayer
 62
  256
370
   -1
100
AcDbCircle
 10
21
 20
32
 40
0.5
  0
CIRCLE
  5
21E
100
AcDbEntity
  8
LEDs
  6
ByLayer
 62
  256
370
   -1
100
AcDbCircle
 10
27
 20
32
 40
0.25
  0
CIRCLE
  5
21F
100
AcDbEntity
  8
LEDs
  6
ByLayer
 62
  256
370
   -1
100
AcDbCircle
 10
27
 20
32
 40
0.5
  0
CIRCLE
  5
220
100
AcDbEntity
  8
LEDs
  6
ByLayer
 62
  256
370
   -1
100
AcDbCircle
 10
27
 20
36
 40
0.25
  0
CIRCLE
  5
221
100
AcDbEntity
  8
LEDs
  6
ByLayer
 62
  256
370
   -1
100
AcDbCircle
 10
27
 20
36
 40
0.5
  0
CIRCLE
  5
222
100
AcDbEntity
  8
LEDs
  6
ByLayer
 62
  256
370
   -1
100
AcDbCircle
 10
21
 20
36
 40
0.25
  0
CIRCLE
  5
223
100
AcDbEntity
  8
LEDs
  6
ByLayer
 62
  256
370
   -1
100
AcDbCircle
 10
21
 20
36
 40
0.5
  0
CIRCLE
  5
224
100
AcDbEntity
  8
LEDs
  6
ByLayer
 62
  256
370
   -1
100
AcDbCircle
 10
24
 20
40
 40
0.25
  0
CIRCLE
  5
225
100
AcDbEntity
  8
LEDs
  6
ByLayer
 62
  256
370
   -1
100
AcDbCircle
 10
24
 20
40
 40
0.5
  0
CIRCLE
  5
226
100
AcDbEntity
  8
LEDs
  6
ByLayer
 62
  256
370
   -1
100
AcDbCircle
 10
17
 20
40
 40
0.25
  0
CIRCLE
  5
227
100
AcDbEntity
  8
LEDs
  6
ByLayer
 62
  256
370
   -1
100
AcDbCircle
 10
17
 20
40
 40
0.5
  0
CIRCLE
  5
228
100
AcDbEntity
  8
LEDs
  6
ByLayer
 62
  256
370
   -1
100
AcDbCircle
 10
12
 20
44
 40
0.25
  0
CIRCLE
  5
229
100
AcDbEntity
  8
LEDs
  6
ByLayer
 62
  256
370
   -1
100
AcDbCircle
 10
12
 20
44
 40
0.5
  0
CIRCLE
  5
22A
100
AcDbEntity
  8
LEDs
  6
ByLayer
 62
  256
370
   -1
100
AcDbCircle
 10
18
 20
44
 40
0.25
  0
CIRCLE
  5
22B
100
AcDbEntity
  8
LEDs
  6
ByLayer
 62
  256
370
   -1
100
AcDbCircle
 10
18
 20
44
 40
0.5
  0
CIRCLE
  5
22C
100
AcDbEntity
  8
LEDs
  6
ByLayer
 62
  256
370
   -1
100
AcDbCircle
 10
24
 20
44
 40
0.25
  0
CIRCLE
  5
22D
100
AcDbEntity
  8
LEDs
  6
ByLayer
 62
  256
370
   -1
100
AcDbCircle
 10
24
 20
44
 40
0.5
  0
CIRCLE
  5
22E
100
AcDbEntity
  8
LEDs
  6
ByLayer
 62
  256
370
   -1
100
AcDbCircle
 10
30
 20
43
 40
0.25
  0
CIRCLE
  5
22F
100
AcDbEntity
  8
LEDs
  6
ByLayer
 62
  256
370
   -1
100
AcDbCircle
 10
30
 20
43
 40
0.5
  0
CIRCLE
  5
230
100
AcDbEntity
  8
LEDs
  6
ByLayer
 62
  256
370
   -1
100
AcDbCircle
 10
33
 20
36
 40
0.25
  0
CIRCLE
  5
231
100
AcDbEntity
  8
LEDs
  6
ByLayer
 62
  256
370
   -1
100
AcDbCircle
 10
33
 20
36
 40
0.5
  0
CIRCLE
  5
232
100
AcDbEntity
  8
LEDs
  6
ByLayer
 62
  256
370
   -1
100
AcDbCircle
 10
33
 20
32
 40
0.25
  0
CIRCLE
  5
233
100
AcDbEntity
  8
LEDs
  6
ByLayer
 62
  256
370
   -1
100
AcDbCircle
 10
33
 20
32
 40
0.5
  0
CIRCLE
  5
234
100
AcDbEntity
  8
LEDs
  6
ByLayer
 62
  256
370
   -1
100
AcDbCircle
 10
39
 20
32
 40
0.25
  0
CIRCLE
  5
235
100
AcDbEntity
  8
LEDs
  6
ByLayer
 62
  256
370
   -1
100
AcDbCircle
 10
39
 20
32
 40
0.5
  0
CIRCLE
  5
236
100
AcDbEntity
  8
LEDs
  6
ByLayer
 62
  256
370
   -1
100
AcDbCircle
 10
39
 20
36
 40
0.25
  0
CIRCLE
  5
237
100
AcDbEntity
  8
LEDs
  6
ByLayer
 62
  256
370
   -1
100
AcDbCircle
 10
39
 20
36
 40
0.5
  0
CIRCLE
  5
238
100
AcDbEntity
  8
LEDs
  6
ByLayer
 62
  256
370
   -1
100
AcDbCircle
 10
44
 20
35
 40
0.25
  0
CIRCLE
  5
239
100
AcDbEntity
  8
LEDs
  6
ByLayer
 62
  256
370
   -1
100
AcDbCircle
 10
44
 20
35
 40
0.5
  0
CIRCLE
  5
23A
100
AcDbEntity
  8
LEDs
  6
ByLayer
 62
  256
370
   -1
100
AcDbCircle
 10
47
 20
36
 40
0.25
  0
CIRCLE
  5
23B
100
AcDbEntity
  8
LEDs
  6
ByLayer
 62
  256
370
   -1
100
AcDbCircle
 10
47
 20
36
 40
0.5
  0
CIRCLE
  5
23C
100
AcDbEntity
  8
LEDs
  6
ByLayer
 62
  256
370
   -1
100
AcDbCircle
 10
51
 20
36
 40
0.25
  0
CIRCLE
  5
23D
100
AcDbEntity
  8
LEDs
  6
ByLayer
 62
  256
370
   -1
100
AcDbCircle
 10
51
 20
36
 40
0.5
  0
CIRCLE
  5
23E
100
AcDbEntity
  8
LEDs
  6
ByLayer
 62
  256
370
   -1
100
AcDbCircle
 10
50
 20
31
 40
0.25
  0
CIRCLE
  5
23F
100
AcDbEntity
  8
LEDs
  6
ByLayer
 62
  256
370
   -1
100
AcDbCircle
 10
50
 20
31
 40
0.5
  0
CIRCLE
  5
240
100
AcDbEntity
  8
LEDs
  6
ByLayer
 62
  256
370
   -1
100
AcDbCircle
 10
53
 20
30
 40
0.25
  0
CIRCLE
  5
241
100
AcDbEntity
  8
LEDs
  6
ByLayer
 62
  256
370
   -1
100
AcDbCircle
 10
53
 20
30
 40
0.5
  0
CIRCLE
  5
242
100
AcDbEntity
  8
LEDs
  6
ByLayer
 62
  256
370
   -1
100
AcDbCircle
 10
54
 20
27
 40
0.25
  0
CIRCLE
  5
243
100
AcDbEntity
  8
LEDs
  6
ByLayer
 62
  256
370
   -1
100
AcDbCircle
 10
54
 20
27
 40
0.5
  0
CIRCLE
  5
244
100
AcDbEntity
  8
LEDs
  6
ByLayer
 62
  256
370
   -1
100
AcDbCircle
 10
50
 20
23
 40
0.25
  0
CIRCLE
  5
245
100
AcDbEntity
  8
LEDs
  6
ByLayer
 62
  256
370
   -1
100
AcDbCircle
 10
50
 20
23
 40
0.5
  0
CIRCLE
  5
246
100
AcDbEntity
  8
LEDs
  6
ByLayer
 62
  256
370
   -1
100
AcDbCircle
 10
49
 20
26
 40
0.25
  0
CIRCLE
  5
247
100
AcDbEntity
  8
LEDs
  6
ByLayer
 62
  256
370
   -1
100
AcDbCircle
 10
49
 20
26
 40
0.5
  0
CIRCLE
  5
248
100
AcDbEntity
  8
LEDs
  6
ByLayer
 62
  256
370
   -1
100
AcDbCircle
 10
45
 20
28
 40
0.25
  0
CIRCLE
  5
249
100
AcDbEntity
  8
LEDs
  6
ByLayer
 62
  256
370
   -1
100
AcDbCircle
 10
45
 20
28
 40
0.5
  0
CIRCLE
  5
24A
100
AcDbEntity
  8
LEDs
  6
ByLayer
 62
  256
370
   -1
100
AcDbCircle
 10
45
 20
31
 40
0.25
  0
CIRCLE
  5
24B
100
AcDbEntity
  8
LEDs
  6
ByLayer
 62
  256
370
   -1
100
AcDbCircle
 10
45
 20
31
 40
0.5
  0
CIRCLE
  5
24C
100
AcDbEntity
  8
LEDs
  6
ByLayer
 62
  256
370
   -1
100
AcDbCircle
 10
54
 20
21
 40
0.25
  0
CIRCLE
  5
24D
100
AcDbEntity
  8
LEDs
  6
ByLayer
 62
  256
370
   -1
100
AcDbCircle
 10
54
 20
21
 40
0.5
  0
CIRCLE
  5
24E
100
AcDbEntity
  8
LEDs
  6
ByLayer
 62
  256
370
   -1
100
AcDbCircle
 10
60
 20
19
 40
0.25
  0
CIRCLE
  5
24F
100
AcDbEntity
  8
LEDs
  6
ByLayer
 62
  256
370
   -1
100
AcDbCircle
 10
60
 20
19
 40
0.5
  0
CIRCLE
  5
250
100
AcDbEntity
  8
LEDs
  6
ByLayer
 62
  256
370
   -1
100
AcDbCircle
 10
55
 20
15
 40
0.25
  0
CIRCLE
  5
251
100
AcDbEntity
  8
LEDs
  6
ByLayer
 62
  256
370
   -1
100
AcDbCircle
 10
55
 20
15
 40
0.5
  0
CIRCLE
  5
252
100
AcDbEntity
  8
LEDs
  6
ByLayer
 62
  256
370
   -1
100
AcDbCircle
 10
51
 20
18
 40
0.25
  0
CIRCLE
  5
253
100
AcDbEntity
  8
LEDs
  6
ByLayer
 62
  256
370
   -1
100
AcDbCircle
 10
51
 20
18
 40
0.5
  0
CIRCLE
  5
254
100
AcDbEntity
  8
LEDs
  6
ByLayer
 62
  256
370
   -1
100
AcDbCircle
 10
47
 20
17
 40
0.25
  0
CIRCLE
  5
255
100
AcDbEntity
  8
LEDs
  6
ByLayer
 62
  256
370
   -1
100
AcDbCircle
 10
47
 20
17
 40
0.5
  0
CIRCLE
  5
256
100
AcDbEntity
  8
LEDs
  6
ByLayer
 62
  256
370
   -1
100
AcDbCircle
 10
51
 20
12
 40
0.25
  0
CIRCLE
  5
257
100
AcDbEntity
  8
LEDs
  6
ByLayer
 62
  256
370
   -1
100
AcDbCircle
 10
51
 20
12
 40
0.5
  0
CIRCLE
  5
258
100
AcDbEntity
  8
LEDs
  6
ByLayer
 62
  256
370
   -1
100
AcDbCircle
 10
52
 20
6
 40
0.25
  0
CIRCLE
  5
259
100
AcDbEntity
  8
LEDs
  6
ByLayer
 62
  256
370
   -1
100
AcDbCircle
 10
52
 20
6
 40
0.5
  0
CIRCLE
  5
25A
100
AcDbEntity
  8
LEDs
  6
ByLayer
 62
  256
370
   -1
100
AcDbCircle
 10
46
 20
11
 40
0.25
  0
CIRCLE
  5
25B
100
AcDbEntity
  8
LEDs
  6
ByLayer
 62
  256
370
   -1
100
AcDbCircle
 10
46
 20
11
 40
0.5
  0
ENDSEC
  0
SECTION
  2
OBJECTS
  0
DICTIONARY
  5
C
330
0
100
AcDbDictionary
281
    1
  3
ACAD_GROUP
350
D
  0
DICTIONARY
  5
D
330
C
100
AcDbDictionary
281
    1
  0
ENDSEC
  0
EOF
