<?xml version="1.0" encoding="UTF-8" standalone="no"?>
<!-- Created with Inkscape (http://www.inkscape.org/) -->

<svg
   xmlns:dc="http://purl.org/dc/elements/1.1/"
   xmlns:cc="http://creativecommons.org/ns#"
   xmlns:rdf="http://www.w3.org/1999/02/22-rdf-syntax-ns#"
   xmlns:svg="http://www.w3.org/2000/svg"
   xmlns="http://www.w3.org/2000/svg"
   xmlns:sodipodi="http://sodipodi.sourceforge.net/DTD/sodipodi-0.dtd"
   xmlns:inkscape="http://www.inkscape.org/namespaces/inkscape"
   width="402.00598"
   height="291.1228"
   id="svg5625"
   version="1.1"
   inkscape:version="0.47 r22583"
   sodipodi:docname="Neues Dokument 6">
  <defs
     id="defs5627">
    <inkscape:perspective
       sodipodi:type="inkscape:persp3d"
       inkscape:vp_x="0 : 526.18109 : 1"
       inkscape:vp_y="0 : 1000 : 0"
       inkscape:vp_z="744.09448 : 526.18109 : 1"
       inkscape:persp3d-origin="372.04724 : 350.78739 : 1"
       id="perspective5633" />
    <inkscape:perspective
       id="perspective5532"
       inkscape:persp3d-origin="0.5 : 0.33333333 : 1"
       inkscape:vp_z="1 : 0.5 : 1"
       inkscape:vp_y="0 : 1000 : 0"
       inkscape:vp_x="0 : 0.5 : 1"
       sodipodi:type="inkscape:persp3d" />
  </defs>
  <sodipodi:namedview
     id="base"
     pagecolor="#ffffff"
     bordercolor="#666666"
     borderopacity="1.0"
     inkscape:pageopacity="0.0"
     inkscape:pageshadow="2"
     inkscape:zoom="0.98994949"
     inkscape:cx="256.71729"
     inkscape:cy="197.27319"
     inkscape:document-units="px"
     inkscape:current-layer="layer1"
     showgrid="false"
     inkscape:window-width="904"
     inkscape:window-height="725"
     inkscape:window-x="4"
     inkscape:window-y="44"
     inkscape:window-maximized="0" />
  <metadata
     id="metadata5630">
    <rdf:RDF>
      <cc:Work
         rdf:about="">
        <dc:format>image/svg+xml</dc:format>
        <dc:type
           rdf:resource="http://purl.org/dc/dcmitype/StillImage" />
        <dc:title></dc:title>
      </cc:Work>
    </rdf:RDF>
  </metadata>
  <g
     inkscape:label="Ebene 1"
     inkscape:groupmode="layer"
     id="layer1"
     transform="translate(-93.282714,-438.51257)">
    <path
       id="path410"
       style="fill:none;stroke:#b0bfec;stroke-width:11.96207523;stroke-linecap:round;stroke-linejoin:round;stroke-miterlimit:10;stroke-opacity:1;stroke-dasharray:none"
       d="m 241.95871,531.75022 52.3275,52.3275" />
    <path
       id="path1150"
       style="fill:#cccccc;fill-opacity:1;fill-rule:nonzero;stroke:none"
       d="m 469.45746,597.15897 c 0,4.40375 3.57,7.975 7.975,7.975 4.40375,0 7.97375,-3.57125 7.97375,-7.975 0,-4.40375 -3.57,-7.975 -7.97375,-7.975 -4.405,0 -7.975,3.57125 -7.975,7.975" />
    <path
       id="path1152"
       style="fill:#cccccc;fill-opacity:1;fill-rule:nonzero;stroke:none"
       d="m 469.45746,570.99522 c 0,4.405 3.57,7.975 7.975,7.975 4.40375,0 7.97375,-3.57 7.97375,-7.975 0,-4.40375 -3.57,-7.975 -7.97375,-7.975 -4.405,0 -7.975,3.57125 -7.975,7.975" />
    <path
       id="path1154"
       style="fill:#cccccc;fill-opacity:1;fill-rule:nonzero;stroke:none"
       d="m 443.29371,570.99522 c 0,4.405 3.57,7.975 7.975,7.975 4.40375,0 7.975,-3.57 7.975,-7.975 0,-4.40375 -3.57125,-7.975 -7.975,-7.975 -4.405,0 -7.975,3.57125 -7.975,7.975" />
    <path
       id="path1156"
       style="fill:#cccccc;fill-opacity:1;fill-rule:nonzero;stroke:none"
       d="m 443.29371,597.15897 c 0,4.40375 3.57,7.975 7.975,7.975 4.40375,0 7.975,-3.57125 7.975,-7.975 0,-4.40375 -3.57125,-7.975 -7.975,-7.975 -4.405,0 -7.975,3.57125 -7.975,7.975" />
    <path
       id="path1194"
       style="fill:#cccccc;fill-opacity:1;fill-rule:nonzero;stroke:none"
       d="m 129.32871,597.15897 c 0,4.40375 3.57125,7.975 7.975,7.975 4.40375,0 7.975,-3.57125 7.975,-7.975 0,-4.40375 -3.57125,-7.975 -7.975,-7.975 -4.40375,0 -7.975,3.57125 -7.975,7.975" />
    <path
       id="path1196"
       style="fill:#cccccc;fill-opacity:1;fill-rule:nonzero;stroke:none"
       d="m 103.16496,597.15897 c 0,4.40375 3.57,7.975 7.975,7.975 4.40375,0 7.975,-3.57125 7.975,-7.975 0,-4.40375 -3.57125,-7.975 -7.975,-7.975 -4.405,0 -7.975,3.57125 -7.975,7.975" />
    <path
       id="path1198"
       style="fill:#cccccc;fill-opacity:1;fill-rule:nonzero;stroke:none"
       d="m 103.16496,570.99522 c 0,4.405 3.57,7.975 7.975,7.975 4.40375,0 7.975,-3.57 7.975,-7.975 0,-4.40375 -3.57125,-7.975 -7.975,-7.975 -4.405,0 -7.975,3.57125 -7.975,7.975" />
    <path
       id="path1200"
       style="fill:#cccccc;fill-opacity:1;fill-rule:nonzero;stroke:none"
       d="m 129.32871,570.99522 c 0,4.405 3.57125,7.975 7.975,7.975 4.40375,0 7.975,-3.57 7.975,-7.975 0,-4.40375 -3.57125,-7.975 -7.975,-7.975 -4.40375,0 -7.975,3.57125 -7.975,7.975" />
    <path
       id="path1236"
       style="fill:#cccccc;fill-opacity:1;fill-rule:nonzero;stroke:none"
       d="m 227.44121,557.91272 c 0,4.405 3.57,7.97625 7.975,7.97625 4.40375,0 7.97375,-3.57125 7.97375,-7.97625 0,-4.40375 -3.57,-7.97375 -7.97375,-7.97375 -4.405,0 -7.975,3.57 -7.975,7.97375" />
    <path
       id="path1248"
       style="fill:#cccccc;fill-opacity:1;fill-rule:nonzero;stroke:none"
       d="m 286.31121,649.48647 c 0,4.40375 3.57,7.975 7.975,7.975 4.40375,0 7.975,-3.57125 7.975,-7.975 0,-4.40375 -3.57125,-7.975 -7.975,-7.975 -4.405,0 -7.975,3.57125 -7.975,7.975" />
    <path
       id="path1250"
       style="fill:#cccccc;fill-opacity:1;fill-rule:nonzero;stroke:none"
       d="m 345.17871,557.91272 c 0,4.405 3.57,7.97625 7.97375,7.97625 4.405,0 7.975,-3.57125 7.975,-7.97625 0,-4.40375 -3.57,-7.97375 -7.975,-7.97375 -4.40375,0 -7.97375,3.57 -7.97375,7.97375" />
    <path
       id="path1302"
       style="fill:#b8b8b8;fill-opacity:1;fill-rule:nonzero;stroke:none"
       d="m 495.28871,550.84647 -66.45562,0 0,66.456 66.45562,0 0,-66.456 z" />
    <path
       id="path1328"
       style="fill:#b8b8b8;fill-opacity:1;fill-rule:nonzero;stroke:none"
       d="m 211.21621,584.07397 c 0,45.8775 37.1925,83.07 83.07,83.07 45.8775,0 83.07,-37.1925 83.07,-83.07 0,-45.8775 -37.1925,-83.07 -83.07,-83.07 -45.8775,0 -83.07,37.1925 -83.07,83.07" />
    <path
       id="path1330"
       style="fill:#b8b8b8;fill-opacity:1;fill-rule:nonzero;stroke:none"
       d="m 159.73871,550.84647 -66.455996,0 0,66.456 66.455996,0 0,-66.456 z" />
    <path
       id="path1382"
       style="fill:#ffffff;fill-opacity:1;fill-rule:nonzero;stroke:none"
       d="m 473.44496,597.15897 c 0,2.2025 1.785,3.9875 3.9875,3.9875 2.20125,0 3.9875,-1.785 3.9875,-3.9875 0,-2.2025 -1.78625,-3.9875 -3.9875,-3.9875 -2.2025,0 -3.9875,1.785 -3.9875,3.9875" />
    <path
       id="path1384"
       style="fill:#ffffff;fill-opacity:1;fill-rule:nonzero;stroke:none"
       d="m 473.44496,570.99522 c 0,2.2025 1.785,3.9875 3.9875,3.9875 2.20125,0 3.9875,-1.785 3.9875,-3.9875 0,-2.2025 -1.78625,-3.9875 -3.9875,-3.9875 -2.2025,0 -3.9875,1.785 -3.9875,3.9875" />
    <path
       id="path1386"
       style="fill:#ffffff;fill-opacity:1;fill-rule:nonzero;stroke:none"
       d="m 447.28121,570.99522 c 0,2.2025 1.785,3.9875 3.9875,3.9875 2.2025,0 3.9875,-1.785 3.9875,-3.9875 0,-2.2025 -1.785,-3.9875 -3.9875,-3.9875 -2.2025,0 -3.9875,1.785 -3.9875,3.9875" />
    <path
       id="path1388"
       style="fill:#ffffff;fill-opacity:1;fill-rule:nonzero;stroke:none"
       d="m 447.28121,597.15897 c 0,2.2025 1.785,3.9875 3.9875,3.9875 2.2025,0 3.9875,-1.785 3.9875,-3.9875 0,-2.2025 -1.785,-3.9875 -3.9875,-3.9875 -2.2025,0 -3.9875,1.785 -3.9875,3.9875" />
    <path
       id="path1430"
       style="fill:#ffffff;fill-opacity:1;fill-rule:nonzero;stroke:none"
       d="m 133.31621,597.15897 c 0,2.2025 1.785,3.9875 3.9875,3.9875 2.2025,0 3.9875,-1.785 3.9875,-3.9875 0,-2.2025 -1.785,-3.9875 -3.9875,-3.9875 -2.2025,0 -3.9875,1.785 -3.9875,3.9875" />
    <path
       id="path1432"
       style="fill:#ffffff;fill-opacity:1;fill-rule:nonzero;stroke:none"
       d="m 107.15246,597.15897 c 0,2.2025 1.785,3.9875 3.9875,3.9875 2.20125,0 3.9875,-1.785 3.9875,-3.9875 0,-2.2025 -1.78625,-3.9875 -3.9875,-3.9875 -2.2025,0 -3.9875,1.785 -3.9875,3.9875" />
    <path
       id="path1434"
       style="fill:#ffffff;fill-opacity:1;fill-rule:nonzero;stroke:none"
       d="m 107.15246,570.99522 c 0,2.2025 1.785,3.9875 3.9875,3.9875 2.20125,0 3.9875,-1.785 3.9875,-3.9875 0,-2.2025 -1.78625,-3.9875 -3.9875,-3.9875 -2.2025,0 -3.9875,1.785 -3.9875,3.9875" />
    <path
       id="path1436"
       style="fill:#ffffff;fill-opacity:1;fill-rule:nonzero;stroke:none"
       d="m 133.31621,570.99522 c 0,2.2025 1.785,3.9875 3.9875,3.9875 2.2025,0 3.9875,-1.785 3.9875,-3.9875 0,-2.2025 -1.785,-3.9875 -3.9875,-3.9875 -2.2025,0 -3.9875,1.785 -3.9875,3.9875" />
    <path
       id="path1476"
       style="fill:#ffffff;fill-opacity:1;fill-rule:nonzero;stroke:none"
       d="m 231.42871,557.91272 c 0,2.2025 1.785,3.98875 3.9875,3.98875 2.2025,0 3.9875,-1.78625 3.9875,-3.98875 0,-2.20125 -1.785,-3.98625 -3.9875,-3.98625 -2.2025,0 -3.9875,1.785 -3.9875,3.98625" />
    <path
       id="path1488"
       style="fill:#ffffff;fill-opacity:1;fill-rule:nonzero;stroke:none"
       d="m 290.29871,649.48647 c 0,2.2025 1.785,3.9875 3.9875,3.9875 2.2025,0 3.9875,-1.785 3.9875,-3.9875 0,-2.2025 -1.785,-3.9875 -3.9875,-3.9875 -2.2025,0 -3.9875,1.785 -3.9875,3.9875" />
    <path
       id="path1490"
       style="fill:#ffffff;fill-opacity:1;fill-rule:nonzero;stroke:none"
       d="m 349.16496,557.91272 c 0,2.2025 1.78625,3.98875 3.9875,3.98875 2.2025,0 3.9875,-1.78625 3.9875,-3.98875 0,-2.20125 -1.785,-3.98625 -3.9875,-3.98625 -2.20125,0 -3.9875,1.785 -3.9875,3.98625" />
    <path
       id="path1534"
       style="fill:none;stroke:#000000;stroke-width:3.32279968;stroke-linecap:round;stroke-linejoin:round;stroke-miterlimit:10;stroke-opacity:1;stroke-dasharray:none"
       d="m 228.87621,727.97397 130.81875,0" />
    <path
       id="path1536"
       style="fill:none;stroke:#000000;stroke-width:3.32279968;stroke-linecap:round;stroke-linejoin:round;stroke-miterlimit:10;stroke-opacity:1;stroke-dasharray:none"
       d="M 228.87621,727.97397 150.38496,649.48272" />
    <path
       id="path1538"
       style="fill:none;stroke:#000000;stroke-width:3.32279968;stroke-linecap:round;stroke-linejoin:round;stroke-miterlimit:10;stroke-opacity:1;stroke-dasharray:none"
       d="m 359.69496,727.97397 78.49125,-78.49125" />
    <path
       id="path1540"
       style="fill:none;stroke:#000000;stroke-width:3.32279968;stroke-linecap:round;stroke-linejoin:round;stroke-miterlimit:10;stroke-opacity:1;stroke-dasharray:none"
       d="m 150.38496,649.48272 0,-26.16375" />
    <path
       id="path1542"
       style="fill:none;stroke:#000000;stroke-width:3.32279968;stroke-linecap:round;stroke-linejoin:round;stroke-miterlimit:10;stroke-opacity:1;stroke-dasharray:none"
       d="m 438.18621,649.48272 0,-26.16375" />
    <path
       id="path1544"
       style="fill:none;stroke:#000000;stroke-width:3.32279968;stroke-linecap:round;stroke-linejoin:round;stroke-miterlimit:10;stroke-opacity:1;stroke-dasharray:none"
       d="m 150.38496,544.82772 0,-104.65375" />
    <path
       id="path1546"
       style="fill:none;stroke:#000000;stroke-width:3.32279968;stroke-linecap:round;stroke-linejoin:round;stroke-miterlimit:10;stroke-opacity:1;stroke-dasharray:none"
       d="m 438.18621,544.82772 0,-104.65375" />
    <path
       id="path1746"
       style="fill:none;stroke:#000000;stroke-width:1.99367499;stroke-linecap:round;stroke-linejoin:round;stroke-miterlimit:10;stroke-opacity:1;stroke-dasharray:none"
       d="m 287.74621,718.42397 6.64625,0" />
    <path
       id="path1748"
       style="fill:none;stroke:#000000;stroke-width:1.99367499;stroke-linecap:round;stroke-linejoin:round;stroke-miterlimit:10;stroke-opacity:1;stroke-dasharray:none"
       d="m 296.05371,716.76397 -1.66125,1.66" />
    <path
       id="path1750"
       style="fill:none;stroke:#000000;stroke-width:1.99367499;stroke-linecap:round;stroke-linejoin:round;stroke-miterlimit:10;stroke-opacity:1;stroke-dasharray:none"
       d="m 296.05371,713.44022 0,3.32375" />
    <path
       id="path1752"
       style="fill:none;stroke:#000000;stroke-width:1.99367499;stroke-linecap:round;stroke-linejoin:round;stroke-miterlimit:10;stroke-opacity:1;stroke-dasharray:none"
       d="m 296.05371,713.44022 -1.66125,-1.66125" />
    <path
       id="path1754"
       style="fill:none;stroke:#000000;stroke-width:1.99367499;stroke-linecap:round;stroke-linejoin:round;stroke-miterlimit:10;stroke-opacity:1;stroke-dasharray:none"
       d="m 289.40871,711.77897 4.98375,0" />
    <path
       id="path1756"
       style="fill:none;stroke:#000000;stroke-width:1.99367499;stroke-linecap:round;stroke-linejoin:round;stroke-miterlimit:10;stroke-opacity:1;stroke-dasharray:none"
       d="m 289.40871,705.13397 0,13.29" />
    <path
       id="path1758"
       style="fill:none;stroke:#000000;stroke-width:1.99367499;stroke-linecap:round;stroke-linejoin:round;stroke-miterlimit:10;stroke-opacity:1;stroke-dasharray:none"
       d="m 287.74621,705.13397 6.64625,0" />
    <path
       id="path1760"
       style="fill:none;stroke:#000000;stroke-width:1.99367499;stroke-linecap:round;stroke-linejoin:round;stroke-miterlimit:10;stroke-opacity:1;stroke-dasharray:none"
       d="m 296.05371,706.79522 -1.66125,-1.66125" />
    <path
       id="path1762"
       style="fill:none;stroke:#000000;stroke-width:1.99367499;stroke-linecap:round;stroke-linejoin:round;stroke-miterlimit:10;stroke-opacity:1;stroke-dasharray:none"
       d="m 296.05371,706.79522 0,3.3225" />
    <path
       id="path1764"
       style="fill:none;stroke:#000000;stroke-width:1.99367499;stroke-linecap:round;stroke-linejoin:round;stroke-miterlimit:10;stroke-opacity:1;stroke-dasharray:none"
       d="m 296.05371,710.11772 -1.66125,1.66125" />
    <path
       id="path1766"
       style="fill:none;stroke:#000000;stroke-width:1.99367499;stroke-linecap:round;stroke-linejoin:round;stroke-miterlimit:10;stroke-opacity:1;stroke-dasharray:none"
       d="m 301.70496,718.42397 3.32375,0" />
    <path
       id="path1768"
       style="fill:none;stroke:#000000;stroke-width:1.99367499;stroke-linecap:round;stroke-linejoin:round;stroke-miterlimit:10;stroke-opacity:1;stroke-dasharray:none"
       d="m 303.36746,705.13397 0,13.29" />
    <path
       id="path1770"
       style="fill:none;stroke:#000000;stroke-width:1.99367499;stroke-linecap:round;stroke-linejoin:round;stroke-miterlimit:10;stroke-opacity:1;stroke-dasharray:none"
       d="m 303.36746,705.13397 -3.3225,3.3225" />
  </g>
</svg>
