<?xml version="1.0" encoding="UTF-8" standalone="no"?>
<!-- Created with Inkscape (http://www.inkscape.org/) -->

<svg
   xmlns:dc="http://purl.org/dc/elements/1.1/"
   xmlns:cc="http://creativecommons.org/ns#"
   xmlns:rdf="http://www.w3.org/1999/02/22-rdf-syntax-ns#"
   xmlns:svg="http://www.w3.org/2000/svg"
   xmlns="http://www.w3.org/2000/svg"
   xmlns:sodipodi="http://sodipodi.sourceforge.net/DTD/sodipodi-0.dtd"
   xmlns:inkscape="http://www.inkscape.org/namespaces/inkscape"
   width="96.189651mm"
   height="71.42804mm"
   id="svg5625"
   version="1.1"
   inkscape:version="0.92.1 r15371"
   sodipodi:docname="battery_holder.svg">
  <defs
     id="defs5627">
    <inkscape:perspective
       sodipodi:type="inkscape:persp3d"
       inkscape:vp_x="0 : 526.18109 : 1"
       inkscape:vp_y="0 : 1000 : 0"
       inkscape:vp_z="744.09448 : 526.18109 : 1"
       inkscape:persp3d-origin="372.04724 : 350.78739 : 1"
       id="perspective5633" />
    <inkscape:perspective
       id="perspective5532"
       inkscape:persp3d-origin="0.5 : 0.33333333 : 1"
       inkscape:vp_z="1 : 0.5 : 1"
       inkscape:vp_y="0 : 1000 : 0"
       inkscape:vp_x="0 : 0.5 : 1"
       sodipodi:type="inkscape:persp3d" />
  </defs>
  <sodipodi:namedview
     id="base"
     pagecolor="#ffffff"
     bordercolor="#666666"
     borderopacity="1.0"
     inkscape:pageopacity="0.0"
     inkscape:pageshadow="2"
     inkscape:zoom="0.98994949"
     inkscape:cx="-11.024881"
     inkscape:cy="83.757774"
     inkscape:document-units="px"
     inkscape:current-layer="layer1"
     showgrid="false"
     inkscape:window-width="904"
     inkscape:window-height="725"
     inkscape:window-x="4"
     inkscape:window-y="44"
     inkscape:window-maximized="0"
     units="mm"
     fit-margin-top="2"
     fit-margin-bottom="2"
     fit-margin-right="2"
     fit-margin-left="2" />
  <metadata
     id="metadata5630">
    <rdf:RDF>
      <cc:Work
         rdf:about="">
        <dc:format>image/svg+xml</dc:format>
        <dc:type
           rdf:resource="http://purl.org/dc/dcmitype/StillImage" />
        <dc:title></dc:title>
      </cc:Work>
    </rdf:RDF>
  </metadata>
  <g
     inkscape:label="Ebene 1"
     inkscape:groupmode="layer"
     id="layer1"
     transform="translate(-361.02488,-346.15572)">
    <path
       inkscape:connector-curvature="0"
       id="path1098"
       style="fill:#b8b8b8;fill-opacity:1;fill-rule:nonzero;stroke:none;stroke-width:0.13333333"
       d="m 659.41727,451.09928 v 57.6 h 57.59999 v -57.6 z" />
    <path
       inkscape:connector-curvature="0"
       id="path1112"
       style="fill:#b8b8b8;fill-opacity:1;fill-rule:nonzero;stroke:none;stroke-width:0.13333333"
       d="m 368.58394,451.09928 v 57.6 h 57.6 v -57.6 z" />
    <path
       inkscape:connector-curvature="0"
       id="path1160"
       style="fill:#b8b8b8;fill-opacity:1;fill-rule:nonzero;stroke:none;stroke-width:0.13333333"
       d="m 614.79993,479.89928 c 0,-39.764 -32.23466,-72 -71.99999,-72 -39.764,0 -72,32.236 -72,72 0,39.764 32.236,71.99999 72,71.99999 39.76533,0 71.99999,-32.23599 71.99999,-71.99999" />
    <path
       inkscape:connector-curvature="0"
       id="path1184"
       style="fill:#cccccc;fill-opacity:1;fill-rule:nonzero;stroke:none;stroke-width:0.13333333"
       d="m 678.37727,496.90861 c 0,-2.86267 -2.32134,-5.184 -5.184,-5.184 -2.864,0 -5.184,2.32133 -5.184,5.184 0,2.86267 2.32,5.184 5.184,5.184 2.86266,0 5.184,-2.32133 5.184,-5.184" />
    <path
       inkscape:connector-curvature="0"
       id="path1186"
       style="fill:#cccccc;fill-opacity:1;fill-rule:nonzero;stroke:none;stroke-width:0.13333333"
       d="m 701.05327,496.90861 c 0,-2.86267 -2.32,-5.184 -5.184,-5.184 -2.86267,0 -5.18267,2.32133 -5.18267,5.184 0,2.86267 2.32,5.184 5.18267,5.184 2.864,0 5.184,-2.32133 5.184,-5.184" />
    <path
       inkscape:connector-curvature="0"
       id="path1188"
       style="fill:#cccccc;fill-opacity:1;fill-rule:nonzero;stroke:none;stroke-width:0.13333333"
       d="m 689.7146,485.56994 c 0,-2.86266 -2.32,-5.184 -5.18267,-5.184 -2.864,0 -5.184,2.32134 -5.184,5.184 0,2.86267 2.32,5.184 5.184,5.184 2.86267,0 5.18267,-2.32133 5.18267,-5.184" />
    <path
       inkscape:connector-curvature="0"
       id="path1190"
       style="fill:#cccccc;fill-opacity:1;fill-rule:nonzero;stroke:none;stroke-width:0.13333333"
       d="m 604.67727,479.89928 c 0,-2.86267 -2.32134,-5.184 -5.184,-5.184 -2.86267,0 -5.184,2.32133 -5.184,5.184 0,2.86266 2.32133,5.184 5.184,5.184 2.86266,0 5.184,-2.32134 5.184,-5.184" />
    <path
       inkscape:connector-curvature="0"
       id="path1192"
       style="fill:#cccccc;fill-opacity:1;fill-rule:nonzero;stroke:none;stroke-width:0.13333333"
       d="m 491.29194,479.89928 c 0,-2.86267 -2.32134,-5.184 -5.184,-5.184 -2.86267,0 -5.184,2.32133 -5.184,5.184 0,2.86266 2.32133,5.184 5.184,5.184 2.86266,0 5.184,-2.32134 5.184,-5.184" />
    <path
       inkscape:connector-curvature="0"
       id="path1194"
       style="fill:#cccccc;fill-opacity:1;fill-rule:nonzero;stroke:none;stroke-width:0.13333333"
       d="m 712.39193,485.56994 c 0,-2.86266 -2.32,-5.184 -5.184,-5.184 -2.86267,0 -5.184,2.32134 -5.184,5.184 0,2.86267 2.32133,5.184 5.184,5.184 2.864,0 5.184,-2.32133 5.184,-5.184" />
    <path
       inkscape:connector-curvature="0"
       id="path1196"
       style="fill:#cccccc;fill-opacity:1;fill-rule:nonzero;stroke:none;stroke-width:0.13333333"
       d="m 701.05327,474.23128 c 0,-2.86267 -2.32,-5.184 -5.184,-5.184 -2.86267,0 -5.18267,2.32133 -5.18267,5.184 0,2.86266 2.32,5.184 5.18267,5.184 2.864,0 5.184,-2.32134 5.184,-5.184" />
    <path
       inkscape:connector-curvature="0"
       id="path1198"
       style="fill:#cccccc;fill-opacity:1;fill-rule:nonzero;stroke:none;stroke-width:0.13333333"
       d="m 678.37727,474.23128 c 0,-2.86267 -2.32134,-5.184 -5.184,-5.184 -2.864,0 -5.184,2.32133 -5.184,5.184 0,2.86266 2.32,5.184 5.184,5.184 2.86266,0 5.184,-2.32134 5.184,-5.184" />
    <path
       inkscape:connector-curvature="0"
       id="path1200"
       style="fill:#cccccc;fill-opacity:1;fill-rule:nonzero;stroke:none;stroke-width:0.13333333"
       d="m 689.7146,462.89261 c 0,-2.86267 -2.32,-5.184 -5.18267,-5.184 -2.864,0 -5.184,2.32133 -5.184,5.184 0,2.864 2.32,5.184 5.184,5.184 2.86267,0 5.18267,-2.32 5.18267,-5.184" />
    <path
       inkscape:connector-curvature="0"
       id="path1202"
       style="fill:#cccccc;fill-opacity:1;fill-rule:nonzero;stroke:none;stroke-width:0.13333333"
       d="m 712.39193,462.89261 c 0,-2.86267 -2.32,-5.184 -5.184,-5.184 -2.86267,0 -5.184,2.32133 -5.184,5.184 0,2.864 2.32133,5.184 5.184,5.184 2.864,0 5.184,-2.32 5.184,-5.184" />
    <path
       inkscape:connector-curvature="0"
       id="path1210"
       style="fill:#cccccc;fill-opacity:1;fill-rule:nonzero;stroke:none;stroke-width:0.13333333"
       d="m 547.98527,479.89928 c 0,-2.86267 -2.32133,-5.184 -5.18533,-5.184 -2.86267,0 -5.18267,2.32133 -5.18267,5.184 0,2.86266 2.32,5.184 5.18267,5.184 2.864,0 5.18533,-2.32134 5.18533,-5.184" />
    <path
       inkscape:connector-curvature="0"
       id="path1212"
       style="fill:#cccccc;fill-opacity:1;fill-rule:nonzero;stroke:none;stroke-width:0.13333333"
       d="m 547.98527,536.59261 c 0,-2.864 -2.32133,-5.184 -5.18533,-5.184 -2.86267,0 -5.18267,2.32 -5.18267,5.184 0,2.86266 2.32,5.18266 5.18267,5.18266 2.864,0 5.18533,-2.32 5.18533,-5.18266" />
    <path
       inkscape:connector-curvature="0"
       id="path1214"
       style="fill:#cccccc;fill-opacity:1;fill-rule:nonzero;stroke:none;stroke-width:0.13333333"
       d="m 547.98527,423.20594 c 0,-2.86266 -2.32133,-5.184 -5.18533,-5.184 -2.86267,0 -5.18267,2.32134 -5.18267,5.184 0,2.864 2.32,5.184 5.18267,5.184 2.864,0 5.18533,-2.32 5.18533,-5.184" />
    <path
       inkscape:connector-curvature="0"
       id="path1288"
       style="fill:#cccccc;fill-opacity:1;fill-rule:nonzero;stroke:none;stroke-width:0.13333333"
       d="m 383.57461,462.89261 c 0,-2.86267 -2.32133,-5.184 -5.184,-5.184 -2.864,0 -5.184,2.32133 -5.184,5.184 0,2.864 2.32,5.184 5.184,5.184 2.86267,0 5.184,-2.32 5.184,-5.184" />
    <path
       inkscape:connector-curvature="0"
       id="path1290"
       style="fill:#cccccc;fill-opacity:1;fill-rule:nonzero;stroke:none;stroke-width:0.13333333"
       d="m 394.91194,474.23128 c 0,-2.86267 -2.32,-5.184 -5.18266,-5.184 -2.864,0 -5.184,2.32133 -5.184,5.184 0,2.86266 2.32,5.184 5.184,5.184 2.86266,0 5.18266,-2.32134 5.18266,-5.184" />
    <path
       inkscape:connector-curvature="0"
       id="path1292"
       style="fill:#cccccc;fill-opacity:1;fill-rule:nonzero;stroke:none;stroke-width:0.13333333"
       d="m 383.57461,485.56994 c 0,-2.86266 -2.32133,-5.184 -5.184,-5.184 -2.864,0 -5.184,2.32134 -5.184,5.184 0,2.86267 2.32,5.184 5.184,5.184 2.86267,0 5.184,-2.32133 5.184,-5.184" />
    <path
       inkscape:connector-curvature="0"
       id="path1294"
       style="fill:#cccccc;fill-opacity:1;fill-rule:nonzero;stroke:none;stroke-width:0.13333333"
       d="m 394.91194,496.90861 c 0,-2.86267 -2.32,-5.184 -5.18266,-5.184 -2.864,0 -5.184,2.32133 -5.184,5.184 0,2.86267 2.32,5.184 5.184,5.184 2.86266,0 5.18266,-2.32133 5.18266,-5.184" />
    <path
       inkscape:connector-curvature="0"
       id="path1296"
       style="fill:#cccccc;fill-opacity:1;fill-rule:nonzero;stroke:none;stroke-width:0.13333333"
       d="m 417.58928,496.90861 c 0,-2.86267 -2.32,-5.184 -5.184,-5.184 -2.86267,0 -5.18267,2.32133 -5.18267,5.184 0,2.86267 2.32,5.184 5.18267,5.184 2.864,0 5.184,-2.32133 5.184,-5.184" />
    <path
       inkscape:connector-curvature="0"
       id="path1298"
       style="fill:#cccccc;fill-opacity:1;fill-rule:nonzero;stroke:none;stroke-width:0.13333333"
       d="m 406.25061,485.56994 c 0,-2.86266 -2.32,-5.184 -5.184,-5.184 -2.86267,0 -5.18267,2.32134 -5.18267,5.184 0,2.86267 2.32,5.184 5.18267,5.184 2.864,0 5.184,-2.32133 5.184,-5.184" />
    <path
       inkscape:connector-curvature="0"
       id="path1300"
       style="fill:#cccccc;fill-opacity:1;fill-rule:nonzero;stroke:none;stroke-width:0.13333333"
       d="m 406.25061,462.89261 c 0,-2.86267 -2.32,-5.184 -5.184,-5.184 -2.86267,0 -5.18267,2.32133 -5.18267,5.184 0,2.864 2.32,5.184 5.18267,5.184 2.864,0 5.184,-2.32 5.184,-5.184" />
    <path
       inkscape:connector-curvature="0"
       id="path1302"
       style="fill:#cccccc;fill-opacity:1;fill-rule:nonzero;stroke:none;stroke-width:0.13333333"
       d="m 417.58928,474.23128 c 0,-2.86267 -2.32,-5.184 -5.184,-5.184 -2.86267,0 -5.18267,2.32133 -5.18267,5.184 0,2.86266 2.32,5.184 5.18267,5.184 2.864,0 5.184,-2.32134 5.184,-5.184" />
    <path
       inkscape:connector-curvature="0"
       id="path1440"
       style="fill:#ffffff;fill-opacity:1;fill-rule:nonzero;stroke:none;stroke-width:0.13333333"
       d="m 675.78527,496.90861 c 0,-1.43067 -1.16134,-2.592 -2.592,-2.592 -1.432,0 -2.59334,1.16133 -2.59334,2.592 0,1.43067 1.16134,2.592 2.59334,2.592 1.43066,0 2.592,-1.16133 2.592,-2.592" />
    <path
       inkscape:connector-curvature="0"
       id="path1442"
       style="fill:#ffffff;fill-opacity:1;fill-rule:nonzero;stroke:none;stroke-width:0.13333333"
       d="m 698.4626,496.90861 c 0,-1.43067 -1.16133,-2.592 -2.59333,-2.592 -1.43067,0 -2.592,1.16133 -2.592,2.592 0,1.43067 1.16133,2.592 2.592,2.592 1.432,0 2.59333,-1.16133 2.59333,-2.592" />
    <path
       inkscape:connector-curvature="0"
       id="path1444"
       style="fill:#ffffff;fill-opacity:1;fill-rule:nonzero;stroke:none;stroke-width:0.13333333"
       d="m 687.12393,485.56994 c 0,-1.43066 -1.16133,-2.592 -2.592,-2.592 -1.432,0 -2.59333,1.16134 -2.59333,2.592 0,1.432 1.16133,2.592 2.59333,2.592 1.43067,0 2.592,-1.16 2.592,-2.592" />
    <path
       inkscape:connector-curvature="0"
       id="path1446"
       style="fill:#ffffff;fill-opacity:1;fill-rule:nonzero;stroke:none;stroke-width:0.13333333"
       d="m 602.08527,479.89928 c 0,-1.43067 -1.16134,-2.592 -2.592,-2.592 -1.43067,0 -2.592,1.16133 -2.592,2.592 0,1.43066 1.16133,2.592 2.592,2.592 1.43066,0 2.592,-1.16134 2.592,-2.592" />
    <path
       inkscape:connector-curvature="0"
       id="path1448"
       style="fill:#ffffff;fill-opacity:1;fill-rule:nonzero;stroke:none;stroke-width:0.13333333"
       d="m 488.69994,479.89928 c 0,-1.43067 -1.16134,-2.592 -2.592,-2.592 -1.43067,0 -2.592,1.16133 -2.592,2.592 0,1.43066 1.16133,2.592 2.592,2.592 1.43066,0 2.592,-1.16134 2.592,-2.592" />
    <path
       inkscape:connector-curvature="0"
       id="path1450"
       style="fill:#ffffff;fill-opacity:1;fill-rule:nonzero;stroke:none;stroke-width:0.13333333"
       d="m 709.79993,485.56994 c 0,-1.43066 -1.16,-2.592 -2.592,-2.592 -1.43067,0 -2.592,1.16134 -2.592,2.592 0,1.432 1.16133,2.592 2.592,2.592 1.432,0 2.592,-1.16 2.592,-2.592" />
    <path
       inkscape:connector-curvature="0"
       id="path1452"
       style="fill:#ffffff;fill-opacity:1;fill-rule:nonzero;stroke:none;stroke-width:0.13333333"
       d="m 698.4626,474.23128 c 0,-1.43067 -1.16133,-2.592 -2.59333,-2.592 -1.43067,0 -2.592,1.16133 -2.592,2.592 0,1.432 1.16133,2.592 2.592,2.592 1.432,0 2.59333,-1.16 2.59333,-2.592" />
    <path
       inkscape:connector-curvature="0"
       id="path1454"
       style="fill:#ffffff;fill-opacity:1;fill-rule:nonzero;stroke:none;stroke-width:0.13333333"
       d="m 675.78527,474.23128 c 0,-1.43067 -1.16134,-2.592 -2.592,-2.592 -1.432,0 -2.59334,1.16133 -2.59334,2.592 0,1.432 1.16134,2.592 2.59334,2.592 1.43066,0 2.592,-1.16 2.592,-2.592" />
    <path
       inkscape:connector-curvature="0"
       id="path1456"
       style="fill:#ffffff;fill-opacity:1;fill-rule:nonzero;stroke:none;stroke-width:0.13333333"
       d="m 687.12393,462.89261 c 0,-1.43067 -1.16133,-2.592 -2.592,-2.592 -1.432,0 -2.59333,1.16133 -2.59333,2.592 0,1.432 1.16133,2.592 2.59333,2.592 1.43067,0 2.592,-1.16 2.592,-2.592" />
    <path
       inkscape:connector-curvature="0"
       id="path1458"
       style="fill:#ffffff;fill-opacity:1;fill-rule:nonzero;stroke:none;stroke-width:0.13333333"
       d="m 709.79993,462.89261 c 0,-1.43067 -1.16,-2.592 -2.592,-2.592 -1.43067,0 -2.592,1.16133 -2.592,2.592 0,1.432 1.16133,2.592 2.592,2.592 1.432,0 2.592,-1.16 2.592,-2.592" />
    <path
       inkscape:connector-curvature="0"
       id="path1466"
       style="fill:#ffffff;fill-opacity:1;fill-rule:nonzero;stroke:none;stroke-width:0.13333333"
       d="m 545.39327,479.89928 c 0,-1.43067 -1.16133,-2.592 -2.59333,-2.592 -1.43067,0 -2.59067,1.16133 -2.59067,2.592 0,1.43066 1.16,2.592 2.59067,2.592 1.432,0 2.59333,-1.16134 2.59333,-2.592" />
    <path
       inkscape:connector-curvature="0"
       id="path1468"
       style="fill:#ffffff;fill-opacity:1;fill-rule:nonzero;stroke:none;stroke-width:0.13333333"
       d="m 545.39327,536.59261 c 0,-1.432 -1.16133,-2.59334 -2.59333,-2.59334 -1.43067,0 -2.59067,1.16134 -2.59067,2.59334 0,1.43066 1.16,2.592 2.59067,2.592 1.432,0 2.59333,-1.16134 2.59333,-2.592" />
    <path
       inkscape:connector-curvature="0"
       id="path1470"
       style="fill:#ffffff;fill-opacity:1;fill-rule:nonzero;stroke:none;stroke-width:0.13333333"
       d="m 545.39327,423.20594 c 0,-1.43066 -1.16133,-2.592 -2.59333,-2.592 -1.43067,0 -2.59067,1.16134 -2.59067,2.592 0,1.432 1.16,2.592 2.59067,2.592 1.432,0 2.59333,-1.16 2.59333,-2.592" />
    <path
       inkscape:connector-curvature="0"
       id="path1548"
       style="fill:#ffffff;fill-opacity:1;fill-rule:nonzero;stroke:none;stroke-width:0.13333333"
       d="m 380.98261,462.89261 c 0,-1.43067 -1.16133,-2.592 -2.592,-2.592 -1.432,0 -2.592,1.16133 -2.592,2.592 0,1.432 1.16,2.592 2.592,2.592 1.43067,0 2.592,-1.16 2.592,-2.592" />
    <path
       inkscape:connector-curvature="0"
       id="path1550"
       style="fill:#ffffff;fill-opacity:1;fill-rule:nonzero;stroke:none;stroke-width:0.13333333"
       d="m 392.32128,474.23128 c 0,-1.43067 -1.16134,-2.592 -2.592,-2.592 -1.432,0 -2.59334,1.16133 -2.59334,2.592 0,1.432 1.16134,2.592 2.59334,2.592 1.43066,0 2.592,-1.16 2.592,-2.592" />
    <path
       inkscape:connector-curvature="0"
       id="path1552"
       style="fill:#ffffff;fill-opacity:1;fill-rule:nonzero;stroke:none;stroke-width:0.13333333"
       d="m 380.98261,485.56994 c 0,-1.43066 -1.16133,-2.592 -2.592,-2.592 -1.432,0 -2.592,1.16134 -2.592,2.592 0,1.432 1.16,2.592 2.592,2.592 1.43067,0 2.592,-1.16 2.592,-2.592" />
    <path
       inkscape:connector-curvature="0"
       id="path1554"
       style="fill:#ffffff;fill-opacity:1;fill-rule:nonzero;stroke:none;stroke-width:0.13333333"
       d="m 392.32128,496.90861 c 0,-1.43067 -1.16134,-2.592 -2.592,-2.592 -1.432,0 -2.59334,1.16133 -2.59334,2.592 0,1.43067 1.16134,2.592 2.59334,2.592 1.43066,0 2.592,-1.16133 2.592,-2.592" />
    <path
       inkscape:connector-curvature="0"
       id="path1556"
       style="fill:#ffffff;fill-opacity:1;fill-rule:nonzero;stroke:none;stroke-width:0.13333333"
       d="m 414.99861,496.90861 c 0,-1.43067 -1.16133,-2.592 -2.59333,-2.592 -1.43067,0 -2.592,1.16133 -2.592,2.592 0,1.43067 1.16133,2.592 2.592,2.592 1.432,0 2.59333,-1.16133 2.59333,-2.592" />
    <path
       inkscape:connector-curvature="0"
       id="path1558"
       style="fill:#ffffff;fill-opacity:1;fill-rule:nonzero;stroke:none;stroke-width:0.13333333"
       d="m 403.65994,485.56994 c 0,-1.43066 -1.16133,-2.592 -2.59333,-2.592 -1.43067,0 -2.592,1.16134 -2.592,2.592 0,1.432 1.16133,2.592 2.592,2.592 1.432,0 2.59333,-1.16 2.59333,-2.592" />
    <path
       inkscape:connector-curvature="0"
       id="path1560"
       style="fill:#ffffff;fill-opacity:1;fill-rule:nonzero;stroke:none;stroke-width:0.13333333"
       d="m 403.65994,462.89261 c 0,-1.43067 -1.16133,-2.592 -2.59333,-2.592 -1.43067,0 -2.592,1.16133 -2.592,2.592 0,1.432 1.16133,2.592 2.592,2.592 1.432,0 2.59333,-1.16 2.59333,-2.592" />
    <path
       inkscape:connector-curvature="0"
       id="path1562"
       style="fill:#ffffff;fill-opacity:1;fill-rule:nonzero;stroke:none;stroke-width:0.13333333"
       d="m 414.99861,474.23128 c 0,-1.43067 -1.16133,-2.592 -2.59333,-2.592 -1.43067,0 -2.592,1.16133 -2.592,2.592 0,1.432 1.16133,2.592 2.592,2.592 1.432,0 2.59333,-1.16 2.59333,-2.592" />
    <path
       inkscape:connector-curvature="0"
       id="path1718"
       style="fill:none;stroke:#000000;stroke-width:2.88000011;stroke-linecap:round;stroke-linejoin:round;stroke-miterlimit:10;stroke-dasharray:none;stroke-opacity:1"
       d="m 667.52527,355.17528 v 90.708" />
    <path
       inkscape:connector-curvature="0"
       id="path1720"
       style="fill:none;stroke:#000000;stroke-width:2.88000011;stroke-linecap:round;stroke-linejoin:round;stroke-miterlimit:10;stroke-dasharray:none;stroke-opacity:1"
       d="m 418.07728,355.17528 v 90.708" />
    <path
       inkscape:connector-curvature="0"
       id="path1722"
       style="fill:none;stroke:#000000;stroke-width:2.88000011;stroke-linecap:round;stroke-linejoin:round;stroke-miterlimit:10;stroke-dasharray:none;stroke-opacity:1"
       d="m 667.52527,513.91528 v 22.67733" />
    <path
       inkscape:connector-curvature="0"
       id="path1724"
       style="fill:none;stroke:#000000;stroke-width:2.88000011;stroke-linecap:round;stroke-linejoin:round;stroke-miterlimit:10;stroke-dasharray:none;stroke-opacity:1"
       d="m 418.07728,513.91528 v 22.67733" />
    <path
       inkscape:connector-curvature="0"
       id="path1726"
       style="fill:none;stroke:#000000;stroke-width:2.88000011;stroke-linecap:round;stroke-linejoin:round;stroke-miterlimit:10;stroke-dasharray:none;stroke-opacity:1"
       d="m 599.49327,604.62327 68.032,-68.03066" />
    <path
       inkscape:connector-curvature="0"
       id="path1728"
       style="fill:none;stroke:#000000;stroke-width:2.88000011;stroke-linecap:round;stroke-linejoin:round;stroke-miterlimit:10;stroke-dasharray:none;stroke-opacity:1"
       d="M 486.10794,604.62327 418.07728,536.59261" />
    <path
       inkscape:connector-curvature="0"
       id="path1730"
       style="fill:none;stroke:#000000;stroke-width:2.88000011;stroke-linecap:round;stroke-linejoin:round;stroke-miterlimit:10;stroke-dasharray:none;stroke-opacity:1"
       d="M 599.49327,604.62327 H 486.10794" />
    <path
       inkscape:connector-curvature="0"
       id="path1766"
       style="fill:none;stroke:#000000;stroke-width:1.72799993;stroke-linecap:round;stroke-linejoin:round;stroke-miterlimit:10;stroke-dasharray:none;stroke-opacity:1"
       d="m 622.2626,607.68461 h -5.76" />
    <path
       inkscape:connector-curvature="0"
       id="path1768"
       style="fill:none;stroke:#000000;stroke-width:1.72799993;stroke-linecap:round;stroke-linejoin:round;stroke-miterlimit:10;stroke-dasharray:none;stroke-opacity:1"
       d="m 623.7026,606.24461 -1.44,1.44" />
    <path
       inkscape:connector-curvature="0"
       id="path1770"
       style="fill:none;stroke:#000000;stroke-width:1.72799993;stroke-linecap:round;stroke-linejoin:round;stroke-miterlimit:10;stroke-dasharray:none;stroke-opacity:1"
       d="m 623.7026,606.24461 v -2.88" />
    <path
       inkscape:connector-curvature="0"
       id="path1772"
       style="fill:none;stroke:#000000;stroke-width:1.72799993;stroke-linecap:round;stroke-linejoin:round;stroke-miterlimit:10;stroke-dasharray:none;stroke-opacity:1"
       d="m 623.7026,603.36461 -1.44,-1.44" />
    <path
       inkscape:connector-curvature="0"
       id="path1774"
       style="fill:none;stroke:#000000;stroke-width:1.72799993;stroke-linecap:round;stroke-linejoin:round;stroke-miterlimit:10;stroke-dasharray:none;stroke-opacity:1"
       d="m 622.2626,601.92461 h -4.32" />
    <path
       inkscape:connector-curvature="0"
       id="path1776"
       style="fill:none;stroke:#000000;stroke-width:1.72799993;stroke-linecap:round;stroke-linejoin:round;stroke-miterlimit:10;stroke-dasharray:none;stroke-opacity:1"
       d="m 617.9426,607.68461 v -11.52" />
    <path
       inkscape:connector-curvature="0"
       id="path1778"
       style="fill:none;stroke:#000000;stroke-width:1.72799993;stroke-linecap:round;stroke-linejoin:round;stroke-miterlimit:10;stroke-dasharray:none;stroke-opacity:1"
       d="m 622.2626,596.16461 h -5.76" />
    <path
       inkscape:connector-curvature="0"
       id="path1780"
       style="fill:none;stroke:#000000;stroke-width:1.72799993;stroke-linecap:round;stroke-linejoin:round;stroke-miterlimit:10;stroke-dasharray:none;stroke-opacity:1"
       d="m 623.7026,597.60461 -1.44,-1.44" />
    <path
       inkscape:connector-curvature="0"
       id="path1782"
       style="fill:none;stroke:#000000;stroke-width:1.72799993;stroke-linecap:round;stroke-linejoin:round;stroke-miterlimit:10;stroke-dasharray:none;stroke-opacity:1"
       d="m 623.7026,600.48461 v -2.88" />
    <path
       inkscape:connector-curvature="0"
       id="path1784"
       style="fill:none;stroke:#000000;stroke-width:1.72799993;stroke-linecap:round;stroke-linejoin:round;stroke-miterlimit:10;stroke-dasharray:none;stroke-opacity:1"
       d="m 623.7026,600.48461 -1.44,1.44" />
    <path
       inkscape:connector-curvature="0"
       id="path1786"
       style="fill:none;stroke:#000000;stroke-width:1.72799993;stroke-linecap:round;stroke-linejoin:round;stroke-miterlimit:10;stroke-dasharray:none;stroke-opacity:1"
       d="m 631.4786,607.68461 h -2.88" />
    <path
       inkscape:connector-curvature="0"
       id="path1788"
       style="fill:none;stroke:#000000;stroke-width:1.72799993;stroke-linecap:round;stroke-linejoin:round;stroke-miterlimit:10;stroke-dasharray:none;stroke-opacity:1"
       d="m 630.0386,607.68461 v -11.52" />
    <path
       inkscape:connector-curvature="0"
       id="path1790"
       style="fill:none;stroke:#000000;stroke-width:1.72799993;stroke-linecap:round;stroke-linejoin:round;stroke-miterlimit:10;stroke-dasharray:none;stroke-opacity:1"
       d="m 630.0386,596.16461 -2.88,2.88" />
  </g>
</svg>
