<?xml version="1.0" encoding="UTF-8" standalone="no"?>
<!-- Created with Inkscape (http://www.inkscape.org/) -->

<svg
   xmlns:dc="http://purl.org/dc/elements/1.1/"
   xmlns:cc="http://creativecommons.org/ns#"
   xmlns:rdf="http://www.w3.org/1999/02/22-rdf-syntax-ns#"
   xmlns:svg="http://www.w3.org/2000/svg"
   xmlns="http://www.w3.org/2000/svg"
   xmlns:sodipodi="http://sodipodi.sourceforge.net/DTD/sodipodi-0.dtd"
   xmlns:inkscape="http://www.inkscape.org/namespaces/inkscape"
   id="svg2"
   version="1.1"
   inkscape:version="0.92.1 r15371"
   width="31.0812mm"
   height="41.348854mm"
   xml:space="preserve"
   sodipodi:docname="switch.svg"><metadata
     id="metadata8"><rdf:RDF><cc:Work
         rdf:about=""><dc:format>image/svg+xml</dc:format><dc:type
           rdf:resource="http://purl.org/dc/dcmitype/StillImage" /><dc:title></dc:title></cc:Work></rdf:RDF></metadata><defs
     id="defs6"><inkscape:perspective
       sodipodi:type="inkscape:persp3d"
       inkscape:vp_x="0 : 0.5 : 1"
       inkscape:vp_y="0 : 1000 : 0"
       inkscape:vp_z="1 : 0.5 : 1"
       inkscape:persp3d-origin="0.5 : 0.33333333 : 1"
       id="perspective10" /></defs><sodipodi:namedview
     pagecolor="#ffffff"
     bordercolor="#666666"
     borderopacity="1"
     objecttolerance="10"
     gridtolerance="10"
     guidetolerance="10"
     inkscape:pageopacity="0"
     inkscape:pageshadow="2"
     inkscape:window-width="1319"
     inkscape:window-height="826"
     id="namedview4"
     showgrid="false"
     inkscape:zoom="2.5368505"
     inkscape:cx="26.18454"
     inkscape:cy="55.013757"
     inkscape:window-x="0"
     inkscape:window-y="24"
     inkscape:window-maximized="0"
     inkscape:current-layer="g12"
     units="mm"
     fit-margin-top="2"
     fit-margin-bottom="2"
     fit-margin-right="2"
     fit-margin-left="2" /><g
     id="g12"
     inkscape:groupmode="layer"
     inkscape:label="bulb.pcb"
     transform="matrix(1.25,0,0,-1.25,-309.47964,621.06245)"><path
       inkscape:connector-curvature="0"
       id="path1108"
       style="fill:none;stroke:#b8b8b8;stroke-width:10.25049496;stroke-linecap:square;stroke-linejoin:bevel;stroke-miterlimit:10;stroke-dasharray:none;stroke-opacity:1"
       d="M 275.02869,401.23005 V 390.20711" /><path
       inkscape:connector-curvature="0"
       id="path1110"
       style="fill:none;stroke:#b8b8b8;stroke-width:10.25049496;stroke-linecap:square;stroke-linejoin:bevel;stroke-miterlimit:10;stroke-dasharray:none;stroke-opacity:1"
       d="M 275.02869,478.46951 V 467.44658" /><path
       inkscape:connector-curvature="0"
       id="path1114"
       style="fill:none;stroke:#b8b8b8;stroke-width:10.25049496;stroke-linecap:square;stroke-linejoin:bevel;stroke-miterlimit:10;stroke-dasharray:none;stroke-opacity:1"
       d="M 298.06869,401.23005 V 390.20711" /><path
       inkscape:connector-curvature="0"
       id="path1116"
       style="fill:none;stroke:#b8b8b8;stroke-width:10.25049496;stroke-linecap:square;stroke-linejoin:bevel;stroke-miterlimit:10;stroke-dasharray:none;stroke-opacity:1"
       d="M 298.06869,478.46951 V 467.44658" /><path
       inkscape:connector-curvature="0"
       id="path1278"
       style="fill:#cccccc;fill-opacity:1;fill-rule:nonzero;stroke:none;stroke-width:0.10666666"
       d="m 302.03349,477.42525 c 0,2.29013 -1.856,4.1472 -4.14613,4.1472 -2.2912,0 -4.1472,-1.85707 -4.1472,-4.1472 0,-2.29014 1.856,-4.1472 4.1472,-4.1472 2.29013,0 4.14613,1.85706 4.14613,4.1472" /><path
       inkscape:connector-curvature="0"
       id="path1280"
       style="fill:#cccccc;fill-opacity:1;fill-rule:nonzero;stroke:none;stroke-width:0.10666666"
       d="m 279.35829,468.35431 c 0,2.29014 -1.85706,4.1472 -4.1472,4.1472 -2.29013,0 -4.1472,-1.85706 -4.1472,-4.1472 0,-2.29013 1.85707,-4.1472 4.1472,-4.1472 2.29014,0 4.1472,1.85707 4.1472,4.1472" /><path
       inkscape:connector-curvature="0"
       id="path1282"
       style="fill:#cccccc;fill-opacity:1;fill-rule:nonzero;stroke:none;stroke-width:0.10666666"
       d="m 279.35829,477.42525 c 0,2.29013 -1.85706,4.1472 -4.1472,4.1472 -2.29013,0 -4.1472,-1.85707 -4.1472,-4.1472 0,-2.29014 1.85707,-4.1472 4.1472,-4.1472 2.29014,0 4.1472,1.85706 4.1472,4.1472" /><path
       inkscape:connector-curvature="0"
       id="path1284"
       style="fill:#cccccc;fill-opacity:1;fill-rule:nonzero;stroke:none;stroke-width:0.10666666"
       d="m 279.35829,400.32445 c 0,2.29013 -1.85706,4.1472 -4.1472,4.1472 -2.29013,0 -4.1472,-1.85707 -4.1472,-4.1472 0,-2.29014 1.85707,-4.1472 4.1472,-4.1472 2.29014,0 4.1472,1.85706 4.1472,4.1472" /><path
       inkscape:connector-curvature="0"
       id="path1286"
       style="fill:#cccccc;fill-opacity:1;fill-rule:nonzero;stroke:none;stroke-width:0.10666666"
       d="m 279.35829,391.25351 c 0,2.29014 -1.85706,4.1472 -4.1472,4.1472 -2.29013,0 -4.1472,-1.85706 -4.1472,-4.1472 0,-2.29013 1.85707,-4.1472 4.1472,-4.1472 2.29014,0 4.1472,1.85707 4.1472,4.1472" /><path
       inkscape:connector-curvature="0"
       id="path1304"
       style="fill:#cccccc;fill-opacity:1;fill-rule:nonzero;stroke:none;stroke-width:0.10666666"
       d="m 302.03349,468.35431 c 0,2.29014 -1.856,4.1472 -4.14613,4.1472 -2.2912,0 -4.1472,-1.85706 -4.1472,-4.1472 0,-2.29013 1.856,-4.1472 4.1472,-4.1472 2.29013,0 4.14613,1.85707 4.14613,4.1472" /><path
       inkscape:connector-curvature="0"
       id="path1306"
       style="fill:#cccccc;fill-opacity:1;fill-rule:nonzero;stroke:none;stroke-width:0.10666666"
       d="m 302.03349,391.25351 c 0,2.29014 -1.856,4.1472 -4.14613,4.1472 -2.2912,0 -4.1472,-1.85706 -4.1472,-4.1472 0,-2.29013 1.856,-4.1472 4.1472,-4.1472 2.29013,0 4.14613,1.85707 4.14613,4.1472" /><path
       inkscape:connector-curvature="0"
       id="path1308"
       style="fill:#cccccc;fill-opacity:1;fill-rule:nonzero;stroke:none;stroke-width:0.10666666"
       d="m 302.03349,400.32445 c 0,2.29013 -1.856,4.1472 -4.14613,4.1472 -2.2912,0 -4.1472,-1.85707 -4.1472,-4.1472 0,-2.29014 1.856,-4.1472 4.1472,-4.1472 2.29013,0 4.14613,1.85706 4.14613,4.1472" /><path
       inkscape:connector-curvature="0"
       id="path1538"
       style="fill:#ffffff;fill-opacity:1;fill-rule:nonzero;stroke:none;stroke-width:0.10666666"
       d="m 299.96096,477.42525 c 0,1.1456 -0.92907,2.0736 -2.0736,2.0736 -1.1456,0 -2.07467,-0.928 -2.07467,-2.0736 0,-1.14454 0.92907,-2.0736 2.07467,-2.0736 1.14453,0 2.0736,0.92906 2.0736,2.0736" /><path
       inkscape:connector-curvature="0"
       id="path1540"
       style="fill:#ffffff;fill-opacity:1;fill-rule:nonzero;stroke:none;stroke-width:0.10666666"
       d="m 277.28469,468.35431 c 0,1.1456 -0.92906,2.0736 -2.0736,2.0736 -1.14453,0 -2.0736,-0.928 -2.0736,-2.0736 0,-1.14453 0.92907,-2.0736 2.0736,-2.0736 1.14454,0 2.0736,0.92907 2.0736,2.0736" /><path
       inkscape:connector-curvature="0"
       id="path1542"
       style="fill:#ffffff;fill-opacity:1;fill-rule:nonzero;stroke:none;stroke-width:0.10666666"
       d="m 277.28469,477.42525 c 0,1.1456 -0.92906,2.0736 -2.0736,2.0736 -1.14453,0 -2.0736,-0.928 -2.0736,-2.0736 0,-1.14454 0.92907,-2.0736 2.0736,-2.0736 1.14454,0 2.0736,0.92906 2.0736,2.0736" /><path
       inkscape:connector-curvature="0"
       id="path1544"
       style="fill:#ffffff;fill-opacity:1;fill-rule:nonzero;stroke:none;stroke-width:0.10666666"
       d="m 277.28469,400.32445 c 0,1.1456 -0.92906,2.0736 -2.0736,2.0736 -1.14453,0 -2.0736,-0.928 -2.0736,-2.0736 0,-1.14454 0.92907,-2.0736 2.0736,-2.0736 1.14454,0 2.0736,0.92906 2.0736,2.0736" /><path
       inkscape:connector-curvature="0"
       id="path1546"
       style="fill:#ffffff;fill-opacity:1;fill-rule:nonzero;stroke:none;stroke-width:0.10666666"
       d="m 277.28469,391.25351 c 0,1.1456 -0.92906,2.0736 -2.0736,2.0736 -1.14453,0 -2.0736,-0.928 -2.0736,-2.0736 0,-1.14453 0.92907,-2.0736 2.0736,-2.0736 1.14454,0 2.0736,0.92907 2.0736,2.0736" /><path
       inkscape:connector-curvature="0"
       id="path1564"
       style="fill:#ffffff;fill-opacity:1;fill-rule:nonzero;stroke:none;stroke-width:0.10666666"
       d="m 299.96096,468.35431 c 0,1.1456 -0.92907,2.0736 -2.0736,2.0736 -1.1456,0 -2.07467,-0.928 -2.07467,-2.0736 0,-1.14453 0.92907,-2.0736 2.07467,-2.0736 1.14453,0 2.0736,0.92907 2.0736,2.0736" /><path
       inkscape:connector-curvature="0"
       id="path1566"
       style="fill:#ffffff;fill-opacity:1;fill-rule:nonzero;stroke:none;stroke-width:0.10666666"
       d="m 299.96096,391.25351 c 0,1.1456 -0.92907,2.0736 -2.0736,2.0736 -1.1456,0 -2.07467,-0.928 -2.07467,-2.0736 0,-1.14453 0.92907,-2.0736 2.07467,-2.0736 1.14453,0 2.0736,0.92907 2.0736,2.0736" /><path
       inkscape:connector-curvature="0"
       id="path1568"
       style="fill:#ffffff;fill-opacity:1;fill-rule:nonzero;stroke:none;stroke-width:0.10666666"
       d="m 299.96096,400.32445 c 0,1.1456 -0.92907,2.0736 -2.0736,2.0736 -1.1456,0 -2.07467,-0.928 -2.07467,-2.0736 0,-1.14454 0.92907,-2.0736 2.07467,-2.0736 1.14453,0 2.0736,0.92906 2.0736,2.0736" /><path
       inkscape:connector-curvature="0"
       id="path1732"
       style="fill:none;stroke:#000000;stroke-width:2.30400014;stroke-linecap:round;stroke-linejoin:round;stroke-miterlimit:10;stroke-dasharray:none;stroke-opacity:1"
       d="M 318.29802,379.04231 H 254.79936" /><path
       inkscape:connector-curvature="0"
       id="path1734"
       style="fill:none;stroke:#000000;stroke-width:2.30400014;stroke-linecap:round;stroke-linejoin:round;stroke-miterlimit:10;stroke-dasharray:none;stroke-opacity:1"
       d="M 318.29802,489.63431 H 254.79936" /><path
       inkscape:connector-curvature="0"
       id="path1736"
       style="fill:none;stroke:#000000;stroke-width:2.30400014;stroke-linecap:round;stroke-linejoin:round;stroke-miterlimit:10;stroke-dasharray:none;stroke-opacity:1"
       d="m 318.29802,489.63431 v -110.592" /><path
       inkscape:connector-curvature="0"
       id="path1738"
       style="fill:none;stroke:#000000;stroke-width:2.30400014;stroke-linecap:round;stroke-linejoin:round;stroke-miterlimit:10;stroke-dasharray:none;stroke-opacity:1"
       d="m 254.79936,489.63431 v -110.592" /><path
       inkscape:connector-curvature="0"
       id="path1740"
       style="fill:none;stroke:#000000;stroke-width:2.30400014;stroke-linecap:round;stroke-linejoin:round;stroke-miterlimit:10;stroke-dasharray:none;stroke-opacity:1"
       d="m 331.47669,472.95805 c 0,-1.90827 -1.54773,-3.456 -3.456,-3.456 -1.90827,0 -3.456,1.54773 -3.456,3.456 0,1.90826 1.54773,3.456 3.456,3.456 1.90827,0 3.456,-1.54774 3.456,-3.456" /><path
       inkscape:connector-curvature="0"
       id="path1886"
       style="fill:none;stroke:#000000;stroke-width:1.38239992;stroke-linecap:round;stroke-linejoin:round;stroke-miterlimit:10;stroke-dasharray:none;stroke-opacity:1"
       d="m 328.59242,394.59965 -1.152,1.152" /><path
       inkscape:connector-curvature="0"
       id="path1888"
       style="fill:none;stroke:#000000;stroke-width:1.38239992;stroke-linecap:round;stroke-linejoin:round;stroke-miterlimit:10;stroke-dasharray:none;stroke-opacity:1"
       d="m 327.44042,395.75165 h -3.456" /><path
       inkscape:connector-curvature="0"
       id="path1890"
       style="fill:none;stroke:#000000;stroke-width:1.38239992;stroke-linecap:round;stroke-linejoin:round;stroke-miterlimit:10;stroke-dasharray:none;stroke-opacity:1"
       d="m 323.98442,395.75165 -1.152,-1.152" /><path
       inkscape:connector-curvature="0"
       id="path1892"
       style="fill:none;stroke:#000000;stroke-width:1.38239992;stroke-linecap:round;stroke-linejoin:round;stroke-miterlimit:10;stroke-dasharray:none;stroke-opacity:1"
       d="m 322.83242,392.29458 v 2.30507" /><path
       inkscape:connector-curvature="0"
       id="path1894"
       style="fill:none;stroke:#000000;stroke-width:1.38239992;stroke-linecap:round;stroke-linejoin:round;stroke-miterlimit:10;stroke-dasharray:none;stroke-opacity:1"
       d="m 323.98442,391.14258 -1.152,1.152" /><path
       inkscape:connector-curvature="0"
       id="path1896"
       style="fill:none;stroke:#000000;stroke-width:1.38239992;stroke-linecap:round;stroke-linejoin:round;stroke-miterlimit:10;stroke-dasharray:none;stroke-opacity:1"
       d="m 327.44042,391.14258 h -3.456" /><path
       inkscape:connector-curvature="0"
       id="path1898"
       style="fill:none;stroke:#000000;stroke-width:1.38239992;stroke-linecap:round;stroke-linejoin:round;stroke-miterlimit:10;stroke-dasharray:none;stroke-opacity:1"
       d="m 328.59242,389.99165 -1.152,1.15093" /><path
       inkscape:connector-curvature="0"
       id="path1900"
       style="fill:none;stroke:#000000;stroke-width:1.38239992;stroke-linecap:round;stroke-linejoin:round;stroke-miterlimit:10;stroke-dasharray:none;stroke-opacity:1"
       d="m 328.59242,387.68658 v 2.30507" /><path
       inkscape:connector-curvature="0"
       id="path1902"
       style="fill:none;stroke:#000000;stroke-width:1.38239992;stroke-linecap:round;stroke-linejoin:round;stroke-miterlimit:10;stroke-dasharray:none;stroke-opacity:1"
       d="m 328.59242,387.68658 -1.152,-1.152" /><path
       inkscape:connector-curvature="0"
       id="path1904"
       style="fill:none;stroke:#000000;stroke-width:1.38239992;stroke-linecap:round;stroke-linejoin:round;stroke-miterlimit:10;stroke-dasharray:none;stroke-opacity:1"
       d="m 327.44042,386.53458 h -3.456" /><path
       inkscape:connector-curvature="0"
       id="path1906"
       style="fill:none;stroke:#000000;stroke-width:1.38239992;stroke-linecap:round;stroke-linejoin:round;stroke-miterlimit:10;stroke-dasharray:none;stroke-opacity:1"
       d="m 323.98442,386.53458 -1.152,1.152" /><path
       inkscape:connector-curvature="0"
       id="path1908"
       style="fill:none;stroke:#000000;stroke-width:1.38239992;stroke-linecap:round;stroke-linejoin:round;stroke-miterlimit:10;stroke-dasharray:none;stroke-opacity:1"
       d="m 334.81322,386.53458 h -2.304" /><path
       inkscape:connector-curvature="0"
       id="path1910"
       style="fill:none;stroke:#000000;stroke-width:1.38239992;stroke-linecap:round;stroke-linejoin:round;stroke-miterlimit:10;stroke-dasharray:none;stroke-opacity:1"
       d="m 333.66122,386.53458 v 9.21707" /><path
       inkscape:connector-curvature="0"
       id="path1912"
       style="fill:none;stroke:#000000;stroke-width:1.38239992;stroke-linecap:round;stroke-linejoin:round;stroke-miterlimit:10;stroke-dasharray:none;stroke-opacity:1"
       d="m 333.66122,395.75165 -2.304,-2.30507" /></g></svg>